<?xml version="1.0" encoding="UTF-8" standalone="no"?><svg xmlns="http://www.w3.org/2000/svg" xmlns:xlink="http://www.w3.org/1999/xlink" clip-rule="evenodd" stroke-miterlimit="4.00" viewBox="0 0 1024 768"><desc>SVG generated by Keynote</desc><defs></defs><g transform="matrix(1.00, 0.00, -0.00, -1.00, 0.0, 768.0)"><g><clipPath id="clip-405"><path d="M 0.0 768.0 L 1024.0 768.0 L 1024.0 0.0 L 0.0 0.0 Z M 0.0 768.0 "></path></clipPath><g clip-path="url(#clip-405)"><image xlink:href="../../AD43F5AB-7C1D-45DB-8B96-B58B9BFD50C8/assets/43DA95A1552523200D88D33196FD3A18.jpeg" width="1024.00" height="768.00" transform="matrix(1.00, 0.00, -0.00, -1.00, 0.0, 768.0)"></image></g></g><text xml:space="preserve" font-family="ComicSansMS-Bold" font-weight="bold" font-size="80.0" fill="#45A6DE" transform="matrix(1.00, 0.00, -0.00, -1.00, 300.0, 619.0)">D</text><text xml:space="preserve" font-family="ComicSansMS-Bold" font-weight="bold" font-size="80.0" fill="#45A6DE" transform="matrix(1.00, 0.00, -0.00, -1.00, 357.7, 619.0)">o</text><text xml:space="preserve" font-family="ComicSansMS-Bold" font-weight="bold" font-size="80.0" fill="#45A6DE" transform="matrix(1.00, 0.00, -0.00, -1.00, 399.8, 619.0)">w</text><text xml:space="preserve" font-family="ComicSansMS-Bold" font-weight="bold" font-size="80.0" fill="#45A6DE" transform="matrix(1.00, 0.00, -0.00, -1.00, 454.5, 619.0)">n</text><text xml:space="preserve" font-family="ComicSansMS-Bold" font-weight="bold" font-size="80.0" fill="#45A6DE" transform="matrix(1.00, 0.00, -0.00, -1.00, 496.4, 619.0)">s</text><text xml:space="preserve" font-family="ComicSansMS-Bold" font-weight="bold" font-size="80.0" fill="#45A6DE" transform="matrix(1.00, 0.00, -0.00, -1.00, 535.3, 619.0)">i</text><text xml:space="preserve" font-family="ComicSansMS-Bold" font-weight="bold" font-size="80.0" fill="#45A6DE" transform="matrix(1.00, 0.00, -0.00, -1.00, 557.8, 619.0)">d</text><text xml:space="preserve" font-family="ComicSansMS-Bold" font-weight="bold" font-size="80.0" fill="#45A6DE" transform="matrix(1.00, 0.00, -0.00, -1.00, 604.8, 619.0)">e</text><text xml:space="preserve" font-family="ComicSansMS-Bold" font-weight="bold" font-size="80.0" fill="#45A6DE" transform="matrix(1.00, 0.00, -0.00, -1.00, 649.5, 619.0)">s</text><text xml:space="preserve" font-family="ComicSansMS-Bold" font-weight="bold" font-size="80.0" fill="#45A6DE" transform="matrix(1.00, 0.00, -0.00, -1.00, 688.5, 619.0)">:</text><g><clipPath id="clip-406"><path d="M 104.0 481.5 L 130.9 481.5 L 130.9 506.6 L 104.0 506.6 Z M 104.0 481.5 "></path></clipPath><g clip-path="url(#clip-406)"><path d="M 130.5 490.5 C 130.8 490.2 130.9 489.8 130.9 489.4 C 130.9 488.6 130.4 487.8 129.5 487.1 C 128.7 486.5 127.6 486.1 126.5 486.1 C 125.1 486.1 123.4 487.2 121.4 489.4 C 121.4 489.4 121.4 486.1 121.4 486.1 C 121.4 485.8 121.5 485.4 121.7 485.0 C 121.9 484.5 122.0 484.2 122.0 484.0 C 122.0 483.3 121.6 482.7 120.9 482.3 C 120.2 481.8 119.6 481.5 118.9 481.5 C 117.7 481.5 116.6 482.1 115.7 483.1 C 115.4 483.4 115.4 484.3 115.5 485.7 C 115.5 487.2 115.6 488.7 115.7 490.1 C 115.0 489.6 113.5 488.8 111.4 487.7 C 111.2 487.3 110.3 486.8 108.9 486.3 C 107.8 486.2 106.8 486.4 105.7 486.9 C 104.6 487.4 104.0 488.1 104.0 489.0 C 104.0 489.2 104.1 489.4 104.2 489.6 C 104.4 490.1 104.8 490.4 105.5 490.6 C 106.6 491.0 107.2 491.2 107.3 491.2 C 107.3 491.2 113.3 494.5 113.3 494.5 C 113.3 494.5 109.1 496.5 109.1 496.5 C 108.4 496.5 107.6 496.8 106.6 497.4 C 106.4 497.7 106.3 498.1 106.3 498.4 C 106.3 499.4 106.9 500.4 108.1 501.3 C 109.3 502.3 110.5 502.8 111.7 502.8 C 112.0 502.8 112.4 502.7 112.8 502.6 C 113.2 502.4 113.6 502.1 113.9 501.5 C 114.3 500.8 114.9 500.1 115.7 499.6 C 115.7 499.6 115.9 503.4 115.9 503.4 C 115.7 503.9 115.7 504.7 115.9 505.7 C 116.3 506.3 117.4 506.6 119.1 506.6 C 120.6 506.6 121.7 506.2 122.2 505.3 C 122.4 504.9 122.4 504.0 122.3 502.7 C 122.2 501.5 122.0 500.3 121.9 499.1 C 121.9 499.1 124.1 500.2 124.1 500.2 C 124.5 500.6 125.3 501.1 126.5 501.7 C 127.4 501.7 128.2 501.4 129.0 500.7 C 129.8 500.0 130.3 499.2 130.3 498.3 C 130.3 498.0 130.2 497.6 129.9 497.3 C 129.7 497.0 129.4 496.8 128.8 496.7 C 128.2 496.5 127.7 496.4 127.5 496.2 C 127.5 496.2 124.2 493.9 124.2 493.9 C 124.2 493.9 128.4 491.6 128.4 491.6 C 129.0 491.5 129.7 491.1 130.5 490.5 Z M 130.5 490.5 " fill="#3995D6"></path></g></g><text xml:space="preserve" font-family="ComicSansMS" font-size="36.0" fill="#858585" transform="matrix(1.00, 0.00, -0.00, -1.00, 139.0, 479.0)">C</text><text xml:space="preserve" font-family="ComicSansMS" font-size="36.0" fill="#858585" transform="matrix(1.00, 0.00, -0.00, -1.00, 160.7, 479.0)">a</text><text xml:space="preserve" font-family="ComicSansMS" font-size="36.0" fill="#858585" transform="matrix(1.00, 0.00, -0.00, -1.00, 179.1, 479.0)">n</text><text xml:space="preserve" font-family="ComicSansMS" font-size="36.0" fill="#858585" transform="matrix(1.00, 0.00, -0.00, -1.00, 197.9, 479.0)">’</text><text xml:space="preserve" font-family="ComicSansMS" font-size="36.0" fill="#858585" transform="matrix(1.00, 0.00, -0.00, -1.00, 204.4, 479.0)">t</text><text xml:space="preserve" font-family="ComicSansMS" font-size="36.0" fill="#858585" transform="matrix(1.00, 0.00, -0.00, -1.00, 221.4, 479.0)"> </text><text xml:space="preserve" font-family="ComicSansMS" font-size="36.0" fill="#858585" transform="matrix(1.00, 0.00, -0.00, -1.00, 232.2, 479.0)">a</text><text xml:space="preserve" font-family="ComicSansMS" font-size="36.0" fill="#858585" transform="matrix(1.00, 0.00, -0.00, -1.00, 250.6, 479.0)">c</text><text xml:space="preserve" font-family="ComicSansMS" font-size="36.0" fill="#858585" transform="matrix(1.00, 0.00, -0.00, -1.00, 269.0, 479.0)">c</text><text xml:space="preserve" font-family="ComicSansMS" font-size="36.0" fill="#858585" transform="matrix(1.00, 0.00, -0.00, -1.00, 287.5, 479.0)">e</text><text xml:space="preserve" font-family="ComicSansMS" font-size="36.0" fill="#858585" transform="matrix(1.00, 0.00, -0.00, -1.00, 307.2, 479.0)">s</text><text xml:space="preserve" font-family="ComicSansMS" font-size="36.0" fill="#858585" transform="matrix(1.00, 0.00, -0.00, -1.00, 324.8, 479.0)">s</text><text xml:space="preserve" font-family="ComicSansMS" font-size="36.0" fill="#858585" transform="matrix(1.00, 0.00, -0.00, -1.00, 342.3, 479.0)"> </text><text xml:space="preserve" font-family="ComicSansMS" font-size="36.0" fill="#858585" transform="matrix(1.00, 0.00, -0.00, -1.00, 353.0, 479.0)">y</text><text xml:space="preserve" font-family="ComicSansMS" font-size="36.0" fill="#858585" transform="matrix(1.00, 0.00, -0.00, -1.00, 371.8, 479.0)">o</text><text xml:space="preserve" font-family="ComicSansMS" font-size="36.0" fill="#858585" transform="matrix(1.00, 0.00, -0.00, -1.00, 390.7, 479.0)">u</text><text xml:space="preserve" font-family="ComicSansMS" font-size="36.0" fill="#858585" transform="matrix(1.00, 0.00, -0.00, -1.00, 409.4, 479.0)">r</text><text xml:space="preserve" font-family="ComicSansMS" font-size="36.0" fill="#858585" transform="matrix(1.00, 0.00, -0.00, -1.00, 426.7, 479.0)"> </text><text xml:space="preserve" font-family="ComicSansMS" font-size="36.0" fill="#858585" transform="matrix(1.00, 0.00, -0.00, -1.00, 437.5, 479.0)">l</text><text xml:space="preserve" font-family="ComicSansMS" font-size="36.0" fill="#858585" transform="matrix(1.00, 0.00, -0.00, -1.00, 447.3, 479.0)">o</text><text xml:space="preserve" font-family="ComicSansMS" font-size="36.0" fill="#858585" transform="matrix(1.00, 0.00, -0.00, -1.00, 466.3, 479.0)">c</text><text xml:space="preserve" font-family="ComicSansMS" font-size="36.0" fill="#858585" transform="matrix(1.00, 0.00, -0.00, -1.00, 484.7, 479.0)">a</text><text xml:space="preserve" font-family="ComicSansMS" font-size="36.0" fill="#858585" transform="matrix(1.00, 0.00, -0.00, -1.00, 503.1, 479.0)">l</text><text xml:space="preserve" font-family="ComicSansMS" font-size="36.0" fill="#858585" transform="matrix(1.00, 0.00, -0.00, -1.00, 513.0, 479.0)"> </text><text xml:space="preserve" font-family="ComicSansMS" font-size="36.0" fill="#858585" transform="matrix(1.00, 0.00, -0.00, -1.00, 139.0, 429.0)">m</text><text xml:space="preserve" font-family="ComicSansMS" font-size="36.0" fill="#858585" transform="matrix(1.00, 0.00, -0.00, -1.00, 167.0, 429.0)">a</text><text xml:space="preserve" font-family="ComicSansMS" font-size="36.0" fill="#858585" transform="matrix(1.00, 0.00, -0.00, -1.00, 185.4, 429.0)">c</text><text xml:space="preserve" font-family="ComicSansMS" font-size="36.0" fill="#858585" transform="matrix(1.00, 0.00, -0.00, -1.00, 203.9, 429.0)">h</text><text xml:space="preserve" font-family="ComicSansMS" font-size="36.0" fill="#858585" transform="matrix(1.00, 0.00, -0.00, -1.00, 224.6, 429.0)">i</text><text xml:space="preserve" font-family="ComicSansMS" font-size="36.0" fill="#858585" transform="matrix(1.00, 0.00, -0.00, -1.00, 234.7, 429.0)">n</text><text xml:space="preserve" font-family="ComicSansMS" font-size="36.0" fill="#858585" transform="matrix(1.00, 0.00, -0.00, -1.00, 253.6, 429.0)">e</text><text xml:space="preserve" font-family="ComicSansMS" font-size="36.0" fill="#858585" transform="matrix(1.00, 0.00, -0.00, -1.00, 273.3, 429.0)"> </text><text xml:space="preserve" font-family="ComicSansMS" font-size="36.0" fill="#858585" transform="matrix(1.00, 0.00, -0.00, -1.00, 284.1, 429.0)">w</text><text xml:space="preserve" font-family="ComicSansMS" font-size="36.0" fill="#858585" transform="matrix(1.00, 0.00, -0.00, -1.00, 308.7, 429.0)">i</text><text xml:space="preserve" font-family="ComicSansMS" font-size="36.0" fill="#858585" transform="matrix(1.00, 0.00, -0.00, -1.00, 318.8, 429.0)">t</text><text xml:space="preserve" font-family="ComicSansMS" font-size="36.0" fill="#858585" transform="matrix(1.00, 0.00, -0.00, -1.00, 335.8, 429.0)">h</text><text xml:space="preserve" font-family="ComicSansMS" font-size="36.0" fill="#858585" transform="matrix(1.00, 0.00, -0.00, -1.00, 356.5, 429.0)">o</text><text xml:space="preserve" font-family="ComicSansMS" font-size="36.0" fill="#858585" transform="matrix(1.00, 0.00, -0.00, -1.00, 375.5, 429.0)">u</text><text xml:space="preserve" font-family="ComicSansMS" font-size="36.0" fill="#858585" transform="matrix(1.00, 0.00, -0.00, -1.00, 394.2, 429.0)">t</text><text xml:space="preserve" font-family="ComicSansMS" font-size="36.0" fill="#858585" transform="matrix(1.00, 0.00, -0.00, -1.00, 411.2, 429.0)"> </text><text xml:space="preserve" font-family="ComicSansMS" font-size="36.0" fill="#858585" transform="matrix(1.00, 0.00, -0.00, -1.00, 139.0, 379.0)">t</text><text xml:space="preserve" font-family="ComicSansMS" font-size="36.0" fill="#858585" transform="matrix(1.00, 0.00, -0.00, -1.00, 156.0, 379.0)">r</text><text xml:space="preserve" font-family="ComicSansMS" font-size="36.0" fill="#858585" transform="matrix(1.00, 0.00, -0.00, -1.00, 173.3, 379.0)">i</text><text xml:space="preserve" font-family="ComicSansMS" font-size="36.0" fill="#858585" transform="matrix(1.00, 0.00, -0.00, -1.00, 183.4, 379.0)">c</text><text xml:space="preserve" font-family="ComicSansMS" font-size="36.0" fill="#858585" transform="matrix(1.00, 0.00, -0.00, -1.00, 201.9, 379.0)">k</text><text xml:space="preserve" font-family="ComicSansMS" font-size="36.0" fill="#858585" transform="matrix(1.00, 0.00, -0.00, -1.00, 221.3, 379.0)">e</text><text xml:space="preserve" font-family="ComicSansMS" font-size="36.0" fill="#858585" transform="matrix(1.00, 0.00, -0.00, -1.00, 241.0, 379.0)">r</text><text xml:space="preserve" font-family="ComicSansMS" font-size="36.0" fill="#858585" transform="matrix(1.00, 0.00, -0.00, -1.00, 258.3, 379.0)">y</text><text xml:space="preserve" font-family="ComicSansMS" font-size="36.0" fill="#858585" transform="matrix(1.00, 0.00, -0.00, -1.00, 277.1, 379.0)"> </text><text xml:space="preserve" font-family="ComicSansMS" font-size="36.0" fill="#858585" transform="matrix(1.00, 0.00, -0.00, -1.00, 287.8, 379.0)">s</text><text xml:space="preserve" font-family="ComicSansMS" font-size="36.0" fill="#858585" transform="matrix(1.00, 0.00, -0.00, -1.00, 305.3, 379.0)">u</text><text xml:space="preserve" font-family="ComicSansMS" font-size="36.0" fill="#858585" transform="matrix(1.00, 0.00, -0.00, -1.00, 324.1, 379.0)">c</text><text xml:space="preserve" font-family="ComicSansMS" font-size="36.0" fill="#858585" transform="matrix(1.00, 0.00, -0.00, -1.00, 342.5, 379.0)">h</text><text xml:space="preserve" font-family="ComicSansMS" font-size="36.0" fill="#858585" transform="matrix(1.00, 0.00, -0.00, -1.00, 363.3, 379.0)"> </text><text xml:space="preserve" font-family="ComicSansMS" font-size="36.0" fill="#858585" transform="matrix(1.00, 0.00, -0.00, -1.00, 374.1, 379.0)">a</text><text xml:space="preserve" font-family="ComicSansMS" font-size="36.0" fill="#858585" transform="matrix(1.00, 0.00, -0.00, -1.00, 392.5, 379.0)">s</text><text xml:space="preserve" font-family="ComicSansMS" font-size="36.0" fill="#858585" transform="matrix(1.00, 0.00, -0.00, -1.00, 410.0, 379.0)"> </text><text xml:space="preserve" font-family="ComicSansMS" font-size="36.0" fill="#858585" transform="matrix(1.00, 0.00, -0.00, -1.00, 139.0, 329.0)">C</text><text xml:space="preserve" font-family="ComicSansMS" font-size="36.0" fill="#858585" transform="matrix(1.00, 0.00, -0.00, -1.00, 160.7, 329.0)">h</text><text xml:space="preserve" font-family="ComicSansMS" font-size="36.0" fill="#858585" transform="matrix(1.00, 0.00, -0.00, -1.00, 181.5, 329.0)">a</text><text xml:space="preserve" font-family="ComicSansMS" font-size="36.0" fill="#858585" transform="matrix(1.00, 0.00, -0.00, -1.00, 199.9, 329.0)">r</text><text xml:space="preserve" font-family="ComicSansMS" font-size="36.0" fill="#858585" transform="matrix(1.00, 0.00, -0.00, -1.00, 217.2, 329.0)">l</text><text xml:space="preserve" font-family="ComicSansMS" font-size="36.0" fill="#858585" transform="matrix(1.00, 0.00, -0.00, -1.00, 227.0, 329.0)">e</text><text xml:space="preserve" font-family="ComicSansMS" font-size="36.0" fill="#858585" transform="matrix(1.00, 0.00, -0.00, -1.00, 246.7, 329.0)">s</text><text xml:space="preserve" font-family="ComicSansMS" font-size="36.0" fill="#858585" transform="matrix(1.00, 0.00, -0.00, -1.00, 264.2, 329.0)"> </text><text xml:space="preserve" font-family="ComicSansMS" font-size="36.0" fill="#858585" transform="matrix(1.00, 0.00, -0.00, -1.00, 275.0, 329.0)">p</text><text xml:space="preserve" font-family="ComicSansMS" font-size="36.0" fill="#858585" transform="matrix(1.00, 0.00, -0.00, -1.00, 294.2, 329.0)">r</text><text xml:space="preserve" font-family="ComicSansMS" font-size="36.0" fill="#858585" transform="matrix(1.00, 0.00, -0.00, -1.00, 311.5, 329.0)">o</text><text xml:space="preserve" font-family="ComicSansMS" font-size="36.0" fill="#858585" transform="matrix(1.00, 0.00, -0.00, -1.00, 330.4, 329.0)">x</text><text xml:space="preserve" font-family="ComicSansMS" font-size="36.0" fill="#858585" transform="matrix(1.00, 0.00, -0.00, -1.00, 351.7, 329.0)">y</text><text xml:space="preserve" font-family="ComicSansMS" font-size="36.0" fill="#858585" transform="matrix(1.00, 0.00, -0.00, -1.00, 370.4, 329.0)"> </text><g><clipPath id="clip-407"><path d="M 104.0 243.5 L 130.9 243.5 L 130.9 268.6 L 104.0 268.6 Z M 104.0 243.5 "></path></clipPath><g clip-path="url(#clip-407)"><path d="M 130.5 252.5 C 130.8 252.2 130.9 251.8 130.9 251.4 C 130.9 250.6 130.4 249.8 129.5 249.1 C 128.7 248.5 127.6 248.1 126.5 248.1 C 125.1 248.1 123.4 249.2 121.4 251.4 C 121.4 251.4 121.4 248.1 121.4 248.1 C 121.4 247.8 121.5 247.4 121.7 247.0 C 121.9 246.5 122.0 246.2 122.0 246.0 C 122.0 245.3 121.6 244.7 120.9 244.3 C 120.2 243.8 119.6 243.5 118.9 243.5 C 117.7 243.5 116.6 244.1 115.7 245.1 C 115.4 245.4 115.4 246.3 115.5 247.7 C 115.5 249.2 115.6 250.7 115.7 252.1 C 115.0 251.6 113.5 250.8 111.4 249.7 C 111.2 249.3 110.3 248.8 108.9 248.3 C 107.8 248.2 106.8 248.4 105.7 248.9 C 104.6 249.4 104.0 250.1 104.0 251.0 C 104.0 251.2 104.1 251.4 104.2 251.6 C 104.4 252.1 104.8 252.4 105.5 252.6 C 106.6 253.0 107.2 253.2 107.3 253.2 C 107.3 253.2 113.3 256.5 113.3 256.5 C 113.3 256.5 109.1 258.5 109.1 258.5 C 108.4 258.5 107.6 258.8 106.6 259.4 C 106.4 259.7 106.3 260.1 106.3 260.4 C 106.3 261.4 106.9 262.4 108.1 263.3 C 109.3 264.3 110.5 264.8 111.7 264.8 C 112.0 264.8 112.4 264.7 112.8 264.6 C 113.2 264.4 113.6 264.1 113.9 263.5 C 114.3 262.8 114.9 262.1 115.7 261.6 C 115.7 261.6 115.9 265.4 115.9 265.4 C 115.7 265.9 115.7 266.7 115.9 267.7 C 116.3 268.3 117.4 268.6 119.1 268.6 C 120.6 268.6 121.7 268.2 122.2 267.3 C 122.4 266.9 122.4 266.0 122.3 264.7 C 122.2 263.5 122.0 262.3 121.9 261.1 C 121.9 261.1 124.1 262.2 124.1 262.2 C 124.5 262.6 125.3 263.1 126.5 263.7 C 127.4 263.7 128.2 263.4 129.0 262.7 C 129.8 262.0 130.3 261.2 130.3 260.3 C 130.3 260.0 130.2 259.6 129.9 259.3 C 129.7 259.0 129.4 258.8 128.8 258.7 C 128.2 258.5 127.7 258.4 127.5 258.2 C 127.5 258.2 124.2 255.9 124.2 255.9 C 124.2 255.9 128.4 253.6 128.4 253.6 C 129.0 253.5 129.7 253.1 130.5 252.5 Z M 130.5 252.5 " fill="#3995D6"></path></g></g><text xml:space="preserve" font-family="ComicSansMS" font-size="36.0" fill="#858585" transform="matrix(1.00, 0.00, -0.00, -1.00, 139.0, 241.0)">D</text><text xml:space="preserve" font-family="ComicSansMS" font-size="36.0" fill="#858585" transform="matrix(1.00, 0.00, -0.00, -1.00, 165.0, 241.0)">e</text><text xml:space="preserve" font-family="ComicSansMS" font-size="36.0" fill="#858585" transform="matrix(1.00, 0.00, -0.00, -1.00, 184.7, 241.0)">v</text><text xml:space="preserve" font-family="ComicSansMS" font-size="36.0" fill="#858585" transform="matrix(1.00, 0.00, -0.00, -1.00, 202.2, 241.0)">T</text><text xml:space="preserve" font-family="ComicSansMS" font-size="36.0" fill="#858585" transform="matrix(1.00, 0.00, -0.00, -1.00, 226.7, 241.0)">o</text><text xml:space="preserve" font-family="ComicSansMS" font-size="36.0" fill="#858585" transform="matrix(1.00, 0.00, -0.00, -1.00, 245.6, 241.0)">o</text><text xml:space="preserve" font-family="ComicSansMS" font-size="36.0" fill="#858585" transform="matrix(1.00, 0.00, -0.00, -1.00, 264.5, 241.0)">l</text><text xml:space="preserve" font-family="ComicSansMS" font-size="36.0" fill="#858585" transform="matrix(1.00, 0.00, -0.00, -1.00, 274.4, 241.0)">s</text><text xml:space="preserve" font-family="ComicSansMS" font-size="36.0" fill="#858585" transform="matrix(1.00, 0.00, -0.00, -1.00, 291.9, 241.0)"> </text><text xml:space="preserve" font-family="ComicSansMS" font-size="36.0" fill="#858585" transform="matrix(1.00, 0.00, -0.00, -1.00, 302.6, 241.0)">d</text><text xml:space="preserve" font-family="ComicSansMS" font-size="36.0" fill="#858585" transform="matrix(1.00, 0.00, -0.00, -1.00, 323.8, 241.0)">e</text><text xml:space="preserve" font-family="ComicSansMS" font-size="36.0" fill="#858585" transform="matrix(1.00, 0.00, -0.00, -1.00, 343.5, 241.0)">p</text><text xml:space="preserve" font-family="ComicSansMS" font-size="36.0" fill="#858585" transform="matrix(1.00, 0.00, -0.00, -1.00, 362.7, 241.0)">e</text><text xml:space="preserve" font-family="ComicSansMS" font-size="36.0" fill="#858585" transform="matrix(1.00, 0.00, -0.00, -1.00, 382.5, 241.0)">n</text><text xml:space="preserve" font-family="ComicSansMS" font-size="36.0" fill="#858585" transform="matrix(1.00, 0.00, -0.00, -1.00, 401.3, 241.0)">d</text><text xml:space="preserve" font-family="ComicSansMS" font-size="36.0" fill="#858585" transform="matrix(1.00, 0.00, -0.00, -1.00, 422.5, 241.0)">s</text><text xml:space="preserve" font-family="ComicSansMS" font-size="36.0" fill="#858585" transform="matrix(1.00, 0.00, -0.00, -1.00, 440.0, 241.0)"> </text><text xml:space="preserve" font-family="ComicSansMS" font-size="36.0" fill="#858585" transform="matrix(1.00, 0.00, -0.00, -1.00, 450.8, 241.0)">o</text><text xml:space="preserve" font-family="ComicSansMS" font-size="36.0" fill="#858585" transform="matrix(1.00, 0.00, -0.00, -1.00, 469.7, 241.0)">n</text><text xml:space="preserve" font-family="ComicSansMS" font-size="36.0" fill="#858585" transform="matrix(1.00, 0.00, -0.00, -1.00, 488.6, 241.0)"> </text><text xml:space="preserve" font-family="ComicSansMS" font-size="36.0" fill="#858585" transform="matrix(1.00, 0.00, -0.00, -1.00, 139.0, 191.0)">A</text><text xml:space="preserve" font-family="ComicSansMS" font-size="36.0" fill="#858585" transform="matrix(1.00, 0.00, -0.00, -1.00, 165.3, 191.0)">n</text><text xml:space="preserve" font-family="ComicSansMS" font-size="36.0" fill="#858585" transform="matrix(1.00, 0.00, -0.00, -1.00, 184.2, 191.0)">d</text><text xml:space="preserve" font-family="ComicSansMS" font-size="36.0" fill="#858585" transform="matrix(1.00, 0.00, -0.00, -1.00, 205.4, 191.0)">r</text><text xml:space="preserve" font-family="ComicSansMS" font-size="36.0" fill="#858585" transform="matrix(1.00, 0.00, -0.00, -1.00, 222.7, 191.0)">o</text><text xml:space="preserve" font-family="ComicSansMS" font-size="36.0" fill="#858585" transform="matrix(1.00, 0.00, -0.00, -1.00, 241.6, 191.0)">i</text><text xml:space="preserve" font-family="ComicSansMS" font-size="36.0" fill="#858585" transform="matrix(1.00, 0.00, -0.00, -1.00, 251.7, 191.0)">d</text><text xml:space="preserve" font-family="ComicSansMS" font-size="36.0" fill="#858585" transform="matrix(1.00, 0.00, -0.00, -1.00, 272.9, 191.0)"> </text><text xml:space="preserve" font-family="ComicSansMS" font-size="36.0" fill="#858585" transform="matrix(1.00, 0.00, -0.00, -1.00, 283.6, 191.0)">v</text><text xml:space="preserve" font-family="ComicSansMS" font-size="36.0" fill="#858585" transform="matrix(1.00, 0.00, -0.00, -1.00, 301.1, 191.0)">e</text><text xml:space="preserve" font-family="ComicSansMS" font-size="36.0" fill="#858585" transform="matrix(1.00, 0.00, -0.00, -1.00, 320.8, 191.0)">r</text><text xml:space="preserve" font-family="ComicSansMS" font-size="36.0" fill="#858585" transform="matrix(1.00, 0.00, -0.00, -1.00, 338.1, 191.0)">s</text><text xml:space="preserve" font-family="ComicSansMS" font-size="36.0" fill="#858585" transform="matrix(1.00, 0.00, -0.00, -1.00, 355.6, 191.0)">i</text><text xml:space="preserve" font-family="ComicSansMS" font-size="36.0" fill="#858585" transform="matrix(1.00, 0.00, -0.00, -1.00, 365.7, 191.0)">o</text><text xml:space="preserve" font-family="ComicSansMS" font-size="36.0" fill="#858585" transform="matrix(1.00, 0.00, -0.00, -1.00, 384.6, 191.0)">n</text><text xml:space="preserve" font-family="ComicSansMS" font-size="36.0" fill="#858585" transform="matrix(1.00, 0.00, -0.00, -1.00, 403.5, 191.0)"> </text><text xml:space="preserve" font-family="ComicSansMS" font-size="36.0" fill="#858585" transform="matrix(1.00, 0.00, -0.00, -1.00, 414.2, 191.0)">s</text><text xml:space="preserve" font-family="ComicSansMS" font-size="36.0" fill="#858585" transform="matrix(1.00, 0.00, -0.00, -1.00, 431.7, 191.0)">o</text><text xml:space="preserve" font-family="ComicSansMS" font-size="36.0" fill="#858585" transform="matrix(1.00, 0.00, -0.00, -1.00, 450.6, 191.0)"> </text><text xml:space="preserve" font-family="ComicSansMS" font-size="36.0" fill="#858585" transform="matrix(1.00, 0.00, -0.00, -1.00, 461.4, 191.0)">i</text><text xml:space="preserve" font-family="ComicSansMS" font-size="36.0" fill="#858585" transform="matrix(1.00, 0.00, -0.00, -1.00, 471.5, 191.0)">t</text><text xml:space="preserve" font-family="ComicSansMS" font-size="36.0" fill="#858585" transform="matrix(1.00, 0.00, -0.00, -1.00, 488.5, 191.0)"> </text><text xml:space="preserve" font-family="ComicSansMS" font-size="36.0" fill="#858585" transform="matrix(1.00, 0.00, -0.00, -1.00, 139.0, 141.0)">m</text><text xml:space="preserve" font-family="ComicSansMS" font-size="36.0" fill="#858585" transform="matrix(1.00, 0.00, -0.00, -1.00, 167.0, 141.0)">i</text><text xml:space="preserve" font-family="ComicSansMS" font-size="36.0" fill="#858585" transform="matrix(1.00, 0.00, -0.00, -1.00, 177.1, 141.0)">g</text><text xml:space="preserve" font-family="ComicSansMS" font-size="36.0" fill="#858585" transform="matrix(1.00, 0.00, -0.00, -1.00, 196.2, 141.0)">h</text><text xml:space="preserve" font-family="ComicSansMS" font-size="36.0" fill="#858585" transform="matrix(1.00, 0.00, -0.00, -1.00, 216.9, 141.0)">t</text><text xml:space="preserve" font-family="ComicSansMS" font-size="36.0" fill="#858585" transform="matrix(1.00, 0.00, -0.00, -1.00, 233.9, 141.0)"> </text><text xml:space="preserve" font-family="ComicSansMS" font-size="36.0" fill="#858585" transform="matrix(1.00, 0.00, -0.00, -1.00, 244.7, 141.0)">b</text><text xml:space="preserve" font-family="ComicSansMS" font-size="36.0" fill="#858585" transform="matrix(1.00, 0.00, -0.00, -1.00, 266.0, 141.0)">e</text><text xml:space="preserve" font-family="ComicSansMS" font-size="36.0" fill="#858585" transform="matrix(1.00, 0.00, -0.00, -1.00, 285.8, 141.0)"> </text><text xml:space="preserve" font-family="ComicSansMS" font-size="36.0" fill="#858585" transform="matrix(1.00, 0.00, -0.00, -1.00, 296.5, 141.0)">u</text><text xml:space="preserve" font-family="ComicSansMS" font-size="36.0" fill="#858585" transform="matrix(1.00, 0.00, -0.00, -1.00, 315.2, 141.0)">n</text><text xml:space="preserve" font-family="ComicSansMS" font-size="36.0" fill="#858585" transform="matrix(1.00, 0.00, -0.00, -1.00, 334.1, 141.0)">f</text><text xml:space="preserve" font-family="ComicSansMS" font-size="36.0" fill="#858585" transform="matrix(1.00, 0.00, -0.00, -1.00, 352.4, 141.0)">a</text><text xml:space="preserve" font-family="ComicSansMS" font-size="36.0" fill="#858585" transform="matrix(1.00, 0.00, -0.00, -1.00, 370.8, 141.0)">m</text><text xml:space="preserve" font-family="ComicSansMS" font-size="36.0" fill="#858585" transform="matrix(1.00, 0.00, -0.00, -1.00, 398.8, 141.0)">i</text><text xml:space="preserve" font-family="ComicSansMS" font-size="36.0" fill="#858585" transform="matrix(1.00, 0.00, -0.00, -1.00, 408.9, 141.0)">l</text><text xml:space="preserve" font-family="ComicSansMS" font-size="36.0" fill="#858585" transform="matrix(1.00, 0.00, -0.00, -1.00, 418.7, 141.0)">i</text><text xml:space="preserve" font-family="ComicSansMS" font-size="36.0" fill="#858585" transform="matrix(1.00, 0.00, -0.00, -1.00, 428.8, 141.0)">a</text><text xml:space="preserve" font-family="ComicSansMS" font-size="36.0" fill="#858585" transform="matrix(1.00, 0.00, -0.00, -1.00, 447.2, 141.0)">r</text><image xlink:href="A07C625C0767B42432F6B2C499F384FF.png" width="211.00" height="129.00" transform="matrix(2.09, 0.00, -0.00, -2.09, 536.0, 449.0)"></image></g></svg>