<?xml version="1.0" encoding="UTF-8" standalone="no"?><svg xmlns="http://www.w3.org/2000/svg" xmlns:xlink="http://www.w3.org/1999/xlink" clip-rule="evenodd" stroke-miterlimit="4.00" viewBox="0 0 1024 768"><desc>SVG generated by Keynote</desc><defs></defs><g transform="matrix(1.00, 0.00, -0.00, -1.00, 0.0, 768.0)"><g><clipPath id="clip-411"><path d="M 0.0 768.0 L 1024.0 768.0 L 1024.0 0.0 L 0.0 0.0 Z M 0.0 768.0 "></path></clipPath><g clip-path="url(#clip-411)"><image xlink:href="../../AD43F5AB-7C1D-45DB-8B96-B58B9BFD50C8/assets/43DA95A1552523200D88D33196FD3A18.jpeg" width="1024.00" height="768.00" transform="matrix(1.00, 0.00, -0.00, -1.00, 0.0, 768.0)"></image></g></g><text xml:space="preserve" font-family="ComicSansMS-Bold" font-weight="bold" font-size="80.0" fill="#45A6DE" transform="matrix(1.00, 0.00, -0.00, -1.00, 163.0, 619.0)">B</text><text xml:space="preserve" font-family="ComicSansMS-Bold" font-weight="bold" font-size="80.0" fill="#45A6DE" transform="matrix(1.00, 0.00, -0.00, -1.00, 213.5, 619.0)">r</text><text xml:space="preserve" font-family="ComicSansMS-Bold" font-weight="bold" font-size="80.0" fill="#45A6DE" transform="matrix(1.00, 0.00, -0.00, -1.00, 251.9, 619.0)">o</text><text xml:space="preserve" font-family="ComicSansMS-Bold" font-weight="bold" font-size="80.0" fill="#45A6DE" transform="matrix(1.00, 0.00, -0.00, -1.00, 294.0, 619.0)">w</text><text xml:space="preserve" font-family="ComicSansMS-Bold" font-weight="bold" font-size="80.0" fill="#45A6DE" transform="matrix(1.00, 0.00, -0.00, -1.00, 348.7, 619.0)">s</text><text xml:space="preserve" font-family="ComicSansMS-Bold" font-weight="bold" font-size="80.0" fill="#45A6DE" transform="matrix(1.00, 0.00, -0.00, -1.00, 387.7, 619.0)">e</text><text xml:space="preserve" font-family="ComicSansMS-Bold" font-weight="bold" font-size="80.0" fill="#45A6DE" transform="matrix(1.00, 0.00, -0.00, -1.00, 432.4, 619.0)">r</text><text xml:space="preserve" font-family="ComicSansMS-Bold" font-weight="bold" font-size="80.0" fill="#45A6DE" transform="matrix(1.00, 0.00, -0.00, -1.00, 470.9, 619.0)">s</text><text xml:space="preserve" font-family="ComicSansMS-Bold" font-weight="bold" font-size="80.0" fill="#45A6DE" transform="matrix(1.00, 0.00, -0.00, -1.00, 509.8, 619.0)">t</text><text xml:space="preserve" font-family="ComicSansMS-Bold" font-weight="bold" font-size="80.0" fill="#45A6DE" transform="matrix(1.00, 0.00, -0.00, -1.00, 547.5, 619.0)">a</text><text xml:space="preserve" font-family="ComicSansMS-Bold" font-weight="bold" font-size="80.0" fill="#45A6DE" transform="matrix(1.00, 0.00, -0.00, -1.00, 591.9, 619.0)">c</text><text xml:space="preserve" font-family="ComicSansMS-Bold" font-weight="bold" font-size="80.0" fill="#45A6DE" transform="matrix(1.00, 0.00, -0.00, -1.00, 633.0, 619.0)">k</text><text xml:space="preserve" font-family="ComicSansMS-Bold" font-weight="bold" font-size="80.0" fill="#45A6DE" transform="matrix(1.00, 0.00, -0.00, -1.00, 676.2, 619.0)"> </text><text xml:space="preserve" font-family="ComicSansMS-Bold" font-weight="bold" font-size="80.0" fill="#45A6DE" transform="matrix(1.00, 0.00, -0.00, -1.00, 710.9, 619.0)">L</text><text xml:space="preserve" font-family="ComicSansMS-Bold" font-weight="bold" font-size="80.0" fill="#45A6DE" transform="matrix(1.00, 0.00, -0.00, -1.00, 754.9, 619.0)">i</text><text xml:space="preserve" font-family="ComicSansMS-Bold" font-weight="bold" font-size="80.0" fill="#45A6DE" transform="matrix(1.00, 0.00, -0.00, -1.00, 777.4, 619.0)">v</text><text xml:space="preserve" font-family="ComicSansMS-Bold" font-weight="bold" font-size="80.0" fill="#45A6DE" transform="matrix(1.00, 0.00, -0.00, -1.00, 816.3, 619.0)">e</text><image xlink:href="3AE32CFB81787100E9DB63A46EFB718B.png" width="608.00" height="316.00" transform="matrix(1.00, 0.00, -0.00, -1.00, 208.0, 553.0)"></image><text xml:space="preserve" font-family="ComicSansMS" font-size="20.0" fill="#858484" transform="matrix(1.00, 0.00, -0.00, -1.00, 361.0, 582.0)">h</text><text xml:space="preserve" font-family="ComicSansMS" font-size="20.0" fill="#858484" transform="matrix(1.00, 0.00, -0.00, -1.00, 372.5, 582.0)">t</text><text xml:space="preserve" font-family="ComicSansMS" font-size="20.0" fill="#858484" transform="matrix(1.00, 0.00, -0.00, -1.00, 382.0, 582.0)">t</text><text xml:space="preserve" font-family="ComicSansMS" font-size="20.0" fill="#858484" transform="matrix(1.00, 0.00, -0.00, -1.00, 391.4, 582.0)">p</text><text xml:space="preserve" font-family="ComicSansMS" font-size="20.0" fill="#858484" transform="matrix(1.00, 0.00, -0.00, -1.00, 402.1, 582.0)">s</text><text xml:space="preserve" font-family="ComicSansMS" font-size="20.0" fill="#858484" transform="matrix(1.00, 0.00, -0.00, -1.00, 411.8, 582.0)">:</text><text xml:space="preserve" font-family="ComicSansMS" font-size="20.0" fill="#858484" transform="matrix(1.00, 0.00, -0.00, -1.00, 417.8, 582.0)">/</text><text xml:space="preserve" font-family="ComicSansMS" font-size="20.0" fill="#858484" transform="matrix(1.00, 0.00, -0.00, -1.00, 428.0, 582.0)">/</text><text xml:space="preserve" font-family="ComicSansMS" font-size="20.0" fill="#858484" transform="matrix(1.00, 0.00, -0.00, -1.00, 438.2, 582.0)">w</text><text xml:space="preserve" font-family="ComicSansMS" font-size="20.0" fill="#858484" transform="matrix(1.00, 0.00, -0.00, -1.00, 451.9, 582.0)">w</text><text xml:space="preserve" font-family="ComicSansMS" font-size="20.0" fill="#858484" transform="matrix(1.00, 0.00, -0.00, -1.00, 465.6, 582.0)">w</text><text xml:space="preserve" font-family="ComicSansMS" font-size="20.0" fill="#858484" transform="matrix(1.00, 0.00, -0.00, -1.00, 479.3, 582.0)">.</text><text xml:space="preserve" font-family="ComicSansMS" font-size="20.0" fill="#858484" transform="matrix(1.00, 0.00, -0.00, -1.00, 484.3, 582.0)">b</text><text xml:space="preserve" font-family="ComicSansMS" font-size="20.0" fill="#858484" transform="matrix(1.00, 0.00, -0.00, -1.00, 496.2, 582.0)">r</text><text xml:space="preserve" font-family="ComicSansMS" font-size="20.0" fill="#858484" transform="matrix(1.00, 0.00, -0.00, -1.00, 505.8, 582.0)">o</text><text xml:space="preserve" font-family="ComicSansMS" font-size="20.0" fill="#858484" transform="matrix(1.00, 0.00, -0.00, -1.00, 516.3, 582.0)">w</text><text xml:space="preserve" font-family="ComicSansMS" font-size="20.0" fill="#858484" transform="matrix(1.00, 0.00, -0.00, -1.00, 530.0, 582.0)">s</text><text xml:space="preserve" font-family="ComicSansMS" font-size="20.0" fill="#858484" transform="matrix(1.00, 0.00, -0.00, -1.00, 539.7, 582.0)">e</text><text xml:space="preserve" font-family="ComicSansMS" font-size="20.0" fill="#858484" transform="matrix(1.00, 0.00, -0.00, -1.00, 550.7, 582.0)">r</text><text xml:space="preserve" font-family="ComicSansMS" font-size="20.0" fill="#858484" transform="matrix(1.00, 0.00, -0.00, -1.00, 560.3, 582.0)">s</text><text xml:space="preserve" font-family="ComicSansMS" font-size="20.0" fill="#858484" transform="matrix(1.00, 0.00, -0.00, -1.00, 570.0, 582.0)">t</text><text xml:space="preserve" font-family="ComicSansMS" font-size="20.0" fill="#858484" transform="matrix(1.00, 0.00, -0.00, -1.00, 579.4, 582.0)">a</text><text xml:space="preserve" font-family="ComicSansMS" font-size="20.0" fill="#858484" transform="matrix(1.00, 0.00, -0.00, -1.00, 589.7, 582.0)">c</text><text xml:space="preserve" font-family="ComicSansMS" font-size="20.0" fill="#858484" transform="matrix(1.00, 0.00, -0.00, -1.00, 599.9, 582.0)">k</text><text xml:space="preserve" font-family="ComicSansMS" font-size="20.0" fill="#858484" transform="matrix(1.00, 0.00, -0.00, -1.00, 610.7, 582.0)">.</text><text xml:space="preserve" font-family="ComicSansMS" font-size="20.0" fill="#858484" transform="matrix(1.00, 0.00, -0.00, -1.00, 615.7, 582.0)">c</text><text xml:space="preserve" font-family="ComicSansMS" font-size="20.0" fill="#858484" transform="matrix(1.00, 0.00, -0.00, -1.00, 626.0, 582.0)">o</text><text xml:space="preserve" font-family="ComicSansMS" font-size="20.0" fill="#858484" transform="matrix(1.00, 0.00, -0.00, -1.00, 636.5, 582.0)">m</text><text xml:space="preserve" font-family="ComicSansMS" font-size="20.0" fill="#858484" transform="matrix(1.00, 0.00, -0.00, -1.00, 652.0, 582.0)">/</text><text xml:space="preserve" font-family="ComicSansMS-Bold" font-weight="bold" font-size="80.0" fill="#45A6DE" transform="matrix(1.00, 0.00, -0.00, -1.00, 110.0, 119.0)">C</text><text xml:space="preserve" font-family="ComicSansMS-Bold" font-weight="bold" font-size="80.0" fill="#45A6DE" transform="matrix(1.00, 0.00, -0.00, -1.00, 159.5, 119.0)">l</text><text xml:space="preserve" font-family="ComicSansMS-Bold" font-weight="bold" font-size="80.0" fill="#45A6DE" transform="matrix(1.00, 0.00, -0.00, -1.00, 181.4, 119.0)">o</text><text xml:space="preserve" font-family="ComicSansMS-Bold" font-weight="bold" font-size="80.0" fill="#45A6DE" transform="matrix(1.00, 0.00, -0.00, -1.00, 223.4, 119.0)">u</text><text xml:space="preserve" font-family="ComicSansMS-Bold" font-weight="bold" font-size="80.0" fill="#45A6DE" transform="matrix(1.00, 0.00, -0.00, -1.00, 265.0, 119.0)">d</text><text xml:space="preserve" font-family="ComicSansMS-Bold" font-weight="bold" font-size="80.0" fill="#45A6DE" transform="matrix(1.00, 0.00, -0.00, -1.00, 312.1, 119.0)"> </text><text xml:space="preserve" font-family="ComicSansMS-Bold" font-weight="bold" font-size="80.0" fill="#45A6DE" transform="matrix(1.00, 0.00, -0.00, -1.00, 346.7, 119.0)">D</text><text xml:space="preserve" font-family="ComicSansMS-Bold" font-weight="bold" font-size="80.0" fill="#45A6DE" transform="matrix(1.00, 0.00, -0.00, -1.00, 404.4, 119.0)">e</text><text xml:space="preserve" font-family="ComicSansMS-Bold" font-weight="bold" font-size="80.0" fill="#45A6DE" transform="matrix(1.00, 0.00, -0.00, -1.00, 449.2, 119.0)">v</text><text xml:space="preserve" font-family="ComicSansMS-Bold" font-weight="bold" font-size="80.0" fill="#45A6DE" transform="matrix(1.00, 0.00, -0.00, -1.00, 488.1, 119.0)">i</text><text xml:space="preserve" font-family="ComicSansMS-Bold" font-weight="bold" font-size="80.0" fill="#45A6DE" transform="matrix(1.00, 0.00, -0.00, -1.00, 510.5, 119.0)">c</text><text xml:space="preserve" font-family="ComicSansMS-Bold" font-weight="bold" font-size="80.0" fill="#45A6DE" transform="matrix(1.00, 0.00, -0.00, -1.00, 551.6, 119.0)">e</text><text xml:space="preserve" font-family="ComicSansMS-Bold" font-weight="bold" font-size="80.0" fill="#45A6DE" transform="matrix(1.00, 0.00, -0.00, -1.00, 596.3, 119.0)"> </text><text xml:space="preserve" font-family="ComicSansMS-Bold" font-weight="bold" font-size="80.0" fill="#45A6DE" transform="matrix(1.00, 0.00, -0.00, -1.00, 631.0, 119.0)">T</text><text xml:space="preserve" font-family="ComicSansMS-Bold" font-weight="bold" font-size="80.0" fill="#45A6DE" transform="matrix(1.00, 0.00, -0.00, -1.00, 686.6, 119.0)">e</text><text xml:space="preserve" font-family="ComicSansMS-Bold" font-weight="bold" font-size="80.0" fill="#45A6DE" transform="matrix(1.00, 0.00, -0.00, -1.00, 731.4, 119.0)">s</text><text xml:space="preserve" font-family="ComicSansMS-Bold" font-weight="bold" font-size="80.0" fill="#45A6DE" transform="matrix(1.00, 0.00, -0.00, -1.00, 770.3, 119.0)">t</text><text xml:space="preserve" font-family="ComicSansMS-Bold" font-weight="bold" font-size="80.0" fill="#45A6DE" transform="matrix(1.00, 0.00, -0.00, -1.00, 808.0, 119.0)">i</text><text xml:space="preserve" font-family="ComicSansMS-Bold" font-weight="bold" font-size="80.0" fill="#45A6DE" transform="matrix(1.00, 0.00, -0.00, -1.00, 830.5, 119.0)">n</text><text xml:space="preserve" font-family="ComicSansMS-Bold" font-weight="bold" font-size="80.0" fill="#45A6DE" transform="matrix(1.00, 0.00, -0.00, -1.00, 872.4, 119.0)">g</text></g></svg>