<?xml version="1.0" encoding="UTF-8" standalone="no"?><svg xmlns="http://www.w3.org/2000/svg" xmlns:xlink="http://www.w3.org/1999/xlink" clip-rule="evenodd" stroke-miterlimit="4.00" viewBox="0 0 1024 768"><desc>SVG generated by Keynote</desc><defs></defs><g transform="matrix(1.00, 0.00, -0.00, -1.00, 0.0, 768.0)"><g><clipPath id="clip-240"><path d="M 0.0 768.0 L 1024.0 768.0 L 1024.0 0.0 L 0.0 0.0 Z M 0.0 768.0 "></path></clipPath><g clip-path="url(#clip-240)"><image xlink:href="../../AD43F5AB-7C1D-45DB-8B96-B58B9BFD50C8/assets/43DA95A1552523200D88D33196FD3A18.jpeg" width="1024.00" height="768.00" transform="matrix(1.00, 0.00, -0.00, -1.00, 0.0, 768.0)"></image></g></g><text xml:space="preserve" font-family="ComicSansMS-Bold" font-weight="bold" font-size="66.4" fill="#45A6DE" transform="matrix(1.00, 0.00, -0.00, -1.00, 118.0, 671.0)">A</text><text xml:space="preserve" font-family="ComicSansMS-Bold" font-weight="bold" font-size="66.4" fill="#45A6DE" transform="matrix(1.00, 0.00, -0.00, -1.00, 166.6, 671.0)">n</text><text xml:space="preserve" font-family="ComicSansMS-Bold" font-weight="bold" font-size="66.4" fill="#45A6DE" transform="matrix(1.00, 0.00, -0.00, -1.00, 201.4, 671.0)">d</text><text xml:space="preserve" font-family="ComicSansMS-Bold" font-weight="bold" font-size="66.4" fill="#45A6DE" transform="matrix(1.00, 0.00, -0.00, -1.00, 240.4, 671.0)">r</text><text xml:space="preserve" font-family="ComicSansMS-Bold" font-weight="bold" font-size="66.4" fill="#45A6DE" transform="matrix(1.00, 0.00, -0.00, -1.00, 272.3, 671.0)">o</text><text xml:space="preserve" font-family="ComicSansMS-Bold" font-weight="bold" font-size="66.4" fill="#45A6DE" transform="matrix(1.00, 0.00, -0.00, -1.00, 307.2, 671.0)">i</text><text xml:space="preserve" font-family="ComicSansMS-Bold" font-weight="bold" font-size="66.4" fill="#45A6DE" transform="matrix(1.00, 0.00, -0.00, -1.00, 325.9, 671.0)">d</text><text xml:space="preserve" font-family="ComicSansMS-Bold" font-weight="bold" font-size="66.4" fill="#45A6DE" transform="matrix(1.00, 0.00, -0.00, -1.00, 364.9, 671.0)"> </text><text xml:space="preserve" font-family="ComicSansMS-Bold" font-weight="bold" font-size="66.4" fill="#45A6DE" transform="matrix(1.00, 0.00, -0.00, -1.00, 393.6, 671.0)">h</text><text xml:space="preserve" font-family="ComicSansMS-Bold" font-weight="bold" font-size="66.4" fill="#45A6DE" transform="matrix(1.00, 0.00, -0.00, -1.00, 431.9, 671.0)">a</text><text xml:space="preserve" font-family="ComicSansMS-Bold" font-weight="bold" font-size="66.4" fill="#45A6DE" transform="matrix(1.00, 0.00, -0.00, -1.00, 468.8, 671.0)">s</text><text xml:space="preserve" font-family="ComicSansMS-Bold" font-weight="bold" font-size="66.4" fill="#45A6DE" transform="matrix(1.00, 0.00, -0.00, -1.00, 501.1, 671.0)"> </text><text xml:space="preserve" font-family="ComicSansMS-Bold" font-weight="bold" font-size="66.4" fill="#45A6DE" transform="matrix(1.00, 0.00, -0.00, -1.00, 529.8, 671.0)">a</text><text xml:space="preserve" font-family="ComicSansMS-Bold" font-weight="bold" font-size="66.4" fill="#45A6DE" transform="matrix(1.00, 0.00, -0.00, -1.00, 566.7, 671.0)"> </text><text xml:space="preserve" font-family="ComicSansMS-Bold" font-weight="bold" font-size="66.4" fill="#45A6DE" transform="matrix(1.00, 0.00, -0.00, -1.00, 595.4, 671.0)">v</text><text xml:space="preserve" font-family="ComicSansMS-Bold" font-weight="bold" font-size="66.4" fill="#45A6DE" transform="matrix(1.00, 0.00, -0.00, -1.00, 627.8, 671.0)">e</text><text xml:space="preserve" font-family="ComicSansMS-Bold" font-weight="bold" font-size="66.4" fill="#45A6DE" transform="matrix(1.00, 0.00, -0.00, -1.00, 664.9, 671.0)">r</text><text xml:space="preserve" font-family="ComicSansMS-Bold" font-weight="bold" font-size="66.4" fill="#45A6DE" transform="matrix(1.00, 0.00, -0.00, -1.00, 696.8, 671.0)">s</text><text xml:space="preserve" font-family="ComicSansMS-Bold" font-weight="bold" font-size="66.4" fill="#45A6DE" transform="matrix(1.00, 0.00, -0.00, -1.00, 729.1, 671.0)">i</text><text xml:space="preserve" font-family="ComicSansMS-Bold" font-weight="bold" font-size="66.4" fill="#45A6DE" transform="matrix(1.00, 0.00, -0.00, -1.00, 747.8, 671.0)">o</text><text xml:space="preserve" font-family="ComicSansMS-Bold" font-weight="bold" font-size="66.4" fill="#45A6DE" transform="matrix(1.00, 0.00, -0.00, -1.00, 782.6, 671.0)">n</text><text xml:space="preserve" font-family="ComicSansMS-Bold" font-weight="bold" font-size="66.4" fill="#45A6DE" transform="matrix(1.00, 0.00, -0.00, -1.00, 817.4, 671.0)">i</text><text xml:space="preserve" font-family="ComicSansMS-Bold" font-weight="bold" font-size="66.4" fill="#45A6DE" transform="matrix(1.00, 0.00, -0.00, -1.00, 836.1, 671.0)">n</text><text xml:space="preserve" font-family="ComicSansMS-Bold" font-weight="bold" font-size="66.4" fill="#45A6DE" transform="matrix(1.00, 0.00, -0.00, -1.00, 870.8, 671.0)">g</text><text xml:space="preserve" font-family="ComicSansMS-Bold" font-weight="bold" font-size="66.4" fill="#45A6DE" transform="matrix(1.00, 0.00, -0.00, -1.00, 906.1, 671.0)"> </text><text xml:space="preserve" font-family="ComicSansMS-Bold" font-weight="bold" font-size="66.4" fill="#45A6DE" transform="matrix(1.00, 0.00, -0.00, -1.00, 388.0, 579.0)">p</text><text xml:space="preserve" font-family="ComicSansMS-Bold" font-weight="bold" font-size="66.4" fill="#45A6DE" transform="matrix(1.00, 0.00, -0.00, -1.00, 423.5, 579.0)">r</text><text xml:space="preserve" font-family="ComicSansMS-Bold" font-weight="bold" font-size="66.4" fill="#45A6DE" transform="matrix(1.00, 0.00, -0.00, -1.00, 455.4, 579.0)">o</text><text xml:space="preserve" font-family="ComicSansMS-Bold" font-weight="bold" font-size="66.4" fill="#45A6DE" transform="matrix(1.00, 0.00, -0.00, -1.00, 490.3, 579.0)">b</text><text xml:space="preserve" font-family="ComicSansMS-Bold" font-weight="bold" font-size="66.4" fill="#45A6DE" transform="matrix(1.00, 0.00, -0.00, -1.00, 529.8, 579.0)">l</text><text xml:space="preserve" font-family="ComicSansMS-Bold" font-weight="bold" font-size="66.4" fill="#45A6DE" transform="matrix(1.00, 0.00, -0.00, -1.00, 547.9, 579.0)">e</text><text xml:space="preserve" font-family="ComicSansMS-Bold" font-weight="bold" font-size="66.4" fill="#45A6DE" transform="matrix(1.00, 0.00, -0.00, -1.00, 585.0, 579.0)">m</text><g><clipPath id="clip-241"><path d="M 65.6 425.5 L 92.5 425.5 L 92.5 450.6 L 65.6 450.6 Z M 65.6 425.5 "></path></clipPath><g clip-path="url(#clip-241)"><path d="M 92.1 434.5 C 92.4 434.2 92.5 433.8 92.5 433.4 C 92.5 432.6 92.0 431.8 91.1 431.1 C 90.3 430.5 89.2 430.1 88.1 430.1 C 86.7 430.1 84.9 431.2 83.0 433.4 C 83.0 433.4 83.0 430.1 83.0 430.1 C 83.0 429.8 83.1 429.4 83.3 429.0 C 83.5 428.5 83.6 428.2 83.6 428.0 C 83.6 427.3 83.2 426.7 82.5 426.3 C 81.8 425.8 81.2 425.5 80.5 425.5 C 79.3 425.5 78.2 426.1 77.3 427.1 C 77.0 427.4 77.0 428.3 77.1 429.7 C 77.1 431.2 77.2 432.7 77.3 434.1 C 76.6 433.6 75.1 432.8 73.0 431.7 C 72.8 431.3 71.9 430.8 70.5 430.3 C 69.4 430.2 68.4 430.4 67.3 430.9 C 66.2 431.4 65.6 432.1 65.6 433.0 C 65.6 433.2 65.6 433.4 65.8 433.6 C 66.0 434.1 66.4 434.4 67.1 434.6 C 68.2 435.0 68.8 435.2 68.9 435.2 C 68.9 435.2 74.9 438.5 74.9 438.5 C 74.9 438.5 70.7 440.5 70.7 440.5 C 70.0 440.5 69.2 440.8 68.2 441.4 C 68.0 441.7 67.9 442.1 67.9 442.4 C 67.9 443.4 68.5 444.4 69.7 445.3 C 70.9 446.3 72.1 446.8 73.3 446.8 C 73.6 446.8 74.0 446.7 74.4 446.6 C 74.8 446.4 75.2 446.1 75.5 445.5 C 75.9 444.8 76.5 444.1 77.3 443.6 C 77.3 443.6 77.5 447.4 77.5 447.4 C 77.3 447.9 77.3 448.7 77.5 449.7 C 77.9 450.3 79.0 450.6 80.7 450.6 C 82.2 450.6 83.3 450.2 83.8 449.3 C 84.0 448.9 84.0 448.0 83.9 446.7 C 83.8 445.5 83.6 444.3 83.5 443.1 C 83.5 443.1 85.7 444.2 85.7 444.2 C 86.1 444.6 86.9 445.1 88.1 445.7 C 89.0 445.7 89.8 445.4 90.6 444.7 C 91.4 444.0 91.9 443.2 91.9 442.3 C 91.9 442.0 91.8 441.6 91.5 441.3 C 91.3 441.0 91.0 440.8 90.4 440.7 C 89.7 440.5 89.3 440.4 89.1 440.2 C 89.1 440.2 85.8 437.9 85.8 437.9 C 85.8 437.9 90.0 435.6 90.0 435.6 C 90.6 435.5 91.3 435.1 92.1 434.5 Z M 92.1 434.5 " fill="#3995D6"></path></g></g><text xml:space="preserve" font-family="ComicSansMS" font-size="36.0" fill="#858585" transform="matrix(1.00, 0.00, -0.00, -1.00, 101.0, 423.0)">L</text><text xml:space="preserve" font-family="ComicSansMS" font-size="36.0" fill="#858585" transform="matrix(1.00, 0.00, -0.00, -1.00, 120.8, 423.0)">o</text><text xml:space="preserve" font-family="ComicSansMS" font-size="36.0" fill="#858585" transform="matrix(1.00, 0.00, -0.00, -1.00, 139.7, 423.0)">t</text><text xml:space="preserve" font-family="ComicSansMS" font-size="36.0" fill="#858585" transform="matrix(1.00, 0.00, -0.00, -1.00, 156.7, 423.0)">s</text><text xml:space="preserve" font-family="ComicSansMS" font-size="36.0" fill="#858585" transform="matrix(1.00, 0.00, -0.00, -1.00, 174.2, 423.0)"> </text><text xml:space="preserve" font-family="ComicSansMS" font-size="36.0" fill="#858585" transform="matrix(1.00, 0.00, -0.00, -1.00, 185.0, 423.0)">o</text><text xml:space="preserve" font-family="ComicSansMS" font-size="36.0" fill="#858585" transform="matrix(1.00, 0.00, -0.00, -1.00, 203.9, 423.0)">f</text><text xml:space="preserve" font-family="ComicSansMS" font-size="36.0" fill="#858585" transform="matrix(1.00, 0.00, -0.00, -1.00, 222.2, 423.0)"> </text><text xml:space="preserve" font-family="ComicSansMS" font-size="36.0" fill="#858585" transform="matrix(1.00, 0.00, -0.00, -1.00, 233.0, 423.0)">O</text><text xml:space="preserve" font-family="ComicSansMS" font-size="36.0" fill="#858585" transform="matrix(1.00, 0.00, -0.00, -1.00, 261.7, 423.0)">S</text><text xml:space="preserve" font-family="ComicSansMS" font-size="36.0" fill="#858585" transform="matrix(1.00, 0.00, -0.00, -1.00, 286.7, 423.0)"> </text><text xml:space="preserve" font-family="ComicSansMS" font-size="36.0" fill="#858585" transform="matrix(1.00, 0.00, -0.00, -1.00, 297.5, 423.0)">v</text><text xml:space="preserve" font-family="ComicSansMS" font-size="36.0" fill="#858585" transform="matrix(1.00, 0.00, -0.00, -1.00, 315.0, 423.0)">e</text><text xml:space="preserve" font-family="ComicSansMS" font-size="36.0" fill="#858585" transform="matrix(1.00, 0.00, -0.00, -1.00, 334.7, 423.0)">r</text><text xml:space="preserve" font-family="ComicSansMS" font-size="36.0" fill="#858585" transform="matrix(1.00, 0.00, -0.00, -1.00, 352.1, 423.0)">s</text><text xml:space="preserve" font-family="ComicSansMS" font-size="36.0" fill="#858585" transform="matrix(1.00, 0.00, -0.00, -1.00, 369.6, 423.0)">i</text><text xml:space="preserve" font-family="ComicSansMS" font-size="36.0" fill="#858585" transform="matrix(1.00, 0.00, -0.00, -1.00, 379.7, 423.0)">o</text><text xml:space="preserve" font-family="ComicSansMS" font-size="36.0" fill="#858585" transform="matrix(1.00, 0.00, -0.00, -1.00, 398.6, 423.0)">n</text><text xml:space="preserve" font-family="ComicSansMS" font-size="36.0" fill="#858585" transform="matrix(1.00, 0.00, -0.00, -1.00, 417.5, 423.0)">s</text><text xml:space="preserve" font-family="ComicSansMS" font-size="36.0" fill="#858585" transform="matrix(1.00, 0.00, -0.00, -1.00, 435.0, 423.0)"> </text><g><clipPath id="clip-242"><path d="M 65.6 337.5 L 92.5 337.5 L 92.5 362.6 L 65.6 362.6 Z M 65.6 337.5 "></path></clipPath><g clip-path="url(#clip-242)"><path d="M 92.1 346.5 C 92.4 346.2 92.5 345.8 92.5 345.4 C 92.5 344.6 92.0 343.8 91.1 343.1 C 90.3 342.5 89.2 342.1 88.1 342.1 C 86.7 342.1 84.9 343.2 83.0 345.4 C 83.0 345.4 83.0 342.1 83.0 342.1 C 83.0 341.8 83.1 341.4 83.3 341.0 C 83.5 340.5 83.6 340.2 83.6 340.0 C 83.6 339.3 83.2 338.7 82.5 338.3 C 81.8 337.8 81.2 337.5 80.5 337.5 C 79.3 337.5 78.2 338.1 77.3 339.1 C 77.0 339.4 77.0 340.3 77.1 341.7 C 77.1 343.2 77.2 344.7 77.3 346.1 C 76.6 345.6 75.1 344.8 73.0 343.7 C 72.8 343.3 71.9 342.8 70.5 342.3 C 69.4 342.2 68.4 342.4 67.3 342.9 C 66.2 343.4 65.6 344.1 65.6 345.0 C 65.6 345.2 65.6 345.4 65.8 345.6 C 66.0 346.1 66.4 346.4 67.1 346.6 C 68.2 347.0 68.8 347.2 68.9 347.2 C 68.9 347.2 74.9 350.5 74.9 350.5 C 74.9 350.5 70.7 352.5 70.7 352.5 C 70.0 352.5 69.2 352.8 68.2 353.4 C 68.0 353.7 67.9 354.1 67.9 354.4 C 67.9 355.4 68.5 356.4 69.7 357.3 C 70.9 358.3 72.1 358.8 73.3 358.8 C 73.6 358.8 74.0 358.7 74.4 358.6 C 74.8 358.4 75.2 358.1 75.5 357.5 C 75.9 356.8 76.5 356.1 77.3 355.6 C 77.3 355.6 77.5 359.4 77.5 359.4 C 77.3 359.9 77.3 360.7 77.5 361.7 C 77.9 362.3 79.0 362.6 80.7 362.6 C 82.2 362.6 83.3 362.2 83.8 361.3 C 84.0 360.9 84.0 360.0 83.9 358.7 C 83.8 357.5 83.6 356.3 83.5 355.1 C 83.5 355.1 85.7 356.2 85.7 356.2 C 86.1 356.6 86.9 357.1 88.1 357.7 C 89.0 357.7 89.8 357.4 90.6 356.7 C 91.4 356.0 91.9 355.2 91.9 354.3 C 91.9 354.0 91.8 353.6 91.5 353.3 C 91.3 353.0 91.0 352.8 90.4 352.7 C 89.7 352.5 89.3 352.4 89.1 352.2 C 89.1 352.2 85.8 349.9 85.8 349.9 C 85.8 349.9 90.0 347.6 90.0 347.6 C 90.6 347.5 91.3 347.1 92.1 346.5 Z M 92.1 346.5 " fill="#3995D6"></path></g></g><text xml:space="preserve" font-family="ComicSansMS" font-size="36.0" fill="#858585" transform="matrix(1.00, 0.00, -0.00, -1.00, 101.0, 335.0)">M</text><text xml:space="preserve" font-family="ComicSansMS" font-size="36.0" fill="#858585" transform="matrix(1.00, 0.00, -0.00, -1.00, 132.8, 335.0)">o</text><text xml:space="preserve" font-family="ComicSansMS" font-size="36.0" fill="#858585" transform="matrix(1.00, 0.00, -0.00, -1.00, 151.7, 335.0)">d</text><text xml:space="preserve" font-family="ComicSansMS" font-size="36.0" fill="#858585" transform="matrix(1.00, 0.00, -0.00, -1.00, 172.9, 335.0)">i</text><text xml:space="preserve" font-family="ComicSansMS" font-size="36.0" fill="#858585" transform="matrix(1.00, 0.00, -0.00, -1.00, 183.0, 335.0)">f</text><text xml:space="preserve" font-family="ComicSansMS" font-size="36.0" fill="#858585" transform="matrix(1.00, 0.00, -0.00, -1.00, 201.3, 335.0)">i</text><text xml:space="preserve" font-family="ComicSansMS" font-size="36.0" fill="#858585" transform="matrix(1.00, 0.00, -0.00, -1.00, 211.4, 335.0)">e</text><text xml:space="preserve" font-family="ComicSansMS" font-size="36.0" fill="#858585" transform="matrix(1.00, 0.00, -0.00, -1.00, 231.2, 335.0)">d</text><text xml:space="preserve" font-family="ComicSansMS" font-size="36.0" fill="#858585" transform="matrix(1.00, 0.00, -0.00, -1.00, 252.3, 335.0)"> </text><text xml:space="preserve" font-family="ComicSansMS" font-size="36.0" fill="#858585" transform="matrix(1.00, 0.00, -0.00, -1.00, 263.1, 335.0)">b</text><text xml:space="preserve" font-family="ComicSansMS" font-size="36.0" fill="#858585" transform="matrix(1.00, 0.00, -0.00, -1.00, 284.5, 335.0)">y</text><text xml:space="preserve" font-family="ComicSansMS" font-size="36.0" fill="#858585" transform="matrix(1.00, 0.00, -0.00, -1.00, 303.2, 335.0)"> </text><text xml:space="preserve" font-family="ComicSansMS" font-size="36.0" fill="#858585" transform="matrix(1.00, 0.00, -0.00, -1.00, 313.9, 335.0)">l</text><text xml:space="preserve" font-family="ComicSansMS" font-size="36.0" fill="#858585" transform="matrix(1.00, 0.00, -0.00, -1.00, 323.8, 335.0)">o</text><text xml:space="preserve" font-family="ComicSansMS" font-size="36.0" fill="#858585" transform="matrix(1.00, 0.00, -0.00, -1.00, 342.7, 335.0)">t</text><text xml:space="preserve" font-family="ComicSansMS" font-size="36.0" fill="#858585" transform="matrix(1.00, 0.00, -0.00, -1.00, 359.7, 335.0)">s</text><text xml:space="preserve" font-family="ComicSansMS" font-size="36.0" fill="#858585" transform="matrix(1.00, 0.00, -0.00, -1.00, 377.2, 335.0)"> </text><text xml:space="preserve" font-family="ComicSansMS" font-size="36.0" fill="#858585" transform="matrix(1.00, 0.00, -0.00, -1.00, 388.0, 335.0)">o</text><text xml:space="preserve" font-family="ComicSansMS" font-size="36.0" fill="#858585" transform="matrix(1.00, 0.00, -0.00, -1.00, 406.9, 335.0)">f</text><text xml:space="preserve" font-family="ComicSansMS" font-size="36.0" fill="#858585" transform="matrix(1.00, 0.00, -0.00, -1.00, 425.2, 335.0)"> </text><text xml:space="preserve" font-family="ComicSansMS" font-size="36.0" fill="#858585" transform="matrix(1.00, 0.00, -0.00, -1.00, 101.0, 285.0)">h</text><text xml:space="preserve" font-family="ComicSansMS" font-size="36.0" fill="#858585" transform="matrix(1.00, 0.00, -0.00, -1.00, 121.8, 285.0)">a</text><text xml:space="preserve" font-family="ComicSansMS" font-size="36.0" fill="#858585" transform="matrix(1.00, 0.00, -0.00, -1.00, 140.2, 285.0)">n</text><text xml:space="preserve" font-family="ComicSansMS" font-size="36.0" fill="#858585" transform="matrix(1.00, 0.00, -0.00, -1.00, 159.0, 285.0)">d</text><text xml:space="preserve" font-family="ComicSansMS" font-size="36.0" fill="#858585" transform="matrix(1.00, 0.00, -0.00, -1.00, 180.2, 285.0)">s</text><text xml:space="preserve" font-family="ComicSansMS" font-size="36.0" fill="#858585" transform="matrix(1.00, 0.00, -0.00, -1.00, 197.7, 285.0)">e</text><text xml:space="preserve" font-family="ComicSansMS" font-size="36.0" fill="#858585" transform="matrix(1.00, 0.00, -0.00, -1.00, 217.4, 285.0)">t</text><text xml:space="preserve" font-family="ComicSansMS" font-size="36.0" fill="#858585" transform="matrix(1.00, 0.00, -0.00, -1.00, 234.4, 285.0)"> </text><text xml:space="preserve" font-family="ComicSansMS" font-size="36.0" fill="#858585" transform="matrix(1.00, 0.00, -0.00, -1.00, 245.2, 285.0)">m</text><text xml:space="preserve" font-family="ComicSansMS" font-size="36.0" fill="#858585" transform="matrix(1.00, 0.00, -0.00, -1.00, 273.1, 285.0)">a</text><text xml:space="preserve" font-family="ComicSansMS" font-size="36.0" fill="#858585" transform="matrix(1.00, 0.00, -0.00, -1.00, 291.5, 285.0)">n</text><text xml:space="preserve" font-family="ComicSansMS" font-size="36.0" fill="#858585" transform="matrix(1.00, 0.00, -0.00, -1.00, 310.4, 285.0)">u</text><text xml:space="preserve" font-family="ComicSansMS" font-size="36.0" fill="#858585" transform="matrix(1.00, 0.00, -0.00, -1.00, 329.1, 285.0)">f</text><text xml:space="preserve" font-family="ComicSansMS" font-size="36.0" fill="#858585" transform="matrix(1.00, 0.00, -0.00, -1.00, 347.4, 285.0)">a</text><text xml:space="preserve" font-family="ComicSansMS" font-size="36.0" fill="#858585" transform="matrix(1.00, 0.00, -0.00, -1.00, 365.8, 285.0)">c</text><text xml:space="preserve" font-family="ComicSansMS" font-size="36.0" fill="#858585" transform="matrix(1.00, 0.00, -0.00, -1.00, 384.3, 285.0)">t</text><text xml:space="preserve" font-family="ComicSansMS" font-size="36.0" fill="#858585" transform="matrix(1.00, 0.00, -0.00, -1.00, 401.3, 285.0)">u</text><text xml:space="preserve" font-family="ComicSansMS" font-size="36.0" fill="#858585" transform="matrix(1.00, 0.00, -0.00, -1.00, 420.0, 285.0)">r</text><text xml:space="preserve" font-family="ComicSansMS" font-size="36.0" fill="#858585" transform="matrix(1.00, 0.00, -0.00, -1.00, 437.3, 285.0)">e</text><text xml:space="preserve" font-family="ComicSansMS" font-size="36.0" fill="#858585" transform="matrix(1.00, 0.00, -0.00, -1.00, 457.0, 285.0)">r</text><text xml:space="preserve" font-family="ComicSansMS" font-size="36.0" fill="#858585" transform="matrix(1.00, 0.00, -0.00, -1.00, 474.4, 285.0)">s</text><text xml:space="preserve" font-family="ComicSansMS" font-size="36.0" fill="#858585" transform="matrix(1.00, 0.00, -0.00, -1.00, 491.9, 285.0)"> </text><g><clipPath id="clip-243"><path d="M 65.6 199.5 L 92.5 199.5 L 92.5 224.6 L 65.6 224.6 Z M 65.6 199.5 "></path></clipPath><g clip-path="url(#clip-243)"><path d="M 92.1 208.5 C 92.4 208.2 92.5 207.8 92.5 207.4 C 92.5 206.6 92.0 205.8 91.1 205.1 C 90.3 204.5 89.2 204.1 88.1 204.1 C 86.7 204.1 84.9 205.2 83.0 207.4 C 83.0 207.4 83.0 204.1 83.0 204.1 C 83.0 203.8 83.1 203.4 83.3 203.0 C 83.5 202.5 83.6 202.2 83.6 202.0 C 83.6 201.3 83.2 200.7 82.5 200.3 C 81.8 199.8 81.2 199.5 80.5 199.5 C 79.3 199.5 78.2 200.1 77.3 201.1 C 77.0 201.4 77.0 202.3 77.1 203.7 C 77.1 205.2 77.2 206.7 77.3 208.1 C 76.6 207.6 75.1 206.8 73.0 205.7 C 72.8 205.3 71.9 204.8 70.5 204.3 C 69.4 204.2 68.4 204.4 67.3 204.9 C 66.2 205.4 65.6 206.1 65.6 207.0 C 65.6 207.2 65.6 207.4 65.8 207.6 C 66.0 208.1 66.4 208.4 67.1 208.6 C 68.2 209.0 68.8 209.2 68.9 209.2 C 68.9 209.2 74.9 212.5 74.9 212.5 C 74.9 212.5 70.7 214.5 70.7 214.5 C 70.0 214.5 69.2 214.8 68.2 215.4 C 68.0 215.7 67.9 216.1 67.9 216.4 C 67.9 217.4 68.5 218.4 69.7 219.3 C 70.9 220.3 72.1 220.8 73.3 220.8 C 73.6 220.8 74.0 220.7 74.4 220.6 C 74.8 220.4 75.2 220.1 75.5 219.5 C 75.9 218.8 76.5 218.1 77.3 217.6 C 77.3 217.6 77.5 221.4 77.5 221.4 C 77.3 221.9 77.3 222.7 77.5 223.7 C 77.9 224.3 79.0 224.6 80.7 224.6 C 82.2 224.6 83.3 224.2 83.8 223.3 C 84.0 222.9 84.0 222.0 83.9 220.7 C 83.8 219.5 83.6 218.3 83.5 217.1 C 83.5 217.1 85.7 218.2 85.7 218.2 C 86.1 218.6 86.9 219.1 88.1 219.7 C 89.0 219.7 89.8 219.4 90.6 218.7 C 91.4 218.0 91.9 217.2 91.9 216.3 C 91.9 216.0 91.8 215.6 91.5 215.3 C 91.3 215.0 91.0 214.8 90.4 214.7 C 89.7 214.5 89.3 214.4 89.1 214.2 C 89.1 214.2 85.8 211.9 85.8 211.9 C 85.8 211.9 90.0 209.6 90.0 209.6 C 90.6 209.5 91.3 209.1 92.1 208.5 Z M 92.1 208.5 " fill="#3995D6"></path></g></g><text xml:space="preserve" font-family="ComicSansMS" font-size="36.0" fill="#858585" transform="matrix(1.00, 0.00, -0.00, -1.00, 101.0, 197.0)">G</text><text xml:space="preserve" font-family="ComicSansMS" font-size="36.0" fill="#858585" transform="matrix(1.00, 0.00, -0.00, -1.00, 125.5, 197.0)">o</text><text xml:space="preserve" font-family="ComicSansMS" font-size="36.0" fill="#858585" transform="matrix(1.00, 0.00, -0.00, -1.00, 144.4, 197.0)">t</text><text xml:space="preserve" font-family="ComicSansMS" font-size="36.0" fill="#858585" transform="matrix(1.00, 0.00, -0.00, -1.00, 161.4, 197.0)">t</text><text xml:space="preserve" font-family="ComicSansMS" font-size="36.0" fill="#858585" transform="matrix(1.00, 0.00, -0.00, -1.00, 178.4, 197.0)">e</text><text xml:space="preserve" font-family="ComicSansMS" font-size="36.0" fill="#858585" transform="matrix(1.00, 0.00, -0.00, -1.00, 198.1, 197.0)">n</text><text xml:space="preserve" font-family="ComicSansMS" font-size="36.0" fill="#858585" transform="matrix(1.00, 0.00, -0.00, -1.00, 216.9, 197.0)"> </text><text xml:space="preserve" font-family="ComicSansMS" font-size="36.0" fill="#858585" transform="matrix(1.00, 0.00, -0.00, -1.00, 227.7, 197.0)">b</text><text xml:space="preserve" font-family="ComicSansMS" font-size="36.0" fill="#858585" transform="matrix(1.00, 0.00, -0.00, -1.00, 249.1, 197.0)">e</text><text xml:space="preserve" font-family="ComicSansMS" font-size="36.0" fill="#858585" transform="matrix(1.00, 0.00, -0.00, -1.00, 268.8, 197.0)">t</text><text xml:space="preserve" font-family="ComicSansMS" font-size="36.0" fill="#858585" transform="matrix(1.00, 0.00, -0.00, -1.00, 285.8, 197.0)">t</text><text xml:space="preserve" font-family="ComicSansMS" font-size="36.0" fill="#858585" transform="matrix(1.00, 0.00, -0.00, -1.00, 302.8, 197.0)">e</text><text xml:space="preserve" font-family="ComicSansMS" font-size="36.0" fill="#858585" transform="matrix(1.00, 0.00, -0.00, -1.00, 322.5, 197.0)">r</text><text xml:space="preserve" font-family="ComicSansMS" font-size="36.0" fill="#858585" transform="matrix(1.00, 0.00, -0.00, -1.00, 339.8, 197.0)"> </text><text xml:space="preserve" font-family="ComicSansMS" font-size="36.0" fill="#858585" transform="matrix(1.00, 0.00, -0.00, -1.00, 350.5, 197.0)">r</text><text xml:space="preserve" font-family="ComicSansMS" font-size="36.0" fill="#858585" transform="matrix(1.00, 0.00, -0.00, -1.00, 367.9, 197.0)">e</text><text xml:space="preserve" font-family="ComicSansMS" font-size="36.0" fill="#858585" transform="matrix(1.00, 0.00, -0.00, -1.00, 387.6, 197.0)">c</text><text xml:space="preserve" font-family="ComicSansMS" font-size="36.0" fill="#858585" transform="matrix(1.00, 0.00, -0.00, -1.00, 406.0, 197.0)">e</text><text xml:space="preserve" font-family="ComicSansMS" font-size="36.0" fill="#858585" transform="matrix(1.00, 0.00, -0.00, -1.00, 425.8, 197.0)">n</text><text xml:space="preserve" font-family="ComicSansMS" font-size="36.0" fill="#858585" transform="matrix(1.00, 0.00, -0.00, -1.00, 444.6, 197.0)">t</text><text xml:space="preserve" font-family="ComicSansMS" font-size="36.0" fill="#858585" transform="matrix(1.00, 0.00, -0.00, -1.00, 461.6, 197.0)">l</text><text xml:space="preserve" font-family="ComicSansMS" font-size="36.0" fill="#858585" transform="matrix(1.00, 0.00, -0.00, -1.00, 471.5, 197.0)">y</text><text xml:space="preserve" font-family="ComicSansMS" font-size="36.0" fill="#858585" transform="matrix(1.00, 0.00, -0.00, -1.00, 490.2, 197.0)">!</text><image xlink:href="../../B0D7798D-B216-4F41-AD26-3244319AD3FA/assets/91F2E1C138D1179352E98214FD66BC9F.png" width="349.00" height="436.00" transform="matrix(1.00, 0.00, -0.00, -1.00, 601.0, 543.0)"></image></g></svg>