<?xml version="1.0" encoding="UTF-8" standalone="no"?><svg xmlns="http://www.w3.org/2000/svg" xmlns:xlink="http://www.w3.org/1999/xlink" clip-rule="evenodd" stroke-miterlimit="4.00" viewBox="0 0 1024 768"><desc>SVG generated by Keynote</desc><defs></defs><g transform="matrix(1.00, 0.00, -0.00, -1.00, 0.0, 768.0)"><g><clipPath id="clip-276"><path d="M 0.0 768.0 L 1024.0 768.0 L 1024.0 0.0 L 0.0 0.0 Z M 0.0 768.0 "></path></clipPath><g clip-path="url(#clip-276)"><image xlink:href="../../AD43F5AB-7C1D-45DB-8B96-B58B9BFD50C8/assets/43DA95A1552523200D88D33196FD3A18.jpeg" width="1024.00" height="768.00" transform="matrix(1.00, 0.00, -0.00, -1.00, 0.0, 768.0)"></image></g></g><text xml:space="preserve" font-family="ComicSansMS-Bold" font-weight="bold" font-size="80.0" fill="#45A6DE" transform="matrix(1.00, 0.00, -0.00, -1.00, 300.0, 619.0)">D</text><text xml:space="preserve" font-family="ComicSansMS-Bold" font-weight="bold" font-size="80.0" fill="#45A6DE" transform="matrix(1.00, 0.00, -0.00, -1.00, 357.7, 619.0)">o</text><text xml:space="preserve" font-family="ComicSansMS-Bold" font-weight="bold" font-size="80.0" fill="#45A6DE" transform="matrix(1.00, 0.00, -0.00, -1.00, 399.8, 619.0)">w</text><text xml:space="preserve" font-family="ComicSansMS-Bold" font-weight="bold" font-size="80.0" fill="#45A6DE" transform="matrix(1.00, 0.00, -0.00, -1.00, 454.5, 619.0)">n</text><text xml:space="preserve" font-family="ComicSansMS-Bold" font-weight="bold" font-size="80.0" fill="#45A6DE" transform="matrix(1.00, 0.00, -0.00, -1.00, 496.4, 619.0)">s</text><text xml:space="preserve" font-family="ComicSansMS-Bold" font-weight="bold" font-size="80.0" fill="#45A6DE" transform="matrix(1.00, 0.00, -0.00, -1.00, 535.3, 619.0)">i</text><text xml:space="preserve" font-family="ComicSansMS-Bold" font-weight="bold" font-size="80.0" fill="#45A6DE" transform="matrix(1.00, 0.00, -0.00, -1.00, 557.8, 619.0)">d</text><text xml:space="preserve" font-family="ComicSansMS-Bold" font-weight="bold" font-size="80.0" fill="#45A6DE" transform="matrix(1.00, 0.00, -0.00, -1.00, 604.8, 619.0)">e</text><text xml:space="preserve" font-family="ComicSansMS-Bold" font-weight="bold" font-size="80.0" fill="#45A6DE" transform="matrix(1.00, 0.00, -0.00, -1.00, 649.5, 619.0)">s</text><text xml:space="preserve" font-family="ComicSansMS-Bold" font-weight="bold" font-size="80.0" fill="#45A6DE" transform="matrix(1.00, 0.00, -0.00, -1.00, 688.5, 619.0)">:</text><g><clipPath id="clip-277"><path d="M 515.0 523.5 L 541.9 523.5 L 541.9 548.6 L 515.0 548.6 Z M 515.0 523.5 "></path></clipPath><g clip-path="url(#clip-277)"><path d="M 541.5 532.5 C 541.8 532.2 541.9 531.8 541.9 531.4 C 541.9 530.6 541.4 529.8 540.5 529.1 C 539.7 528.5 538.6 528.1 537.5 528.1 C 536.1 528.1 534.4 529.2 532.4 531.4 C 532.4 531.4 532.4 528.1 532.4 528.1 C 532.4 527.8 532.5 527.4 532.7 527.0 C 532.9 526.5 533.0 526.2 533.0 526.0 C 533.0 525.3 532.6 524.7 531.9 524.3 C 531.2 523.8 530.6 523.5 529.9 523.5 C 528.7 523.5 527.6 524.1 526.7 525.1 C 526.4 525.4 526.4 526.3 526.5 527.7 C 526.5 529.2 526.6 530.7 526.7 532.1 C 526.0 531.6 524.5 530.8 522.4 529.7 C 522.2 529.3 521.3 528.8 519.9 528.3 C 518.8 528.2 517.8 528.4 516.7 528.9 C 515.6 529.4 515.0 530.1 515.0 531.0 C 515.0 531.2 515.1 531.4 515.2 531.6 C 515.4 532.1 515.8 532.4 516.5 532.6 C 517.6 533.0 518.2 533.2 518.3 533.2 C 518.3 533.2 524.3 536.5 524.3 536.5 C 524.3 536.5 520.1 538.5 520.1 538.5 C 519.4 538.5 518.6 538.8 517.6 539.4 C 517.4 539.7 517.3 540.1 517.3 540.4 C 517.3 541.4 517.9 542.4 519.1 543.3 C 520.3 544.3 521.5 544.8 522.7 544.8 C 523.0 544.8 523.4 544.7 523.8 544.6 C 524.2 544.4 524.6 544.1 524.9 543.5 C 525.3 542.8 525.9 542.1 526.7 541.6 C 526.7 541.6 526.9 545.4 526.9 545.4 C 526.7 545.9 526.7 546.7 526.9 547.7 C 527.3 548.3 528.4 548.6 530.1 548.6 C 531.6 548.6 532.7 548.2 533.2 547.3 C 533.4 546.9 533.4 546.0 533.3 544.7 C 533.2 543.5 533.0 542.3 532.9 541.1 C 532.9 541.1 535.1 542.2 535.1 542.2 C 535.5 542.6 536.3 543.1 537.5 543.7 C 538.4 543.7 539.2 543.4 540.0 542.7 C 540.9 542.0 541.3 541.2 541.3 540.3 C 541.3 540.0 541.2 539.6 540.9 539.3 C 540.7 539.0 540.4 538.8 539.8 538.7 C 539.2 538.5 538.7 538.4 538.5 538.2 C 538.5 538.2 535.2 535.9 535.2 535.9 C 535.2 535.9 539.4 533.6 539.4 533.6 C 540.0 533.5 540.7 533.1 541.5 532.5 Z M 541.5 532.5 " fill="#3995D6"></path></g></g><text xml:space="preserve" font-family="ComicSansMS" font-size="36.0" fill="#858585" transform="matrix(1.00, 0.00, -0.00, -1.00, 550.0, 521.0)">W</text><text xml:space="preserve" font-family="ComicSansMS" font-size="36.0" fill="#858585" transform="matrix(1.00, 0.00, -0.00, -1.00, 587.4, 521.0)">e</text><text xml:space="preserve" font-family="ComicSansMS" font-size="36.0" fill="#858585" transform="matrix(1.00, 0.00, -0.00, -1.00, 607.1, 521.0)"> </text><text xml:space="preserve" font-family="ComicSansMS" font-size="36.0" fill="#858585" transform="matrix(1.00, 0.00, -0.00, -1.00, 617.9, 521.0)">d</text><text xml:space="preserve" font-family="ComicSansMS" font-size="36.0" fill="#858585" transform="matrix(1.00, 0.00, -0.00, -1.00, 639.0, 521.0)">o</text><text xml:space="preserve" font-family="ComicSansMS" font-size="36.0" fill="#858585" transform="matrix(1.00, 0.00, -0.00, -1.00, 657.9, 521.0)">n</text><text xml:space="preserve" font-family="ComicSansMS" font-size="36.0" fill="#858585" transform="matrix(1.00, 0.00, -0.00, -1.00, 676.8, 521.0)">’</text><text xml:space="preserve" font-family="ComicSansMS" font-size="36.0" fill="#858585" transform="matrix(1.00, 0.00, -0.00, -1.00, 683.3, 521.0)">t</text><text xml:space="preserve" font-family="ComicSansMS" font-size="36.0" fill="#858585" transform="matrix(1.00, 0.00, -0.00, -1.00, 700.3, 521.0)"> </text><text xml:space="preserve" font-family="ComicSansMS" font-size="36.0" fill="#858585" transform="matrix(1.00, 0.00, -0.00, -1.00, 711.0, 521.0)">p</text><text xml:space="preserve" font-family="ComicSansMS" font-size="36.0" fill="#858585" transform="matrix(1.00, 0.00, -0.00, -1.00, 730.3, 521.0)">a</text><text xml:space="preserve" font-family="ComicSansMS" font-size="36.0" fill="#858585" transform="matrix(1.00, 0.00, -0.00, -1.00, 748.7, 521.0)">y</text><text xml:space="preserve" font-family="ComicSansMS" font-size="36.0" fill="#858585" transform="matrix(1.00, 0.00, -0.00, -1.00, 767.4, 521.0)"> </text><text xml:space="preserve" font-family="ComicSansMS" font-size="36.0" fill="#858585" transform="matrix(1.00, 0.00, -0.00, -1.00, 778.2, 521.0)">f</text><text xml:space="preserve" font-family="ComicSansMS" font-size="36.0" fill="#858585" transform="matrix(1.00, 0.00, -0.00, -1.00, 796.5, 521.0)">o</text><text xml:space="preserve" font-family="ComicSansMS" font-size="36.0" fill="#858585" transform="matrix(1.00, 0.00, -0.00, -1.00, 815.4, 521.0)">r</text><text xml:space="preserve" font-family="ComicSansMS" font-size="36.0" fill="#858585" transform="matrix(1.00, 0.00, -0.00, -1.00, 832.7, 521.0)"> </text><text xml:space="preserve" font-family="ComicSansMS" font-size="36.0" fill="#858585" transform="matrix(1.00, 0.00, -0.00, -1.00, 843.5, 521.0)">i</text><text xml:space="preserve" font-family="ComicSansMS" font-size="36.0" fill="#858585" transform="matrix(1.00, 0.00, -0.00, -1.00, 853.6, 521.0)">t</text><text xml:space="preserve" font-family="ComicSansMS" font-size="36.0" fill="#858585" transform="matrix(1.00, 0.00, -0.00, -1.00, 870.6, 521.0)"> </text><text xml:space="preserve" font-family="ComicSansMS" font-size="36.0" fill="#858585" transform="matrix(1.00, 0.00, -0.00, -1.00, 550.0, 471.0)">(</text><text xml:space="preserve" font-family="ComicSansMS" font-size="36.0" fill="#858585" transform="matrix(1.00, 0.00, -0.00, -1.00, 563.2, 471.0)">y</text><text xml:space="preserve" font-family="ComicSansMS" font-size="36.0" fill="#858585" transform="matrix(1.00, 0.00, -0.00, -1.00, 581.9, 471.0)">e</text><text xml:space="preserve" font-family="ComicSansMS" font-size="36.0" fill="#858585" transform="matrix(1.00, 0.00, -0.00, -1.00, 601.6, 471.0)">t</text><text xml:space="preserve" font-family="ComicSansMS" font-size="36.0" fill="#858585" transform="matrix(1.00, 0.00, -0.00, -1.00, 618.6, 471.0)">?</text><text xml:space="preserve" font-family="ComicSansMS" font-size="36.0" fill="#858585" transform="matrix(1.00, 0.00, -0.00, -1.00, 637.5, 471.0)">?</text><text xml:space="preserve" font-family="ComicSansMS" font-size="36.0" fill="#858585" transform="matrix(1.00, 0.00, -0.00, -1.00, 656.3, 471.0)">)</text><text xml:space="preserve" font-family="ComicSansMS" font-size="36.0" fill="#858585" transform="matrix(1.00, 0.00, -0.00, -1.00, 669.5, 471.0)"> </text><g><clipPath id="clip-278"><path d="M 515.0 385.5 L 541.9 385.5 L 541.9 410.6 L 515.0 410.6 Z M 515.0 385.5 "></path></clipPath><g clip-path="url(#clip-278)"><path d="M 541.5 394.5 C 541.8 394.2 541.9 393.8 541.9 393.4 C 541.9 392.6 541.4 391.8 540.5 391.1 C 539.7 390.5 538.6 390.1 537.5 390.1 C 536.1 390.1 534.4 391.2 532.4 393.4 C 532.4 393.4 532.4 390.1 532.4 390.1 C 532.4 389.8 532.5 389.4 532.7 389.0 C 532.9 388.5 533.0 388.2 533.0 388.0 C 533.0 387.3 532.6 386.7 531.9 386.3 C 531.2 385.8 530.6 385.5 529.9 385.5 C 528.7 385.5 527.6 386.1 526.7 387.1 C 526.4 387.4 526.4 388.3 526.5 389.7 C 526.5 391.2 526.6 392.7 526.7 394.1 C 526.0 393.6 524.5 392.8 522.4 391.7 C 522.2 391.3 521.3 390.8 519.9 390.3 C 518.8 390.2 517.8 390.4 516.7 390.9 C 515.6 391.4 515.0 392.1 515.0 393.0 C 515.0 393.2 515.1 393.4 515.2 393.6 C 515.4 394.1 515.8 394.4 516.5 394.6 C 517.6 395.0 518.2 395.2 518.3 395.2 C 518.3 395.2 524.3 398.5 524.3 398.5 C 524.3 398.5 520.1 400.5 520.1 400.5 C 519.4 400.5 518.6 400.8 517.6 401.4 C 517.4 401.7 517.3 402.1 517.3 402.4 C 517.3 403.4 517.9 404.4 519.1 405.3 C 520.3 406.3 521.5 406.8 522.7 406.8 C 523.0 406.8 523.4 406.7 523.8 406.6 C 524.2 406.4 524.6 406.1 524.9 405.5 C 525.3 404.8 525.9 404.1 526.7 403.6 C 526.7 403.6 526.9 407.4 526.9 407.4 C 526.7 407.9 526.7 408.7 526.9 409.7 C 527.3 410.3 528.4 410.6 530.1 410.6 C 531.6 410.6 532.7 410.2 533.2 409.3 C 533.4 408.9 533.4 408.0 533.3 406.7 C 533.2 405.5 533.0 404.3 532.9 403.1 C 532.9 403.1 535.1 404.2 535.1 404.2 C 535.5 404.6 536.3 405.1 537.5 405.7 C 538.4 405.7 539.2 405.4 540.0 404.7 C 540.9 404.0 541.3 403.2 541.3 402.3 C 541.3 402.0 541.2 401.6 540.9 401.3 C 540.7 401.0 540.4 400.8 539.8 400.7 C 539.2 400.5 538.7 400.4 538.5 400.2 C 538.5 400.2 535.2 397.9 535.2 397.9 C 535.2 397.9 539.4 395.6 539.4 395.6 C 540.0 395.5 540.7 395.1 541.5 394.5 Z M 541.5 394.5 " fill="#3995D6"></path></g></g><text xml:space="preserve" font-family="ComicSansMS" font-size="36.0" fill="#858585" transform="matrix(1.00, 0.00, -0.00, -1.00, 550.0, 383.0)">F</text><text xml:space="preserve" font-family="ComicSansMS" font-size="36.0" fill="#858585" transform="matrix(1.00, 0.00, -0.00, -1.00, 571.8, 383.0)">r</text><text xml:space="preserve" font-family="ComicSansMS" font-size="36.0" fill="#858585" transform="matrix(1.00, 0.00, -0.00, -1.00, 589.2, 383.0)">e</text><text xml:space="preserve" font-family="ComicSansMS" font-size="36.0" fill="#858585" transform="matrix(1.00, 0.00, -0.00, -1.00, 608.9, 383.0)">e</text><text xml:space="preserve" font-family="ComicSansMS" font-size="36.0" fill="#858585" transform="matrix(1.00, 0.00, -0.00, -1.00, 628.6, 383.0)"> </text><text xml:space="preserve" font-family="ComicSansMS" font-size="36.0" fill="#858585" transform="matrix(1.00, 0.00, -0.00, -1.00, 639.4, 383.0)">t</text><text xml:space="preserve" font-family="ComicSansMS" font-size="36.0" fill="#858585" transform="matrix(1.00, 0.00, -0.00, -1.00, 656.3, 383.0)">r</text><text xml:space="preserve" font-family="ComicSansMS" font-size="36.0" fill="#858585" transform="matrix(1.00, 0.00, -0.00, -1.00, 673.7, 383.0)">i</text><text xml:space="preserve" font-family="ComicSansMS" font-size="36.0" fill="#858585" transform="matrix(1.00, 0.00, -0.00, -1.00, 683.7, 383.0)">a</text><text xml:space="preserve" font-family="ComicSansMS" font-size="36.0" fill="#858585" transform="matrix(1.00, 0.00, -0.00, -1.00, 702.2, 383.0)">l</text><text xml:space="preserve" font-family="ComicSansMS" font-size="36.0" fill="#858585" transform="matrix(1.00, 0.00, -0.00, -1.00, 712.0, 383.0)"> </text><text xml:space="preserve" font-family="ComicSansMS" font-size="36.0" fill="#858585" transform="matrix(1.00, 0.00, -0.00, -1.00, 722.8, 383.0)">l</text><text xml:space="preserve" font-family="ComicSansMS" font-size="36.0" fill="#858585" transform="matrix(1.00, 0.00, -0.00, -1.00, 732.6, 383.0)">i</text><text xml:space="preserve" font-family="ComicSansMS" font-size="36.0" fill="#858585" transform="matrix(1.00, 0.00, -0.00, -1.00, 742.7, 383.0)">m</text><text xml:space="preserve" font-family="ComicSansMS" font-size="36.0" fill="#858585" transform="matrix(1.00, 0.00, -0.00, -1.00, 770.7, 383.0)">i</text><text xml:space="preserve" font-family="ComicSansMS" font-size="36.0" fill="#858585" transform="matrix(1.00, 0.00, -0.00, -1.00, 780.8, 383.0)">t</text><text xml:space="preserve" font-family="ComicSansMS" font-size="36.0" fill="#858585" transform="matrix(1.00, 0.00, -0.00, -1.00, 797.7, 383.0)">e</text><text xml:space="preserve" font-family="ComicSansMS" font-size="36.0" fill="#858585" transform="matrix(1.00, 0.00, -0.00, -1.00, 817.4, 383.0)">d</text><text xml:space="preserve" font-family="ComicSansMS" font-size="36.0" fill="#858585" transform="matrix(1.00, 0.00, -0.00, -1.00, 838.6, 383.0)"> </text><text xml:space="preserve" font-family="ComicSansMS" font-size="36.0" fill="#858585" transform="matrix(1.00, 0.00, -0.00, -1.00, 849.4, 383.0)">t</text><text xml:space="preserve" font-family="ComicSansMS" font-size="36.0" fill="#858585" transform="matrix(1.00, 0.00, -0.00, -1.00, 866.3, 383.0)">o</text><text xml:space="preserve" font-family="ComicSansMS" font-size="36.0" fill="#858585" transform="matrix(1.00, 0.00, -0.00, -1.00, 885.3, 383.0)"> </text><text xml:space="preserve" font-family="ComicSansMS" font-size="36.0" fill="#858585" transform="matrix(1.00, 0.00, -0.00, -1.00, 550.0, 333.0)">3</text><text xml:space="preserve" font-family="ComicSansMS" font-size="36.0" fill="#858585" transform="matrix(1.00, 0.00, -0.00, -1.00, 572.0, 333.0)">0</text><text xml:space="preserve" font-family="ComicSansMS" font-size="36.0" fill="#858585" transform="matrix(1.00, 0.00, -0.00, -1.00, 594.0, 333.0)"> </text><text xml:space="preserve" font-family="ComicSansMS" font-size="36.0" fill="#858585" transform="matrix(1.00, 0.00, -0.00, -1.00, 604.7, 333.0)">m</text><text xml:space="preserve" font-family="ComicSansMS" font-size="36.0" fill="#858585" transform="matrix(1.00, 0.00, -0.00, -1.00, 632.7, 333.0)">i</text><text xml:space="preserve" font-family="ComicSansMS" font-size="36.0" fill="#858585" transform="matrix(1.00, 0.00, -0.00, -1.00, 642.8, 333.0)">n</text><text xml:space="preserve" font-family="ComicSansMS" font-size="36.0" fill="#858585" transform="matrix(1.00, 0.00, -0.00, -1.00, 661.6, 333.0)">u</text><text xml:space="preserve" font-family="ComicSansMS" font-size="36.0" fill="#858585" transform="matrix(1.00, 0.00, -0.00, -1.00, 680.4, 333.0)">t</text><text xml:space="preserve" font-family="ComicSansMS" font-size="36.0" fill="#858585" transform="matrix(1.00, 0.00, -0.00, -1.00, 697.3, 333.0)">e</text><text xml:space="preserve" font-family="ComicSansMS" font-size="36.0" fill="#858585" transform="matrix(1.00, 0.00, -0.00, -1.00, 717.1, 333.0)">s</text><text xml:space="preserve" font-family="ComicSansMS" font-size="36.0" fill="#858585" transform="matrix(1.00, 0.00, -0.00, -1.00, 734.6, 333.0)"> </text><text xml:space="preserve" font-family="ComicSansMS" font-size="36.0" fill="#858585" transform="matrix(1.00, 0.00, -0.00, -1.00, 745.3, 333.0)">a</text><text xml:space="preserve" font-family="ComicSansMS" font-size="36.0" fill="#858585" transform="matrix(1.00, 0.00, -0.00, -1.00, 763.7, 333.0)">n</text><text xml:space="preserve" font-family="ComicSansMS" font-size="36.0" fill="#858585" transform="matrix(1.00, 0.00, -0.00, -1.00, 782.6, 333.0)">d</text><text xml:space="preserve" font-family="ComicSansMS" font-size="36.0" fill="#858585" transform="matrix(1.00, 0.00, -0.00, -1.00, 803.8, 333.0)"> </text><text xml:space="preserve" font-family="ComicSansMS" font-size="36.0" fill="#858585" transform="matrix(1.00, 0.00, -0.00, -1.00, 814.5, 333.0)">c</text><text xml:space="preserve" font-family="ComicSansMS" font-size="36.0" fill="#858585" transform="matrix(1.00, 0.00, -0.00, -1.00, 833.0, 333.0)">e</text><text xml:space="preserve" font-family="ComicSansMS" font-size="36.0" fill="#858585" transform="matrix(1.00, 0.00, -0.00, -1.00, 852.7, 333.0)">r</text><text xml:space="preserve" font-family="ComicSansMS" font-size="36.0" fill="#858585" transform="matrix(1.00, 0.00, -0.00, -1.00, 870.0, 333.0)">t</text><text xml:space="preserve" font-family="ComicSansMS" font-size="36.0" fill="#858585" transform="matrix(1.00, 0.00, -0.00, -1.00, 887.0, 333.0)">a</text><text xml:space="preserve" font-family="ComicSansMS" font-size="36.0" fill="#858585" transform="matrix(1.00, 0.00, -0.00, -1.00, 905.4, 333.0)">i</text><text xml:space="preserve" font-family="ComicSansMS" font-size="36.0" fill="#858585" transform="matrix(1.00, 0.00, -0.00, -1.00, 915.5, 333.0)">n</text><text xml:space="preserve" font-family="ComicSansMS" font-size="36.0" fill="#858585" transform="matrix(1.00, 0.00, -0.00, -1.00, 934.4, 333.0)"> </text><text xml:space="preserve" font-family="ComicSansMS" font-size="36.0" fill="#858585" transform="matrix(1.00, 0.00, -0.00, -1.00, 550.0, 283.0)">d</text><text xml:space="preserve" font-family="ComicSansMS" font-size="36.0" fill="#858585" transform="matrix(1.00, 0.00, -0.00, -1.00, 571.2, 283.0)">e</text><text xml:space="preserve" font-family="ComicSansMS" font-size="36.0" fill="#858585" transform="matrix(1.00, 0.00, -0.00, -1.00, 590.9, 283.0)">v</text><text xml:space="preserve" font-family="ComicSansMS" font-size="36.0" fill="#858585" transform="matrix(1.00, 0.00, -0.00, -1.00, 608.4, 283.0)">i</text><text xml:space="preserve" font-family="ComicSansMS" font-size="36.0" fill="#858585" transform="matrix(1.00, 0.00, -0.00, -1.00, 618.5, 283.0)">c</text><text xml:space="preserve" font-family="ComicSansMS" font-size="36.0" fill="#858585" transform="matrix(1.00, 0.00, -0.00, -1.00, 637.0, 283.0)">e</text><text xml:space="preserve" font-family="ComicSansMS" font-size="36.0" fill="#858585" transform="matrix(1.00, 0.00, -0.00, -1.00, 656.7, 283.0)">s</text><text xml:space="preserve" font-family="ComicSansMS" font-size="36.0" fill="#858585" transform="matrix(1.00, 0.00, -0.00, -1.00, 674.2, 283.0)"> </text><g><clipPath id="clip-279"><path d="M 515.0 197.5 L 541.9 197.5 L 541.9 222.6 L 515.0 222.6 Z M 515.0 197.5 "></path></clipPath><g clip-path="url(#clip-279)"><path d="M 541.5 206.5 C 541.8 206.2 541.9 205.8 541.9 205.4 C 541.9 204.6 541.4 203.8 540.5 203.1 C 539.7 202.5 538.6 202.1 537.5 202.1 C 536.1 202.1 534.4 203.2 532.4 205.4 C 532.4 205.4 532.4 202.1 532.4 202.1 C 532.4 201.8 532.5 201.4 532.7 201.0 C 532.9 200.5 533.0 200.2 533.0 200.0 C 533.0 199.3 532.6 198.7 531.9 198.3 C 531.2 197.8 530.6 197.5 529.9 197.5 C 528.7 197.5 527.6 198.1 526.7 199.1 C 526.4 199.4 526.4 200.3 526.5 201.7 C 526.5 203.2 526.6 204.7 526.7 206.1 C 526.0 205.6 524.5 204.8 522.4 203.7 C 522.2 203.3 521.3 202.8 519.9 202.3 C 518.8 202.2 517.8 202.4 516.7 202.9 C 515.6 203.4 515.0 204.1 515.0 205.0 C 515.0 205.2 515.1 205.4 515.2 205.6 C 515.4 206.1 515.8 206.4 516.5 206.6 C 517.6 207.0 518.2 207.2 518.3 207.2 C 518.3 207.2 524.3 210.5 524.3 210.5 C 524.3 210.5 520.1 212.5 520.1 212.5 C 519.4 212.5 518.6 212.8 517.6 213.4 C 517.4 213.7 517.3 214.1 517.3 214.4 C 517.3 215.4 517.9 216.4 519.1 217.3 C 520.3 218.3 521.5 218.8 522.7 218.8 C 523.0 218.8 523.4 218.7 523.8 218.6 C 524.2 218.4 524.6 218.1 524.9 217.5 C 525.3 216.8 525.9 216.1 526.7 215.6 C 526.7 215.6 526.9 219.4 526.9 219.4 C 526.7 219.9 526.7 220.7 526.9 221.7 C 527.3 222.3 528.4 222.6 530.1 222.6 C 531.6 222.6 532.7 222.2 533.2 221.3 C 533.4 220.9 533.4 220.0 533.3 218.7 C 533.2 217.5 533.0 216.3 532.9 215.1 C 532.9 215.1 535.1 216.2 535.1 216.2 C 535.5 216.6 536.3 217.1 537.5 217.7 C 538.4 217.7 539.2 217.4 540.0 216.7 C 540.9 216.0 541.3 215.2 541.3 214.3 C 541.3 214.0 541.2 213.6 540.9 213.3 C 540.7 213.0 540.4 212.8 539.8 212.7 C 539.2 212.5 538.7 212.4 538.5 212.2 C 538.5 212.2 535.2 209.9 535.2 209.9 C 535.2 209.9 539.4 207.6 539.4 207.6 C 540.0 207.5 540.7 207.1 541.5 206.5 Z M 541.5 206.5 " fill="#3995D6"></path></g></g><text xml:space="preserve" font-family="ComicSansMS" font-size="36.0" fill="#858585" transform="matrix(1.00, 0.00, -0.00, -1.00, 550.0, 195.0)">O</text><text xml:space="preserve" font-family="ComicSansMS" font-size="36.0" fill="#858585" transform="matrix(1.00, 0.00, -0.00, -1.00, 578.8, 195.0)">n</text><text xml:space="preserve" font-family="ComicSansMS" font-size="36.0" fill="#858585" transform="matrix(1.00, 0.00, -0.00, -1.00, 597.6, 195.0)">l</text><text xml:space="preserve" font-family="ComicSansMS" font-size="36.0" fill="#858585" transform="matrix(1.00, 0.00, -0.00, -1.00, 607.5, 195.0)">y</text><text xml:space="preserve" font-family="ComicSansMS" font-size="36.0" fill="#858585" transform="matrix(1.00, 0.00, -0.00, -1.00, 626.2, 195.0)"> </text><text xml:space="preserve" font-family="ComicSansMS" font-size="36.0" fill="#858585" transform="matrix(1.00, 0.00, -0.00, -1.00, 636.9, 195.0)">w</text><text xml:space="preserve" font-family="ComicSansMS" font-size="36.0" fill="#858585" transform="matrix(1.00, 0.00, -0.00, -1.00, 661.6, 195.0)">o</text><text xml:space="preserve" font-family="ComicSansMS" font-size="36.0" fill="#858585" transform="matrix(1.00, 0.00, -0.00, -1.00, 680.5, 195.0)">r</text><text xml:space="preserve" font-family="ComicSansMS" font-size="36.0" fill="#858585" transform="matrix(1.00, 0.00, -0.00, -1.00, 697.8, 195.0)">k</text><text xml:space="preserve" font-family="ComicSansMS" font-size="36.0" fill="#858585" transform="matrix(1.00, 0.00, -0.00, -1.00, 717.3, 195.0)">s</text><text xml:space="preserve" font-family="ComicSansMS" font-size="36.0" fill="#858585" transform="matrix(1.00, 0.00, -0.00, -1.00, 734.8, 195.0)"> </text><text xml:space="preserve" font-family="ComicSansMS" font-size="36.0" fill="#858585" transform="matrix(1.00, 0.00, -0.00, -1.00, 745.5, 195.0)">i</text><text xml:space="preserve" font-family="ComicSansMS" font-size="36.0" fill="#858585" transform="matrix(1.00, 0.00, -0.00, -1.00, 755.6, 195.0)">n</text><text xml:space="preserve" font-family="ComicSansMS" font-size="36.0" fill="#858585" transform="matrix(1.00, 0.00, -0.00, -1.00, 774.5, 195.0)"> </text><text xml:space="preserve" font-family="ComicSansMS" font-size="36.0" fill="#858585" transform="matrix(1.00, 0.00, -0.00, -1.00, 785.2, 195.0)">C</text><text xml:space="preserve" font-family="ComicSansMS" font-size="36.0" fill="#858585" transform="matrix(1.00, 0.00, -0.00, -1.00, 806.9, 195.0)">h</text><text xml:space="preserve" font-family="ComicSansMS" font-size="36.0" fill="#858585" transform="matrix(1.00, 0.00, -0.00, -1.00, 827.7, 195.0)">r</text><text xml:space="preserve" font-family="ComicSansMS" font-size="36.0" fill="#858585" transform="matrix(1.00, 0.00, -0.00, -1.00, 845.0, 195.0)">o</text><text xml:space="preserve" font-family="ComicSansMS" font-size="36.0" fill="#858585" transform="matrix(1.00, 0.00, -0.00, -1.00, 863.9, 195.0)">m</text><text xml:space="preserve" font-family="ComicSansMS" font-size="36.0" fill="#858585" transform="matrix(1.00, 0.00, -0.00, -1.00, 891.9, 195.0)">e</text><text xml:space="preserve" font-family="ComicSansMS" font-size="36.0" fill="#858585" transform="matrix(1.00, 0.00, -0.00, -1.00, 911.6, 195.0)"> </text><text xml:space="preserve" font-family="ComicSansMS" font-size="36.0" fill="#858585" transform="matrix(1.00, 0.00, -0.00, -1.00, 550.0, 145.0)">a</text><text xml:space="preserve" font-family="ComicSansMS" font-size="36.0" fill="#858585" transform="matrix(1.00, 0.00, -0.00, -1.00, 568.4, 145.0)">n</text><text xml:space="preserve" font-family="ComicSansMS" font-size="36.0" fill="#858585" transform="matrix(1.00, 0.00, -0.00, -1.00, 587.3, 145.0)">d</text><text xml:space="preserve" font-family="ComicSansMS" font-size="36.0" fill="#858585" transform="matrix(1.00, 0.00, -0.00, -1.00, 608.5, 145.0)"> </text><text xml:space="preserve" font-family="ComicSansMS" font-size="36.0" fill="#858585" transform="matrix(1.00, 0.00, -0.00, -1.00, 619.2, 145.0)">F</text><text xml:space="preserve" font-family="ComicSansMS" font-size="36.0" fill="#858585" transform="matrix(1.00, 0.00, -0.00, -1.00, 641.0, 145.0)">i</text><text xml:space="preserve" font-family="ComicSansMS" font-size="36.0" fill="#858585" transform="matrix(1.00, 0.00, -0.00, -1.00, 651.2, 145.0)">r</text><text xml:space="preserve" font-family="ComicSansMS" font-size="36.0" fill="#858585" transform="matrix(1.00, 0.00, -0.00, -1.00, 668.5, 145.0)">e</text><text xml:space="preserve" font-family="ComicSansMS" font-size="36.0" fill="#858585" transform="matrix(1.00, 0.00, -0.00, -1.00, 688.2, 145.0)">f</text><text xml:space="preserve" font-family="ComicSansMS" font-size="36.0" fill="#858585" transform="matrix(1.00, 0.00, -0.00, -1.00, 706.5, 145.0)">o</text><text xml:space="preserve" font-family="ComicSansMS" font-size="36.0" fill="#858585" transform="matrix(1.00, 0.00, -0.00, -1.00, 725.4, 145.0)">x</text><image xlink:href="../../C83BD723-B9A3-4BFB-8DE1-E80A84EA6ABA/assets/C9DA8E13C24AF5F5AC421794D312BB99.png" width="430.00" height="289.00" transform="matrix(1.00, 0.00, -0.00, -1.00, 43.0, 493.0)"></image></g></svg>