<?xml version="1.0" encoding="UTF-8" standalone="no"?><svg xmlns="http://www.w3.org/2000/svg" xmlns:xlink="http://www.w3.org/1999/xlink" clip-rule="evenodd" stroke-miterlimit="4.00" viewBox="0 0 1024 768"><desc>SVG generated by Keynote</desc><defs></defs><g transform="matrix(1.00, 0.00, -0.00, -1.00, 0.0, 768.0)"><g><clipPath id="clip-213"><path d="M 0.0 768.0 L 1024.0 768.0 L 1024.0 0.0 L 0.0 0.0 Z M 0.0 768.0 "></path></clipPath><g clip-path="url(#clip-213)"><image xlink:href="../../AD43F5AB-7C1D-45DB-8B96-B58B9BFD50C8/assets/43DA95A1552523200D88D33196FD3A18.jpeg" width="1024.00" height="768.00" transform="matrix(1.00, 0.00, -0.00, -1.00, 0.0, 768.0)"></image></g></g><text xml:space="preserve" font-family="ComicSansMS-Bold" font-weight="bold" font-size="80.0" fill="#45A6DE" transform="matrix(1.00, 0.00, -0.00, -1.00, 367.0, 619.0)">U</text><text xml:space="preserve" font-family="ComicSansMS-Bold" font-weight="bold" font-size="80.0" fill="#45A6DE" transform="matrix(1.00, 0.00, -0.00, -1.00, 425.9, 619.0)">p</text><text xml:space="preserve" font-family="ComicSansMS-Bold" font-weight="bold" font-size="80.0" fill="#45A6DE" transform="matrix(1.00, 0.00, -0.00, -1.00, 468.7, 619.0)">s</text><text xml:space="preserve" font-family="ComicSansMS-Bold" font-weight="bold" font-size="80.0" fill="#45A6DE" transform="matrix(1.00, 0.00, -0.00, -1.00, 507.6, 619.0)">i</text><text xml:space="preserve" font-family="ComicSansMS-Bold" font-weight="bold" font-size="80.0" fill="#45A6DE" transform="matrix(1.00, 0.00, -0.00, -1.00, 530.1, 619.0)">d</text><text xml:space="preserve" font-family="ComicSansMS-Bold" font-weight="bold" font-size="80.0" fill="#45A6DE" transform="matrix(1.00, 0.00, -0.00, -1.00, 577.2, 619.0)">e</text><text xml:space="preserve" font-family="ComicSansMS-Bold" font-weight="bold" font-size="80.0" fill="#45A6DE" transform="matrix(1.00, 0.00, -0.00, -1.00, 621.9, 619.0)">:</text><g><clipPath id="clip-214"><path d="M 104.0 496.4 L 136.3 496.4 L 136.3 526.6 L 104.0 526.6 Z M 104.0 496.4 "></path></clipPath><g clip-path="url(#clip-214)"><path d="M 135.8 507.2 C 136.1 506.8 136.3 506.3 136.3 505.8 C 136.3 504.9 135.8 504.0 134.7 503.2 C 133.6 502.3 132.4 501.9 131.1 501.9 C 129.3 501.9 127.2 503.2 124.9 505.8 C 124.9 505.8 124.9 501.9 124.9 501.9 C 124.9 501.6 125.0 501.1 125.2 500.6 C 125.5 500.0 125.6 499.6 125.6 499.4 C 125.6 498.6 125.2 497.9 124.3 497.3 C 123.5 496.7 122.7 496.4 121.9 496.4 C 120.4 496.4 119.1 497.1 118.1 498.3 C 117.7 498.7 117.6 499.8 117.8 501.5 C 117.8 503.2 117.9 505.0 118.1 506.8 C 117.2 506.1 115.5 505.1 112.9 503.8 C 112.6 503.3 111.6 502.8 109.9 502.2 C 108.6 502.1 107.3 502.3 106.0 502.9 C 104.7 503.5 104.0 504.3 104.0 505.3 C 104.0 505.6 104.1 505.8 104.2 506.1 C 104.4 506.7 105.0 507.1 105.8 507.3 C 107.1 507.8 107.9 508.0 108.0 508.1 C 108.0 508.1 115.1 512.0 115.1 512.0 C 115.1 512.0 110.1 514.4 110.1 514.4 C 109.3 514.4 108.3 514.8 107.1 515.5 C 106.9 515.9 106.8 516.3 106.8 516.7 C 106.8 517.9 107.5 519.1 108.9 520.2 C 110.3 521.4 111.8 521.9 113.2 521.9 C 113.7 521.9 114.1 521.9 114.6 521.7 C 115.1 521.5 115.5 521.1 115.9 520.4 C 116.3 519.5 117.0 518.8 118.1 518.1 C 118.1 518.1 118.3 522.7 118.3 522.7 C 118.1 523.3 118.1 524.2 118.3 525.4 C 118.8 526.2 120.1 526.6 122.1 526.6 C 124.0 526.6 125.2 526.0 125.9 525.0 C 126.1 524.5 126.1 523.5 125.9 521.8 C 125.8 520.4 125.7 518.9 125.5 517.5 C 125.5 517.5 128.1 518.8 128.1 518.8 C 128.6 519.4 129.6 520.0 131.1 520.6 C 132.1 520.7 133.1 520.3 134.1 519.4 C 135.0 518.6 135.5 517.6 135.5 516.6 C 135.5 516.2 135.4 515.8 135.2 515.4 C 134.9 515.0 134.5 514.8 133.8 514.6 C 133.0 514.4 132.5 514.2 132.2 514.1 C 132.2 514.1 128.3 511.3 128.3 511.3 C 128.3 511.3 133.4 508.6 133.4 508.6 C 134.0 508.4 134.8 507.9 135.8 507.2 Z M 135.8 507.2 " fill="#3995D6"></path></g></g><text xml:space="preserve" font-family="ComicSansMS" font-size="46.0" fill="#858585" transform="matrix(1.00, 0.00, -0.00, -1.00, 154.0, 493.0)">B</text><text xml:space="preserve" font-family="ComicSansMS" font-size="46.0" fill="#858585" transform="matrix(1.00, 0.00, -0.00, -1.00, 183.0, 493.0)">y</text><text xml:space="preserve" font-family="ComicSansMS" font-size="46.0" fill="#858585" transform="matrix(1.00, 0.00, -0.00, -1.00, 206.9, 493.0)"> </text><text xml:space="preserve" font-family="ComicSansMS" font-size="46.0" fill="#858585" transform="matrix(1.00, 0.00, -0.00, -1.00, 220.7, 493.0)">f</text><text xml:space="preserve" font-family="ComicSansMS" font-size="46.0" fill="#858585" transform="matrix(1.00, 0.00, -0.00, -1.00, 244.1, 493.0)">a</text><text xml:space="preserve" font-family="ComicSansMS" font-size="46.0" fill="#858585" transform="matrix(1.00, 0.00, -0.00, -1.00, 267.6, 493.0)">r</text><text xml:space="preserve" font-family="ComicSansMS" font-size="46.0" fill="#858585" transform="matrix(1.00, 0.00, -0.00, -1.00, 289.7, 493.0)"> </text><text xml:space="preserve" font-family="ComicSansMS" font-size="46.0" fill="#858585" transform="matrix(1.00, 0.00, -0.00, -1.00, 303.5, 493.0)">e</text><text xml:space="preserve" font-family="ComicSansMS" font-size="46.0" fill="#858585" transform="matrix(1.00, 0.00, -0.00, -1.00, 328.7, 493.0)">a</text><text xml:space="preserve" font-family="ComicSansMS" font-size="46.0" fill="#858585" transform="matrix(1.00, 0.00, -0.00, -1.00, 352.2, 493.0)">s</text><text xml:space="preserve" font-family="ComicSansMS" font-size="46.0" fill="#858585" transform="matrix(1.00, 0.00, -0.00, -1.00, 374.6, 493.0)">i</text><text xml:space="preserve" font-family="ComicSansMS" font-size="46.0" fill="#858585" transform="matrix(1.00, 0.00, -0.00, -1.00, 387.5, 493.0)">e</text><text xml:space="preserve" font-family="ComicSansMS" font-size="46.0" fill="#858585" transform="matrix(1.00, 0.00, -0.00, -1.00, 412.7, 493.0)">s</text><text xml:space="preserve" font-family="ComicSansMS" font-size="46.0" fill="#858585" transform="matrix(1.00, 0.00, -0.00, -1.00, 435.0, 493.0)">t</text><text xml:space="preserve" font-family="ComicSansMS" font-size="46.0" fill="#858585" transform="matrix(1.00, 0.00, -0.00, -1.00, 456.7, 493.0)"> </text><text xml:space="preserve" font-family="ComicSansMS" font-size="46.0" fill="#858585" transform="matrix(1.00, 0.00, -0.00, -1.00, 470.5, 493.0)">t</text><text xml:space="preserve" font-family="ComicSansMS" font-size="46.0" fill="#858585" transform="matrix(1.00, 0.00, -0.00, -1.00, 492.2, 493.0)">o</text><text xml:space="preserve" font-family="ComicSansMS" font-size="46.0" fill="#858585" transform="matrix(1.00, 0.00, -0.00, -1.00, 516.3, 493.0)"> </text><text xml:space="preserve" font-family="ComicSansMS" font-size="46.0" fill="#858585" transform="matrix(1.00, 0.00, -0.00, -1.00, 530.1, 493.0)">s</text><text xml:space="preserve" font-family="ComicSansMS" font-size="46.0" fill="#858585" transform="matrix(1.00, 0.00, -0.00, -1.00, 552.5, 493.0)">e</text><text xml:space="preserve" font-family="ComicSansMS" font-size="46.0" fill="#858585" transform="matrix(1.00, 0.00, -0.00, -1.00, 577.7, 493.0)">t</text><text xml:space="preserve" font-family="ComicSansMS" font-size="46.0" fill="#858585" transform="matrix(1.00, 0.00, -0.00, -1.00, 599.3, 493.0)"> </text><text xml:space="preserve" font-family="ComicSansMS" font-size="46.0" fill="#858585" transform="matrix(1.00, 0.00, -0.00, -1.00, 613.1, 493.0)">u</text><text xml:space="preserve" font-family="ComicSansMS" font-size="46.0" fill="#858585" transform="matrix(1.00, 0.00, -0.00, -1.00, 637.0, 493.0)">p</text><text xml:space="preserve" font-family="ComicSansMS-Bold" font-weight="bold" font-size="80.0" fill="#45A6DE" transform="matrix(1.00, 0.00, -0.00, -1.00, 320.0, 338.0)">D</text><text xml:space="preserve" font-family="ComicSansMS-Bold" font-weight="bold" font-size="80.0" fill="#45A6DE" transform="matrix(1.00, 0.00, -0.00, -1.00, 377.7, 338.0)">o</text><text xml:space="preserve" font-family="ComicSansMS-Bold" font-weight="bold" font-size="80.0" fill="#45A6DE" transform="matrix(1.00, 0.00, -0.00, -1.00, 419.8, 338.0)">w</text><text xml:space="preserve" font-family="ComicSansMS-Bold" font-weight="bold" font-size="80.0" fill="#45A6DE" transform="matrix(1.00, 0.00, -0.00, -1.00, 474.5, 338.0)">n</text><text xml:space="preserve" font-family="ComicSansMS-Bold" font-weight="bold" font-size="80.0" fill="#45A6DE" transform="matrix(1.00, 0.00, -0.00, -1.00, 516.4, 338.0)">s</text><text xml:space="preserve" font-family="ComicSansMS-Bold" font-weight="bold" font-size="80.0" fill="#45A6DE" transform="matrix(1.00, 0.00, -0.00, -1.00, 555.3, 338.0)">i</text><text xml:space="preserve" font-family="ComicSansMS-Bold" font-weight="bold" font-size="80.0" fill="#45A6DE" transform="matrix(1.00, 0.00, -0.00, -1.00, 577.8, 338.0)">d</text><text xml:space="preserve" font-family="ComicSansMS-Bold" font-weight="bold" font-size="80.0" fill="#45A6DE" transform="matrix(1.00, 0.00, -0.00, -1.00, 624.8, 338.0)">e</text><text xml:space="preserve" font-family="ComicSansMS-Bold" font-weight="bold" font-size="80.0" fill="#45A6DE" transform="matrix(1.00, 0.00, -0.00, -1.00, 669.5, 338.0)">:</text><g><clipPath id="clip-215"><path d="M 104.0 245.9 L 136.3 245.9 L 136.3 276.0 L 104.0 276.0 Z M 104.0 245.9 "></path></clipPath><g clip-path="url(#clip-215)"><path d="M 135.8 256.7 C 136.1 256.2 136.3 255.8 136.3 255.3 C 136.3 254.3 135.8 253.4 134.7 252.6 C 133.6 251.8 132.4 251.4 131.1 251.4 C 129.3 251.4 127.2 252.7 124.9 255.3 C 124.9 255.3 124.9 251.4 124.9 251.4 C 124.9 251.0 125.0 250.5 125.2 250.0 C 125.5 249.5 125.6 249.1 125.6 248.8 C 125.6 248.0 125.2 247.3 124.3 246.7 C 123.5 246.2 122.7 245.9 121.9 245.9 C 120.4 245.9 119.1 246.5 118.1 247.8 C 117.7 248.2 117.6 249.2 117.8 250.9 C 117.8 252.7 117.9 254.4 118.1 256.2 C 117.2 255.6 115.5 254.6 112.9 253.3 C 112.6 252.8 111.6 252.2 109.9 251.7 C 108.6 251.5 107.3 251.8 106.0 252.4 C 104.7 253.0 104.0 253.8 104.0 254.8 C 104.0 255.0 104.1 255.3 104.2 255.5 C 104.4 256.1 105.0 256.5 105.8 256.8 C 107.1 257.2 107.9 257.5 108.0 257.5 C 108.0 257.5 115.1 261.4 115.1 261.4 C 115.1 261.4 110.1 263.9 110.1 263.9 C 109.3 263.9 108.3 264.2 107.1 264.9 C 106.9 265.3 106.8 265.7 106.8 266.2 C 106.8 267.4 107.5 268.5 108.9 269.7 C 110.3 270.8 111.8 271.4 113.2 271.4 C 113.7 271.4 114.1 271.3 114.6 271.1 C 115.1 271.0 115.5 270.6 115.9 269.9 C 116.3 269.0 117.0 268.2 118.1 267.6 C 118.1 267.6 118.3 272.1 118.3 272.1 C 118.1 272.8 118.1 273.7 118.3 274.9 C 118.8 275.6 120.1 276.0 122.1 276.0 C 124.0 276.0 125.2 275.5 125.9 274.4 C 126.1 274.0 126.1 272.9 125.9 271.3 C 125.8 269.8 125.7 268.4 125.5 266.9 C 125.5 266.9 128.1 268.2 128.1 268.2 C 128.6 268.8 129.6 269.4 131.1 270.1 C 132.1 270.1 133.1 269.7 134.1 268.9 C 135.0 268.0 135.5 267.1 135.5 266.1 C 135.5 265.6 135.4 265.2 135.2 264.8 C 134.9 264.5 134.5 264.2 133.8 264.1 C 133.0 263.9 132.5 263.7 132.2 263.5 C 132.2 263.5 128.3 260.8 128.3 260.8 C 128.3 260.8 133.4 258.0 133.4 258.0 C 134.0 257.8 134.8 257.4 135.8 256.7 Z M 135.8 256.7 " fill="#3995D6"></path></g></g><text xml:space="preserve" font-family="ComicSansMS" font-size="46.0" fill="#858585" transform="matrix(1.00, 0.00, -0.00, -1.00, 154.0, 242.0)">N</text><text xml:space="preserve" font-family="ComicSansMS" font-size="46.0" fill="#858585" transform="matrix(1.00, 0.00, -0.00, -1.00, 190.7, 242.0)">o</text><text xml:space="preserve" font-family="ComicSansMS" font-size="46.0" fill="#858585" transform="matrix(1.00, 0.00, -0.00, -1.00, 214.8, 242.0)">t</text><text xml:space="preserve" font-family="ComicSansMS" font-size="46.0" fill="#858585" transform="matrix(1.00, 0.00, -0.00, -1.00, 236.5, 242.0)"> </text><text xml:space="preserve" font-family="ComicSansMS" font-size="46.0" fill="#858585" transform="matrix(1.00, 0.00, -0.00, -1.00, 250.3, 242.0)">s</text><text xml:space="preserve" font-family="ComicSansMS" font-size="46.0" fill="#858585" transform="matrix(1.00, 0.00, -0.00, -1.00, 272.6, 242.0)">i</text><text xml:space="preserve" font-family="ComicSansMS" font-size="46.0" fill="#858585" transform="matrix(1.00, 0.00, -0.00, -1.00, 285.5, 242.0)">m</text><text xml:space="preserve" font-family="ComicSansMS" font-size="46.0" fill="#858585" transform="matrix(1.00, 0.00, -0.00, -1.00, 321.3, 242.0)">u</text><text xml:space="preserve" font-family="ComicSansMS" font-size="46.0" fill="#858585" transform="matrix(1.00, 0.00, -0.00, -1.00, 345.2, 242.0)">l</text><text xml:space="preserve" font-family="ComicSansMS" font-size="46.0" fill="#858585" transform="matrix(1.00, 0.00, -0.00, -1.00, 357.8, 242.0)">a</text><text xml:space="preserve" font-family="ComicSansMS" font-size="46.0" fill="#858585" transform="matrix(1.00, 0.00, -0.00, -1.00, 381.3, 242.0)">t</text><text xml:space="preserve" font-family="ComicSansMS" font-size="46.0" fill="#858585" transform="matrix(1.00, 0.00, -0.00, -1.00, 403.0, 242.0)">i</text><text xml:space="preserve" font-family="ComicSansMS" font-size="46.0" fill="#858585" transform="matrix(1.00, 0.00, -0.00, -1.00, 415.9, 242.0)">n</text><text xml:space="preserve" font-family="ComicSansMS" font-size="46.0" fill="#858585" transform="matrix(1.00, 0.00, -0.00, -1.00, 440.0, 242.0)">g</text><text xml:space="preserve" font-family="ComicSansMS" font-size="46.0" fill="#858585" transform="matrix(1.00, 0.00, -0.00, -1.00, 464.4, 242.0)"> </text><text xml:space="preserve" font-family="ComicSansMS" font-size="46.0" fill="#858585" transform="matrix(1.00, 0.00, -0.00, -1.00, 478.2, 242.0)">A</text><text xml:space="preserve" font-family="ComicSansMS" font-size="46.0" fill="#858585" transform="matrix(1.00, 0.00, -0.00, -1.00, 511.8, 242.0)">n</text><text xml:space="preserve" font-family="ComicSansMS" font-size="46.0" fill="#858585" transform="matrix(1.00, 0.00, -0.00, -1.00, 535.9, 242.0)">d</text><text xml:space="preserve" font-family="ComicSansMS" font-size="46.0" fill="#858585" transform="matrix(1.00, 0.00, -0.00, -1.00, 563.0, 242.0)">r</text><text xml:space="preserve" font-family="ComicSansMS" font-size="46.0" fill="#858585" transform="matrix(1.00, 0.00, -0.00, -1.00, 585.1, 242.0)">o</text><text xml:space="preserve" font-family="ComicSansMS" font-size="46.0" fill="#858585" transform="matrix(1.00, 0.00, -0.00, -1.00, 609.3, 242.0)">i</text><text xml:space="preserve" font-family="ComicSansMS" font-size="46.0" fill="#858585" transform="matrix(1.00, 0.00, -0.00, -1.00, 622.2, 242.0)">d</text><text xml:space="preserve" font-family="ComicSansMS" font-size="46.0" fill="#858585" transform="matrix(1.00, 0.00, -0.00, -1.00, 649.2, 242.0)"> </text><text xml:space="preserve" font-family="ComicSansMS" font-size="46.0" fill="#858585" transform="matrix(1.00, 0.00, -0.00, -1.00, 662.9, 242.0)">a</text><text xml:space="preserve" font-family="ComicSansMS" font-size="46.0" fill="#858585" transform="matrix(1.00, 0.00, -0.00, -1.00, 686.5, 242.0)">t</text><text xml:space="preserve" font-family="ComicSansMS" font-size="46.0" fill="#858585" transform="matrix(1.00, 0.00, -0.00, -1.00, 708.2, 242.0)"> </text><text xml:space="preserve" font-family="ComicSansMS" font-size="46.0" fill="#858585" transform="matrix(1.00, 0.00, -0.00, -1.00, 721.9, 242.0)">a</text><text xml:space="preserve" font-family="ComicSansMS" font-size="46.0" fill="#858585" transform="matrix(1.00, 0.00, -0.00, -1.00, 745.4, 242.0)">l</text><text xml:space="preserve" font-family="ComicSansMS" font-size="46.0" fill="#858585" transform="matrix(1.00, 0.00, -0.00, -1.00, 758.0, 242.0)">l</text><text xml:space="preserve" font-family="ComicSansMS" font-size="46.0" fill="#858585" transform="matrix(1.00, 0.00, -0.00, -1.00, 770.6, 242.0)">,</text><text xml:space="preserve" font-family="ComicSansMS" font-size="46.0" fill="#858585" transform="matrix(1.00, 0.00, -0.00, -1.00, 783.3, 242.0)"> </text><text xml:space="preserve" font-family="ComicSansMS" font-size="46.0" fill="#858585" transform="matrix(1.00, 0.00, -0.00, -1.00, 797.1, 242.0)">u</text><text xml:space="preserve" font-family="ComicSansMS" font-size="46.0" fill="#858585" transform="matrix(1.00, 0.00, -0.00, -1.00, 821.0, 242.0)">s</text><text xml:space="preserve" font-family="ComicSansMS" font-size="46.0" fill="#858585" transform="matrix(1.00, 0.00, -0.00, -1.00, 843.4, 242.0)">e</text><text xml:space="preserve" font-family="ComicSansMS" font-size="46.0" fill="#858585" transform="matrix(1.00, 0.00, -0.00, -1.00, 868.6, 242.0)">s</text><text xml:space="preserve" font-family="ComicSansMS" font-size="46.0" fill="#858585" transform="matrix(1.00, 0.00, -0.00, -1.00, 891.0, 242.0)"> </text><text xml:space="preserve" font-family="ComicSansMS" font-size="46.0" fill="#858585" transform="matrix(1.00, 0.00, -0.00, -1.00, 154.0, 178.0)">C</text><text xml:space="preserve" font-family="ComicSansMS" font-size="46.0" fill="#858585" transform="matrix(1.00, 0.00, -0.00, -1.00, 181.7, 178.0)">h</text><text xml:space="preserve" font-family="ComicSansMS" font-size="46.0" fill="#858585" transform="matrix(1.00, 0.00, -0.00, -1.00, 208.2, 178.0)">r</text><text xml:space="preserve" font-family="ComicSansMS" font-size="46.0" fill="#858585" transform="matrix(1.00, 0.00, -0.00, -1.00, 230.4, 178.0)">o</text><text xml:space="preserve" font-family="ComicSansMS" font-size="46.0" fill="#858585" transform="matrix(1.00, 0.00, -0.00, -1.00, 254.6, 178.0)">m</text><text xml:space="preserve" font-family="ComicSansMS" font-size="46.0" fill="#858585" transform="matrix(1.00, 0.00, -0.00, -1.00, 290.3, 178.0)">e</text><text xml:space="preserve" font-family="ComicSansMS" font-size="46.0" fill="#858585" transform="matrix(1.00, 0.00, -0.00, -1.00, 315.5, 178.0)"> </text><text xml:space="preserve" font-family="ComicSansMS" font-size="46.0" fill="#858585" transform="matrix(1.00, 0.00, -0.00, -1.00, 329.2, 178.0)">d</text><text xml:space="preserve" font-family="ComicSansMS" font-size="46.0" fill="#858585" transform="matrix(1.00, 0.00, -0.00, -1.00, 356.3, 178.0)">e</text><text xml:space="preserve" font-family="ComicSansMS" font-size="46.0" fill="#858585" transform="matrix(1.00, 0.00, -0.00, -1.00, 381.5, 178.0)">s</text><text xml:space="preserve" font-family="ComicSansMS" font-size="46.0" fill="#858585" transform="matrix(1.00, 0.00, -0.00, -1.00, 403.8, 178.0)">k</text><text xml:space="preserve" font-family="ComicSansMS" font-size="46.0" fill="#858585" transform="matrix(1.00, 0.00, -0.00, -1.00, 428.7, 178.0)">t</text><text xml:space="preserve" font-family="ComicSansMS" font-size="46.0" fill="#858585" transform="matrix(1.00, 0.00, -0.00, -1.00, 450.4, 178.0)">o</text><text xml:space="preserve" font-family="ComicSansMS" font-size="46.0" fill="#858585" transform="matrix(1.00, 0.00, -0.00, -1.00, 474.6, 178.0)">p</text><text xml:space="preserve" font-family="ComicSansMS" font-size="46.0" fill="#858585" transform="matrix(1.00, 0.00, -0.00, -1.00, 499.1, 178.0)"> </text><text xml:space="preserve" font-family="ComicSansMS" font-size="46.0" fill="#858585" transform="matrix(1.00, 0.00, -0.00, -1.00, 512.9, 178.0)">v</text><text xml:space="preserve" font-family="ComicSansMS" font-size="46.0" fill="#858585" transform="matrix(1.00, 0.00, -0.00, -1.00, 535.3, 178.0)">8</text><text xml:space="preserve" font-family="ComicSansMS" font-size="46.0" fill="#858585" transform="matrix(1.00, 0.00, -0.00, -1.00, 563.4, 178.0)"> </text><text xml:space="preserve" font-family="ComicSansMS" font-size="46.0" fill="#858585" transform="matrix(1.00, 0.00, -0.00, -1.00, 577.1, 178.0)">e</text><text xml:space="preserve" font-family="ComicSansMS" font-size="46.0" fill="#858585" transform="matrix(1.00, 0.00, -0.00, -1.00, 602.3, 178.0)">n</text><text xml:space="preserve" font-family="ComicSansMS" font-size="46.0" fill="#858585" transform="matrix(1.00, 0.00, -0.00, -1.00, 626.4, 178.0)">g</text><text xml:space="preserve" font-family="ComicSansMS" font-size="46.0" fill="#858585" transform="matrix(1.00, 0.00, -0.00, -1.00, 650.8, 178.0)">i</text><text xml:space="preserve" font-family="ComicSansMS" font-size="46.0" fill="#858585" transform="matrix(1.00, 0.00, -0.00, -1.00, 663.7, 178.0)">n</text><text xml:space="preserve" font-family="ComicSansMS" font-size="46.0" fill="#858585" transform="matrix(1.00, 0.00, -0.00, -1.00, 687.8, 178.0)">e</text></g></svg>