<?xml version="1.0" encoding="UTF-8" standalone="no"?><svg xmlns="http://www.w3.org/2000/svg" xmlns:xlink="http://www.w3.org/1999/xlink" clip-rule="evenodd" stroke-miterlimit="4.00" viewBox="0 0 1024 768"><desc>SVG generated by Keynote</desc><defs></defs><g transform="matrix(1.00, 0.00, -0.00, -1.00, 0.0, 768.0)"><g><clipPath id="clip-463"><path d="M 0.0 768.0 L 1024.0 768.0 L 1024.0 0.0 L 0.0 0.0 Z M 0.0 768.0 "></path></clipPath><g clip-path="url(#clip-463)"><image xlink:href="../../AD43F5AB-7C1D-45DB-8B96-B58B9BFD50C8/assets/43DA95A1552523200D88D33196FD3A18.jpeg" width="1024.00" height="768.00" transform="matrix(1.00, 0.00, -0.00, -1.00, 0.0, 768.0)"></image></g></g><text xml:space="preserve" font-family="ComicSansMS-Bold" font-weight="bold" font-size="78.4" fill="#45A6DE" transform="matrix(1.00, 0.00, -0.00, -1.00, 108.0, 646.0)">S</text><text xml:space="preserve" font-family="ComicSansMS-Bold" font-weight="bold" font-size="78.4" fill="#45A6DE" transform="matrix(1.00, 0.00, -0.00, -1.00, 162.4, 646.0)">e</text><text xml:space="preserve" font-family="ComicSansMS-Bold" font-weight="bold" font-size="78.4" fill="#45A6DE" transform="matrix(1.00, 0.00, -0.00, -1.00, 206.2, 646.0)">t</text><text xml:space="preserve" font-family="ComicSansMS-Bold" font-weight="bold" font-size="78.4" fill="#45A6DE" transform="matrix(1.00, 0.00, -0.00, -1.00, 243.2, 646.0)">u</text><text xml:space="preserve" font-family="ComicSansMS-Bold" font-weight="bold" font-size="78.4" fill="#45A6DE" transform="matrix(1.00, 0.00, -0.00, -1.00, 284.0, 646.0)">p</text><text xml:space="preserve" font-family="ComicSansMS-Bold" font-weight="bold" font-size="78.4" fill="#45A6DE" transform="matrix(1.00, 0.00, -0.00, -1.00, 325.9, 646.0)"> </text><text xml:space="preserve" font-family="ComicSansMS-Bold" font-weight="bold" font-size="78.4" fill="#45A6DE" transform="matrix(1.00, 0.00, -0.00, -1.00, 359.8, 646.0)">C</text><text xml:space="preserve" font-family="ComicSansMS-Bold" font-weight="bold" font-size="78.4" fill="#45A6DE" transform="matrix(1.00, 0.00, -0.00, -1.00, 408.3, 646.0)">h</text><text xml:space="preserve" font-family="ComicSansMS-Bold" font-weight="bold" font-size="78.4" fill="#45A6DE" transform="matrix(1.00, 0.00, -0.00, -1.00, 453.5, 646.0)">a</text><text xml:space="preserve" font-family="ComicSansMS-Bold" font-weight="bold" font-size="78.4" fill="#45A6DE" transform="matrix(1.00, 0.00, -0.00, -1.00, 497.1, 646.0)">r</text><text xml:space="preserve" font-family="ComicSansMS-Bold" font-weight="bold" font-size="78.4" fill="#45A6DE" transform="matrix(1.00, 0.00, -0.00, -1.00, 534.8, 646.0)">l</text><text xml:space="preserve" font-family="ComicSansMS-Bold" font-weight="bold" font-size="78.4" fill="#45A6DE" transform="matrix(1.00, 0.00, -0.00, -1.00, 556.3, 646.0)">e</text><text xml:space="preserve" font-family="ComicSansMS-Bold" font-weight="bold" font-size="78.4" fill="#45A6DE" transform="matrix(1.00, 0.00, -0.00, -1.00, 600.1, 646.0)">s</text><text xml:space="preserve" font-family="ComicSansMS-Bold" font-weight="bold" font-size="78.4" fill="#45A6DE" transform="matrix(1.00, 0.00, -0.00, -1.00, 638.3, 646.0)"> </text><text xml:space="preserve" font-family="ComicSansMS-Bold" font-weight="bold" font-size="78.4" fill="#45A6DE" transform="matrix(1.00, 0.00, -0.00, -1.00, 672.2, 646.0)">P</text><text xml:space="preserve" font-family="ComicSansMS-Bold" font-weight="bold" font-size="78.4" fill="#45A6DE" transform="matrix(1.00, 0.00, -0.00, -1.00, 714.0, 646.0)">r</text><text xml:space="preserve" font-family="ComicSansMS-Bold" font-weight="bold" font-size="78.4" fill="#45A6DE" transform="matrix(1.00, 0.00, -0.00, -1.00, 751.7, 646.0)">o</text><text xml:space="preserve" font-family="ComicSansMS-Bold" font-weight="bold" font-size="78.4" fill="#45A6DE" transform="matrix(1.00, 0.00, -0.00, -1.00, 792.9, 646.0)">x</text><text xml:space="preserve" font-family="ComicSansMS-Bold" font-weight="bold" font-size="78.4" fill="#45A6DE" transform="matrix(1.00, 0.00, -0.00, -1.00, 839.2, 646.0)">y</text><text xml:space="preserve" font-family="ComicSansMS-Bold" font-weight="bold" font-size="78.4" fill="#45A6DE" transform="matrix(1.00, 0.00, -0.00, -1.00, 882.5, 646.0)">:</text><g><clipPath id="clip-464"><path d="M 83.0 494.5 L 109.9 494.5 L 109.9 519.6 L 83.0 519.6 Z M 83.0 494.5 "></path></clipPath><g clip-path="url(#clip-464)"><path d="M 109.5 503.5 C 109.8 503.2 109.9 502.8 109.9 502.4 C 109.9 501.6 109.4 500.8 108.5 500.1 C 107.7 499.5 106.6 499.1 105.5 499.1 C 104.1 499.1 102.4 500.2 100.4 502.4 C 100.4 502.4 100.4 499.1 100.4 499.1 C 100.4 498.8 100.5 498.4 100.7 498.0 C 100.9 497.5 101.0 497.2 101.0 497.0 C 101.0 496.3 100.6 495.7 99.9 495.3 C 99.2 494.8 98.6 494.5 97.9 494.5 C 96.7 494.5 95.6 495.1 94.7 496.1 C 94.4 496.4 94.4 497.3 94.5 498.7 C 94.5 500.2 94.6 501.7 94.7 503.1 C 94.0 502.6 92.5 501.8 90.4 500.7 C 90.2 500.3 89.3 499.8 87.9 499.3 C 86.8 499.2 85.8 499.4 84.7 499.9 C 83.6 500.4 83.0 501.1 83.0 502.0 C 83.0 502.2 83.1 502.4 83.2 502.6 C 83.4 503.1 83.8 503.4 84.5 503.6 C 85.6 504.0 86.2 504.2 86.3 504.2 C 86.3 504.2 92.3 507.5 92.3 507.5 C 92.3 507.5 88.1 509.5 88.1 509.5 C 87.4 509.5 86.6 509.8 85.6 510.4 C 85.4 510.7 85.3 511.1 85.3 511.4 C 85.3 512.4 85.9 513.4 87.1 514.3 C 88.3 515.3 89.5 515.8 90.7 515.8 C 91.0 515.8 91.4 515.7 91.8 515.6 C 92.2 515.4 92.6 515.1 92.9 514.5 C 93.3 513.8 93.9 513.1 94.7 512.6 C 94.7 512.6 94.9 516.4 94.9 516.4 C 94.7 516.9 94.7 517.7 94.9 518.7 C 95.3 519.3 96.4 519.6 98.1 519.6 C 99.6 519.6 100.7 519.2 101.2 518.3 C 101.4 517.9 101.4 517.0 101.3 515.7 C 101.2 514.5 101.0 513.3 100.9 512.1 C 100.9 512.1 103.1 513.2 103.1 513.2 C 103.5 513.6 104.3 514.1 105.5 514.7 C 106.4 514.7 107.2 514.4 108.0 513.7 C 108.9 513.0 109.3 512.2 109.3 511.3 C 109.3 511.0 109.2 510.6 108.9 510.3 C 108.7 510.0 108.4 509.8 107.8 509.7 C 107.2 509.5 106.7 509.4 106.5 509.2 C 106.5 509.2 103.2 506.9 103.2 506.9 C 103.2 506.9 107.4 504.6 107.4 504.6 C 108.0 504.5 108.7 504.1 109.5 503.5 Z M 109.5 503.5 " fill="#3995D6"></path></g></g><text xml:space="preserve" font-family="ComicSansMS" font-size="36.0" fill="#858585" transform="matrix(1.00, 0.00, -0.00, -1.00, 118.0, 492.0)">D</text><text xml:space="preserve" font-family="ComicSansMS" font-size="36.0" fill="#858585" transform="matrix(1.00, 0.00, -0.00, -1.00, 144.0, 492.0)">o</text><text xml:space="preserve" font-family="ComicSansMS" font-size="36.0" fill="#858585" transform="matrix(1.00, 0.00, -0.00, -1.00, 162.9, 492.0)">w</text><text xml:space="preserve" font-family="ComicSansMS" font-size="36.0" fill="#858585" transform="matrix(1.00, 0.00, -0.00, -1.00, 187.5, 492.0)">n</text><text xml:space="preserve" font-family="ComicSansMS" font-size="36.0" fill="#858585" transform="matrix(1.00, 0.00, -0.00, -1.00, 206.4, 492.0)">l</text><text xml:space="preserve" font-family="ComicSansMS" font-size="36.0" fill="#858585" transform="matrix(1.00, 0.00, -0.00, -1.00, 216.2, 492.0)">o</text><text xml:space="preserve" font-family="ComicSansMS" font-size="36.0" fill="#858585" transform="matrix(1.00, 0.00, -0.00, -1.00, 235.1, 492.0)">a</text><text xml:space="preserve" font-family="ComicSansMS" font-size="36.0" fill="#858585" transform="matrix(1.00, 0.00, -0.00, -1.00, 253.6, 492.0)">d</text><text xml:space="preserve" font-family="ComicSansMS" font-size="36.0" fill="#858585" transform="matrix(1.00, 0.00, -0.00, -1.00, 274.7, 492.0)"> </text><text xml:space="preserve" font-family="ComicSansMS" font-size="36.0" fill="#858585" transform="matrix(1.00, 0.00, -0.00, -1.00, 285.5, 492.0)">+</text><text xml:space="preserve" font-family="ComicSansMS" font-size="36.0" fill="#858585" transform="matrix(1.00, 0.00, -0.00, -1.00, 302.8, 492.0)"> </text><text xml:space="preserve" font-family="ComicSansMS" font-size="36.0" fill="#858585" transform="matrix(1.00, 0.00, -0.00, -1.00, 313.5, 492.0)">i</text><text xml:space="preserve" font-family="ComicSansMS" font-size="36.0" fill="#858585" transform="matrix(1.00, 0.00, -0.00, -1.00, 323.7, 492.0)">n</text><text xml:space="preserve" font-family="ComicSansMS" font-size="36.0" fill="#858585" transform="matrix(1.00, 0.00, -0.00, -1.00, 342.5, 492.0)">s</text><text xml:space="preserve" font-family="ComicSansMS" font-size="36.0" fill="#858585" transform="matrix(1.00, 0.00, -0.00, -1.00, 360.0, 492.0)">t</text><text xml:space="preserve" font-family="ComicSansMS" font-size="36.0" fill="#858585" transform="matrix(1.00, 0.00, -0.00, -1.00, 377.0, 492.0)">a</text><text xml:space="preserve" font-family="ComicSansMS" font-size="36.0" fill="#858585" transform="matrix(1.00, 0.00, -0.00, -1.00, 395.4, 492.0)">l</text><text xml:space="preserve" font-family="ComicSansMS" font-size="36.0" fill="#858585" transform="matrix(1.00, 0.00, -0.00, -1.00, 405.3, 492.0)">l</text><text xml:space="preserve" font-family="ComicSansMS" font-size="36.0" fill="#858585" transform="matrix(1.00, 0.00, -0.00, -1.00, 415.1, 492.0)"> </text><text xml:space="preserve" font-family="ComicSansMS" font-size="36.0" fill="#858585" transform="matrix(1.00, 0.00, -0.00, -1.00, 118.0, 442.0)">C</text><text xml:space="preserve" font-family="ComicSansMS" font-size="36.0" fill="#858585" transform="matrix(1.00, 0.00, -0.00, -1.00, 139.7, 442.0)">h</text><text xml:space="preserve" font-family="ComicSansMS" font-size="36.0" fill="#858585" transform="matrix(1.00, 0.00, -0.00, -1.00, 160.5, 442.0)">a</text><text xml:space="preserve" font-family="ComicSansMS" font-size="36.0" fill="#858585" transform="matrix(1.00, 0.00, -0.00, -1.00, 178.9, 442.0)">r</text><text xml:space="preserve" font-family="ComicSansMS" font-size="36.0" fill="#858585" transform="matrix(1.00, 0.00, -0.00, -1.00, 196.2, 442.0)">l</text><text xml:space="preserve" font-family="ComicSansMS" font-size="36.0" fill="#858585" transform="matrix(1.00, 0.00, -0.00, -1.00, 206.0, 442.0)">e</text><text xml:space="preserve" font-family="ComicSansMS" font-size="36.0" fill="#858585" transform="matrix(1.00, 0.00, -0.00, -1.00, 225.7, 442.0)">s</text><text xml:space="preserve" font-family="ComicSansMS" font-size="36.0" fill="#858585" transform="matrix(1.00, 0.00, -0.00, -1.00, 243.2, 442.0)"> </text><text xml:space="preserve" font-family="ComicSansMS" font-size="36.0" fill="#858585" transform="matrix(1.00, 0.00, -0.00, -1.00, 254.0, 442.0)">P</text><text xml:space="preserve" font-family="ComicSansMS" font-size="36.0" fill="#858585" transform="matrix(1.00, 0.00, -0.00, -1.00, 272.7, 442.0)">r</text><text xml:space="preserve" font-family="ComicSansMS" font-size="36.0" fill="#858585" transform="matrix(1.00, 0.00, -0.00, -1.00, 290.0, 442.0)">o</text><text xml:space="preserve" font-family="ComicSansMS" font-size="36.0" fill="#858585" transform="matrix(1.00, 0.00, -0.00, -1.00, 308.9, 442.0)">x</text><text xml:space="preserve" font-family="ComicSansMS" font-size="36.0" fill="#858585" transform="matrix(1.00, 0.00, -0.00, -1.00, 330.2, 442.0)">y</text><text xml:space="preserve" font-family="ComicSansMS" font-size="36.0" fill="#858585" transform="matrix(1.00, 0.00, -0.00, -1.00, 348.9, 442.0)"> </text><g><clipPath id="clip-465"><path d="M 83.0 356.5 L 109.9 356.5 L 109.9 381.6 L 83.0 381.6 Z M 83.0 356.5 "></path></clipPath><g clip-path="url(#clip-465)"><path d="M 109.5 365.5 C 109.8 365.2 109.9 364.8 109.9 364.4 C 109.9 363.6 109.4 362.8 108.5 362.1 C 107.7 361.5 106.6 361.1 105.5 361.1 C 104.1 361.1 102.4 362.2 100.4 364.4 C 100.4 364.4 100.4 361.1 100.4 361.1 C 100.4 360.8 100.5 360.4 100.7 360.0 C 100.9 359.5 101.0 359.2 101.0 359.0 C 101.0 358.3 100.6 357.7 99.9 357.3 C 99.2 356.8 98.6 356.5 97.9 356.5 C 96.7 356.5 95.6 357.1 94.7 358.1 C 94.4 358.4 94.4 359.3 94.5 360.7 C 94.5 362.2 94.6 363.7 94.7 365.1 C 94.0 364.6 92.5 363.8 90.4 362.7 C 90.2 362.3 89.3 361.8 87.9 361.3 C 86.8 361.2 85.8 361.4 84.7 361.9 C 83.6 362.4 83.0 363.1 83.0 364.0 C 83.0 364.2 83.1 364.4 83.2 364.6 C 83.4 365.1 83.8 365.4 84.5 365.6 C 85.6 366.0 86.2 366.2 86.3 366.2 C 86.3 366.2 92.3 369.5 92.3 369.5 C 92.3 369.5 88.1 371.5 88.1 371.5 C 87.4 371.5 86.6 371.8 85.6 372.4 C 85.4 372.7 85.3 373.1 85.3 373.4 C 85.3 374.4 85.9 375.4 87.1 376.3 C 88.3 377.3 89.5 377.8 90.7 377.8 C 91.0 377.8 91.4 377.7 91.8 377.6 C 92.2 377.4 92.6 377.1 92.9 376.5 C 93.3 375.8 93.9 375.1 94.7 374.6 C 94.7 374.6 94.9 378.4 94.9 378.4 C 94.7 378.9 94.7 379.7 94.9 380.7 C 95.3 381.3 96.4 381.6 98.1 381.6 C 99.6 381.6 100.7 381.2 101.2 380.3 C 101.4 379.9 101.4 379.0 101.3 377.7 C 101.2 376.5 101.0 375.3 100.9 374.1 C 100.9 374.1 103.1 375.2 103.1 375.2 C 103.5 375.6 104.3 376.1 105.5 376.7 C 106.4 376.7 107.2 376.4 108.0 375.7 C 108.9 375.0 109.3 374.2 109.3 373.3 C 109.3 373.0 109.2 372.6 108.9 372.3 C 108.7 372.0 108.4 371.8 107.8 371.7 C 107.2 371.5 106.7 371.4 106.5 371.2 C 106.5 371.2 103.2 368.9 103.2 368.9 C 103.2 368.9 107.4 366.6 107.4 366.6 C 108.0 366.5 108.7 366.1 109.5 365.5 Z M 109.5 365.5 " fill="#3995D6"></path></g></g><text xml:space="preserve" font-family="ComicSansMS" font-size="36.0" fill="#858585" transform="matrix(1.00, 0.00, -0.00, -1.00, 118.0, 354.0)">O</text><text xml:space="preserve" font-family="ComicSansMS" font-size="36.0" fill="#858585" transform="matrix(1.00, 0.00, -0.00, -1.00, 146.8, 354.0)">p</text><text xml:space="preserve" font-family="ComicSansMS" font-size="36.0" fill="#858585" transform="matrix(1.00, 0.00, -0.00, -1.00, 166.0, 354.0)">e</text><text xml:space="preserve" font-family="ComicSansMS" font-size="36.0" fill="#858585" transform="matrix(1.00, 0.00, -0.00, -1.00, 185.7, 354.0)">n</text><text xml:space="preserve" font-family="ComicSansMS" font-size="36.0" fill="#858585" transform="matrix(1.00, 0.00, -0.00, -1.00, 204.6, 354.0)"> </text><text xml:space="preserve" font-family="ComicSansMS" font-size="36.0" fill="#858585" transform="matrix(1.00, 0.00, -0.00, -1.00, 215.3, 354.0)">i</text><text xml:space="preserve" font-family="ComicSansMS" font-size="36.0" fill="#858585" transform="matrix(1.00, 0.00, -0.00, -1.00, 225.4, 354.0)">t</text><text xml:space="preserve" font-family="ComicSansMS" font-size="36.0" fill="#858585" transform="matrix(1.00, 0.00, -0.00, -1.00, 242.4, 354.0)"> </text><text xml:space="preserve" font-family="ComicSansMS" font-size="36.0" fill="#858585" transform="matrix(1.00, 0.00, -0.00, -1.00, 253.1, 354.0)">u</text><text xml:space="preserve" font-family="ComicSansMS" font-size="36.0" fill="#858585" transform="matrix(1.00, 0.00, -0.00, -1.00, 271.9, 354.0)">p</text><text xml:space="preserve" font-family="ComicSansMS" font-size="36.0" fill="#858585" transform="matrix(1.00, 0.00, -0.00, -1.00, 291.1, 354.0)"> </text><g><clipPath id="clip-466"><path d="M 83.0 268.5 L 109.9 268.5 L 109.9 293.6 L 83.0 293.6 Z M 83.0 268.5 "></path></clipPath><g clip-path="url(#clip-466)"><path d="M 109.5 277.5 C 109.8 277.2 109.9 276.8 109.9 276.4 C 109.9 275.6 109.4 274.8 108.5 274.1 C 107.7 273.5 106.6 273.1 105.5 273.1 C 104.1 273.1 102.4 274.2 100.4 276.4 C 100.4 276.4 100.4 273.1 100.4 273.1 C 100.4 272.8 100.5 272.4 100.7 272.0 C 100.9 271.5 101.0 271.2 101.0 271.0 C 101.0 270.3 100.6 269.7 99.9 269.3 C 99.2 268.8 98.6 268.5 97.9 268.5 C 96.7 268.5 95.6 269.1 94.7 270.1 C 94.4 270.4 94.4 271.3 94.5 272.7 C 94.5 274.2 94.6 275.7 94.7 277.1 C 94.0 276.6 92.5 275.8 90.4 274.7 C 90.2 274.3 89.3 273.8 87.9 273.3 C 86.8 273.2 85.8 273.4 84.7 273.9 C 83.6 274.4 83.0 275.1 83.0 276.0 C 83.0 276.2 83.1 276.4 83.2 276.6 C 83.4 277.1 83.8 277.4 84.5 277.6 C 85.6 278.0 86.2 278.2 86.3 278.2 C 86.3 278.2 92.3 281.5 92.3 281.5 C 92.3 281.5 88.1 283.5 88.1 283.5 C 87.4 283.5 86.6 283.8 85.6 284.4 C 85.4 284.7 85.3 285.1 85.3 285.4 C 85.3 286.4 85.9 287.4 87.1 288.3 C 88.3 289.3 89.5 289.8 90.7 289.8 C 91.0 289.8 91.4 289.7 91.8 289.6 C 92.2 289.4 92.6 289.1 92.9 288.5 C 93.3 287.8 93.9 287.1 94.7 286.6 C 94.7 286.6 94.9 290.4 94.9 290.4 C 94.7 290.9 94.7 291.7 94.9 292.7 C 95.3 293.3 96.4 293.6 98.1 293.6 C 99.6 293.6 100.7 293.2 101.2 292.3 C 101.4 291.9 101.4 291.0 101.3 289.7 C 101.2 288.5 101.0 287.3 100.9 286.1 C 100.9 286.1 103.1 287.2 103.1 287.2 C 103.5 287.6 104.3 288.1 105.5 288.7 C 106.4 288.7 107.2 288.4 108.0 287.7 C 108.9 287.0 109.3 286.2 109.3 285.3 C 109.3 285.0 109.2 284.6 108.9 284.3 C 108.7 284.0 108.4 283.8 107.8 283.7 C 107.2 283.5 106.7 283.4 106.5 283.2 C 106.5 283.2 103.2 280.9 103.2 280.9 C 103.2 280.9 107.4 278.6 107.4 278.6 C 108.0 278.5 108.7 278.1 109.5 277.5 Z M 109.5 277.5 " fill="#3995D6"></path></g></g><text xml:space="preserve" font-family="ComicSansMS" font-size="36.0" fill="#858585" transform="matrix(1.00, 0.00, -0.00, -1.00, 118.0, 266.0)">C</text><text xml:space="preserve" font-family="ComicSansMS" font-size="36.0" fill="#858585" transform="matrix(1.00, 0.00, -0.00, -1.00, 139.7, 266.0)">l</text><text xml:space="preserve" font-family="ComicSansMS" font-size="36.0" fill="#858585" transform="matrix(1.00, 0.00, -0.00, -1.00, 149.5, 266.0)">i</text><text xml:space="preserve" font-family="ComicSansMS" font-size="36.0" fill="#858585" transform="matrix(1.00, 0.00, -0.00, -1.00, 159.6, 266.0)">c</text><text xml:space="preserve" font-family="ComicSansMS" font-size="36.0" fill="#858585" transform="matrix(1.00, 0.00, -0.00, -1.00, 178.1, 266.0)">k</text><text xml:space="preserve" font-family="ComicSansMS" font-size="36.0" fill="#858585" transform="matrix(1.00, 0.00, -0.00, -1.00, 197.6, 266.0)"> </text><text xml:space="preserve" font-family="ComicSansMS" font-size="36.0" fill="#858585" transform="matrix(1.00, 0.00, -0.00, -1.00, 208.3, 266.0)">t</text><text xml:space="preserve" font-family="ComicSansMS" font-size="36.0" fill="#858585" transform="matrix(1.00, 0.00, -0.00, -1.00, 225.3, 266.0)">h</text><text xml:space="preserve" font-family="ComicSansMS" font-size="36.0" fill="#858585" transform="matrix(1.00, 0.00, -0.00, -1.00, 246.1, 266.0)">e</text><text xml:space="preserve" font-family="ComicSansMS" font-size="36.0" fill="#858585" transform="matrix(1.00, 0.00, -0.00, -1.00, 265.8, 266.0)"> </text><text xml:space="preserve" font-family="ComicSansMS" font-size="36.0" fill="#858585" transform="matrix(1.00, 0.00, -0.00, -1.00, 276.5, 266.0)">R</text><text xml:space="preserve" font-family="ComicSansMS" font-size="36.0" fill="#858585" transform="matrix(1.00, 0.00, -0.00, -1.00, 299.2, 266.0)">e</text><text xml:space="preserve" font-family="ComicSansMS" font-size="36.0" fill="#858585" transform="matrix(1.00, 0.00, -0.00, -1.00, 318.9, 266.0)">c</text><text xml:space="preserve" font-family="ComicSansMS" font-size="36.0" fill="#858585" transform="matrix(1.00, 0.00, -0.00, -1.00, 337.4, 266.0)">o</text><text xml:space="preserve" font-family="ComicSansMS" font-size="36.0" fill="#858585" transform="matrix(1.00, 0.00, -0.00, -1.00, 356.3, 266.0)">r</text><text xml:space="preserve" font-family="ComicSansMS" font-size="36.0" fill="#858585" transform="matrix(1.00, 0.00, -0.00, -1.00, 373.6, 266.0)">d</text><text xml:space="preserve" font-family="ComicSansMS" font-size="36.0" fill="#858585" transform="matrix(1.00, 0.00, -0.00, -1.00, 394.8, 266.0)"> </text><text xml:space="preserve" font-family="ComicSansMS" font-size="36.0" fill="#858585" transform="matrix(1.00, 0.00, -0.00, -1.00, 118.0, 216.0)">b</text><text xml:space="preserve" font-family="ComicSansMS" font-size="36.0" fill="#858585" transform="matrix(1.00, 0.00, -0.00, -1.00, 139.4, 216.0)">u</text><text xml:space="preserve" font-family="ComicSansMS" font-size="36.0" fill="#858585" transform="matrix(1.00, 0.00, -0.00, -1.00, 158.1, 216.0)">t</text><text xml:space="preserve" font-family="ComicSansMS" font-size="36.0" fill="#858585" transform="matrix(1.00, 0.00, -0.00, -1.00, 175.1, 216.0)">t</text><text xml:space="preserve" font-family="ComicSansMS" font-size="36.0" fill="#858585" transform="matrix(1.00, 0.00, -0.00, -1.00, 192.0, 216.0)">o</text><text xml:space="preserve" font-family="ComicSansMS" font-size="36.0" fill="#858585" transform="matrix(1.00, 0.00, -0.00, -1.00, 211.0, 216.0)">n</text><text xml:space="preserve" font-family="ComicSansMS" font-size="36.0" fill="#858585" transform="matrix(1.00, 0.00, -0.00, -1.00, 229.8, 216.0)"> </text><text xml:space="preserve" font-family="ComicSansMS" font-size="36.0" fill="#858585" transform="matrix(1.00, 0.00, -0.00, -1.00, 240.6, 216.0)">(</text><text xml:space="preserve" font-family="ComicSansMS" font-size="36.0" fill="#858585" transform="matrix(1.00, 0.00, -0.00, -1.00, 253.8, 216.0)">t</text><text xml:space="preserve" font-family="ComicSansMS" font-size="36.0" fill="#858585" transform="matrix(1.00, 0.00, -0.00, -1.00, 270.7, 216.0)">i</text><text xml:space="preserve" font-family="ComicSansMS" font-size="36.0" fill="#858585" transform="matrix(1.00, 0.00, -0.00, -1.00, 280.8, 216.0)">n</text><text xml:space="preserve" font-family="ComicSansMS" font-size="36.0" fill="#858585" transform="matrix(1.00, 0.00, -0.00, -1.00, 299.7, 216.0)">y</text><text xml:space="preserve" font-family="ComicSansMS" font-size="36.0" fill="#858585" transform="matrix(1.00, 0.00, -0.00, -1.00, 318.4, 216.0)"> </text><text xml:space="preserve" font-family="ComicSansMS" font-size="36.0" fill="#858585" transform="matrix(1.00, 0.00, -0.00, -1.00, 329.2, 216.0)">c</text><text xml:space="preserve" font-family="ComicSansMS" font-size="36.0" fill="#858585" transform="matrix(1.00, 0.00, -0.00, -1.00, 347.6, 216.0)">i</text><text xml:space="preserve" font-family="ComicSansMS" font-size="36.0" fill="#858585" transform="matrix(1.00, 0.00, -0.00, -1.00, 357.7, 216.0)">r</text><text xml:space="preserve" font-family="ComicSansMS" font-size="36.0" fill="#858585" transform="matrix(1.00, 0.00, -0.00, -1.00, 375.1, 216.0)">c</text><text xml:space="preserve" font-family="ComicSansMS" font-size="36.0" fill="#858585" transform="matrix(1.00, 0.00, -0.00, -1.00, 393.5, 216.0)">l</text><text xml:space="preserve" font-family="ComicSansMS" font-size="36.0" fill="#858585" transform="matrix(1.00, 0.00, -0.00, -1.00, 403.4, 216.0)">e</text><text xml:space="preserve" font-family="ComicSansMS" font-size="36.0" fill="#858585" transform="matrix(1.00, 0.00, -0.00, -1.00, 423.1, 216.0)">)</text><text xml:space="preserve" font-family="ComicSansMS" font-size="36.0" fill="#858585" transform="matrix(1.00, 0.00, -0.00, -1.00, 436.3, 216.0)"> </text><g><clipPath id="clip-467"><path d="M 83.0 130.5 L 109.9 130.5 L 109.9 155.6 L 83.0 155.6 Z M 83.0 130.5 "></path></clipPath><g clip-path="url(#clip-467)"><path d="M 109.5 139.5 C 109.8 139.2 109.9 138.8 109.9 138.4 C 109.9 137.6 109.4 136.8 108.5 136.1 C 107.7 135.5 106.6 135.1 105.5 135.1 C 104.1 135.1 102.4 136.2 100.4 138.4 C 100.4 138.4 100.4 135.1 100.4 135.1 C 100.4 134.8 100.5 134.4 100.7 134.0 C 100.9 133.5 101.0 133.2 101.0 133.0 C 101.0 132.3 100.6 131.7 99.9 131.3 C 99.2 130.8 98.6 130.5 97.9 130.5 C 96.7 130.5 95.6 131.1 94.7 132.1 C 94.4 132.4 94.4 133.3 94.5 134.7 C 94.5 136.2 94.6 137.7 94.7 139.1 C 94.0 138.6 92.5 137.8 90.4 136.7 C 90.2 136.3 89.3 135.8 87.9 135.3 C 86.8 135.2 85.8 135.4 84.7 135.9 C 83.6 136.4 83.0 137.1 83.0 138.0 C 83.0 138.2 83.1 138.4 83.2 138.6 C 83.4 139.1 83.8 139.4 84.5 139.6 C 85.6 140.0 86.2 140.2 86.3 140.2 C 86.3 140.2 92.3 143.5 92.3 143.5 C 92.3 143.5 88.1 145.5 88.1 145.5 C 87.4 145.5 86.6 145.8 85.6 146.4 C 85.4 146.7 85.3 147.1 85.3 147.4 C 85.3 148.4 85.9 149.4 87.1 150.3 C 88.3 151.3 89.5 151.8 90.7 151.8 C 91.0 151.8 91.4 151.7 91.8 151.6 C 92.2 151.4 92.6 151.1 92.9 150.5 C 93.3 149.8 93.9 149.1 94.7 148.6 C 94.7 148.6 94.9 152.4 94.9 152.4 C 94.7 152.9 94.7 153.7 94.9 154.7 C 95.3 155.3 96.4 155.6 98.1 155.6 C 99.6 155.6 100.7 155.2 101.2 154.3 C 101.4 153.9 101.4 153.0 101.3 151.7 C 101.2 150.5 101.0 149.3 100.9 148.1 C 100.9 148.1 103.1 149.2 103.1 149.2 C 103.5 149.6 104.3 150.1 105.5 150.7 C 106.4 150.7 107.2 150.4 108.0 149.7 C 108.9 149.0 109.3 148.2 109.3 147.3 C 109.3 147.0 109.2 146.6 108.9 146.3 C 108.7 146.0 108.4 145.8 107.8 145.7 C 107.2 145.5 106.7 145.4 106.5 145.2 C 106.5 145.2 103.2 142.9 103.2 142.9 C 103.2 142.9 107.4 140.6 107.4 140.6 C 108.0 140.5 108.7 140.1 109.5 139.5 Z M 109.5 139.5 " fill="#3995D6"></path></g></g><text xml:space="preserve" font-family="ComicSansMS" font-size="36.0" fill="#858585" transform="matrix(1.00, 0.00, -0.00, -1.00, 118.0, 128.0)">K</text><text xml:space="preserve" font-family="ComicSansMS" font-size="36.0" fill="#858585" transform="matrix(1.00, 0.00, -0.00, -1.00, 140.0, 128.0)">e</text><text xml:space="preserve" font-family="ComicSansMS" font-size="36.0" fill="#858585" transform="matrix(1.00, 0.00, -0.00, -1.00, 159.7, 128.0)">e</text><text xml:space="preserve" font-family="ComicSansMS" font-size="36.0" fill="#858585" transform="matrix(1.00, 0.00, -0.00, -1.00, 179.4, 128.0)">p</text><text xml:space="preserve" font-family="ComicSansMS" font-size="36.0" fill="#858585" transform="matrix(1.00, 0.00, -0.00, -1.00, 198.7, 128.0)"> </text><text xml:space="preserve" font-family="ComicSansMS" font-size="36.0" fill="#858585" transform="matrix(1.00, 0.00, -0.00, -1.00, 209.4, 128.0)">i</text><text xml:space="preserve" font-family="ComicSansMS" font-size="36.0" fill="#858585" transform="matrix(1.00, 0.00, -0.00, -1.00, 219.5, 128.0)">t</text><text xml:space="preserve" font-family="ComicSansMS" font-size="36.0" fill="#858585" transform="matrix(1.00, 0.00, -0.00, -1.00, 236.5, 128.0)"> </text><text xml:space="preserve" font-family="ComicSansMS" font-size="36.0" fill="#858585" transform="matrix(1.00, 0.00, -0.00, -1.00, 247.2, 128.0)">o</text><text xml:space="preserve" font-family="ComicSansMS" font-size="36.0" fill="#858585" transform="matrix(1.00, 0.00, -0.00, -1.00, 266.2, 128.0)">p</text><text xml:space="preserve" font-family="ComicSansMS" font-size="36.0" fill="#858585" transform="matrix(1.00, 0.00, -0.00, -1.00, 285.4, 128.0)">e</text><text xml:space="preserve" font-family="ComicSansMS" font-size="36.0" fill="#858585" transform="matrix(1.00, 0.00, -0.00, -1.00, 305.1, 128.0)">n</text><image xlink:href="03B045C24DE8A4466293C8F61D895A75.png" width="511.00" height="349.00" transform="matrix(1.00, 0.00, -0.00, -1.00, 487.0, 506.0)"></image><text xml:space="preserve" font-family="ComicSansMS" font-size="20.0" fill="#858484" transform="matrix(1.00, 0.00, -0.00, -1.00, 369.0, 611.0)">h</text><text xml:space="preserve" font-family="ComicSansMS" font-size="20.0" fill="#858484" transform="matrix(1.00, 0.00, -0.00, -1.00, 380.5, 611.0)">t</text><text xml:space="preserve" font-family="ComicSansMS" font-size="20.0" fill="#858484" transform="matrix(1.00, 0.00, -0.00, -1.00, 390.0, 611.0)">t</text><text xml:space="preserve" font-family="ComicSansMS" font-size="20.0" fill="#858484" transform="matrix(1.00, 0.00, -0.00, -1.00, 399.4, 611.0)">p</text><text xml:space="preserve" font-family="ComicSansMS" font-size="20.0" fill="#858484" transform="matrix(1.00, 0.00, -0.00, -1.00, 410.1, 611.0)">s</text><text xml:space="preserve" font-family="ComicSansMS" font-size="20.0" fill="#858484" transform="matrix(1.00, 0.00, -0.00, -1.00, 419.8, 611.0)">:</text><text xml:space="preserve" font-family="ComicSansMS" font-size="20.0" fill="#858484" transform="matrix(1.00, 0.00, -0.00, -1.00, 425.8, 611.0)">/</text><text xml:space="preserve" font-family="ComicSansMS" font-size="20.0" fill="#858484" transform="matrix(1.00, 0.00, -0.00, -1.00, 436.0, 611.0)">/</text><text xml:space="preserve" font-family="ComicSansMS" font-size="20.0" fill="#858484" transform="matrix(1.00, 0.00, -0.00, -1.00, 446.2, 611.0)">w</text><text xml:space="preserve" font-family="ComicSansMS" font-size="20.0" fill="#858484" transform="matrix(1.00, 0.00, -0.00, -1.00, 459.9, 611.0)">w</text><text xml:space="preserve" font-family="ComicSansMS" font-size="20.0" fill="#858484" transform="matrix(1.00, 0.00, -0.00, -1.00, 473.6, 611.0)">w</text><text xml:space="preserve" font-family="ComicSansMS" font-size="20.0" fill="#858484" transform="matrix(1.00, 0.00, -0.00, -1.00, 487.3, 611.0)">.</text><text xml:space="preserve" font-family="ComicSansMS" font-size="20.0" fill="#858484" transform="matrix(1.00, 0.00, -0.00, -1.00, 492.3, 611.0)">c</text><text xml:space="preserve" font-family="ComicSansMS" font-size="20.0" fill="#858484" transform="matrix(1.00, 0.00, -0.00, -1.00, 502.5, 611.0)">h</text><text xml:space="preserve" font-family="ComicSansMS" font-size="20.0" fill="#858484" transform="matrix(1.00, 0.00, -0.00, -1.00, 514.1, 611.0)">a</text><text xml:space="preserve" font-family="ComicSansMS" font-size="20.0" fill="#858484" transform="matrix(1.00, 0.00, -0.00, -1.00, 524.3, 611.0)">r</text><text xml:space="preserve" font-family="ComicSansMS" font-size="20.0" fill="#858484" transform="matrix(1.00, 0.00, -0.00, -1.00, 533.9, 611.0)">l</text><text xml:space="preserve" font-family="ComicSansMS" font-size="20.0" fill="#858484" transform="matrix(1.00, 0.00, -0.00, -1.00, 539.4, 611.0)">e</text><text xml:space="preserve" font-family="ComicSansMS" font-size="20.0" fill="#858484" transform="matrix(1.00, 0.00, -0.00, -1.00, 550.4, 611.0)">s</text><text xml:space="preserve" font-family="ComicSansMS" font-size="20.0" fill="#858484" transform="matrix(1.00, 0.00, -0.00, -1.00, 560.1, 611.0)">p</text><text xml:space="preserve" font-family="ComicSansMS" font-size="20.0" fill="#858484" transform="matrix(1.00, 0.00, -0.00, -1.00, 570.8, 611.0)">r</text><text xml:space="preserve" font-family="ComicSansMS" font-size="20.0" fill="#858484" transform="matrix(1.00, 0.00, -0.00, -1.00, 580.4, 611.0)">o</text><text xml:space="preserve" font-family="ComicSansMS" font-size="20.0" fill="#858484" transform="matrix(1.00, 0.00, -0.00, -1.00, 590.9, 611.0)">x</text><text xml:space="preserve" font-family="ComicSansMS" font-size="20.0" fill="#858484" transform="matrix(1.00, 0.00, -0.00, -1.00, 602.7, 611.0)">y</text><text xml:space="preserve" font-family="ComicSansMS" font-size="20.0" fill="#858484" transform="matrix(1.00, 0.00, -0.00, -1.00, 613.1, 611.0)">.</text><text xml:space="preserve" font-family="ComicSansMS" font-size="20.0" fill="#858484" transform="matrix(1.00, 0.00, -0.00, -1.00, 618.1, 611.0)">c</text><text xml:space="preserve" font-family="ComicSansMS" font-size="20.0" fill="#858484" transform="matrix(1.00, 0.00, -0.00, -1.00, 628.4, 611.0)">o</text><text xml:space="preserve" font-family="ComicSansMS" font-size="20.0" fill="#858484" transform="matrix(1.00, 0.00, -0.00, -1.00, 638.9, 611.0)">m</text><g><clipPath id="clip-468"><path d="M 368.3 606.3 L 654.7 606.3 L 654.7 610.0 L 368.3 610.0 Z M 368.3 606.3 "></path></clipPath><g clip-path="url(#clip-468)"><path d="M 4.5 28.8 L 290.0 28.8 " fill="none" stroke="#858484" stroke-width="1.71" stroke-miterlimit="0.00" transform="matrix(1.00, 0.00, 0.00, -1.00, 364.8, 637.0)"></path></g></g></g></svg>