<?xml version="1.0" encoding="UTF-8" standalone="no"?><svg xmlns="http://www.w3.org/2000/svg" xmlns:xlink="http://www.w3.org/1999/xlink" clip-rule="evenodd" stroke-miterlimit="4.00" viewBox="0 0 1024 768"><desc>SVG generated by Keynote</desc><defs></defs><g transform="matrix(1.00, 0.00, -0.00, -1.00, 0.0, 768.0)"><g><clipPath id="clip-326"><path d="M 0.0 768.0 L 1024.0 768.0 L 1024.0 0.0 L 0.0 0.0 Z M 0.0 768.0 "></path></clipPath><g clip-path="url(#clip-326)"><image xlink:href="../../AD43F5AB-7C1D-45DB-8B96-B58B9BFD50C8/assets/43DA95A1552523200D88D33196FD3A18.jpeg" width="1024.00" height="768.00" transform="matrix(1.00, 0.00, -0.00, -1.00, 0.0, 768.0)"></image></g></g><text xml:space="preserve" font-family="ComicSansMS-Bold" font-weight="bold" font-size="80.0" fill="#45A6DE" transform="matrix(1.00, 0.00, -0.00, -1.00, 300.0, 619.0)">T</text><text xml:space="preserve" font-family="ComicSansMS-Bold" font-weight="bold" font-size="80.0" fill="#45A6DE" transform="matrix(1.00, 0.00, -0.00, -1.00, 355.6, 619.0)">o</text><text xml:space="preserve" font-family="ComicSansMS-Bold" font-weight="bold" font-size="80.0" fill="#45A6DE" transform="matrix(1.00, 0.00, -0.00, -1.00, 397.7, 619.0)"> </text><text xml:space="preserve" font-family="ComicSansMS-Bold" font-weight="bold" font-size="80.0" fill="#45A6DE" transform="matrix(1.00, 0.00, -0.00, -1.00, 432.4, 619.0)">R</text><text xml:space="preserve" font-family="ComicSansMS-Bold" font-weight="bold" font-size="80.0" fill="#45A6DE" transform="matrix(1.00, 0.00, -0.00, -1.00, 483.6, 619.0)">e</text><text xml:space="preserve" font-family="ComicSansMS-Bold" font-weight="bold" font-size="80.0" fill="#45A6DE" transform="matrix(1.00, 0.00, -0.00, -1.00, 528.3, 619.0)">v</text><text xml:space="preserve" font-family="ComicSansMS-Bold" font-weight="bold" font-size="80.0" fill="#45A6DE" transform="matrix(1.00, 0.00, -0.00, -1.00, 567.2, 619.0)">i</text><text xml:space="preserve" font-family="ComicSansMS-Bold" font-weight="bold" font-size="80.0" fill="#45A6DE" transform="matrix(1.00, 0.00, -0.00, -1.00, 589.7, 619.0)">e</text><text xml:space="preserve" font-family="ComicSansMS-Bold" font-weight="bold" font-size="80.0" fill="#45A6DE" transform="matrix(1.00, 0.00, -0.00, -1.00, 634.4, 619.0)">w</text><text xml:space="preserve" font-family="ComicSansMS-Bold" font-weight="bold" font-size="80.0" fill="#45A6DE" transform="matrix(1.00, 0.00, -0.00, -1.00, 689.2, 619.0)">:</text><g><clipPath id="clip-327"><path d="M 104.0 509.1 L 128.9 509.1 L 128.9 532.3 L 104.0 532.3 Z M 104.0 509.1 "></path></clipPath><g clip-path="url(#clip-327)"><path d="M 128.5 517.4 C 128.8 517.1 128.9 516.7 128.9 516.3 C 128.9 515.6 128.5 514.9 127.6 514.3 C 126.8 513.6 125.9 513.3 124.8 513.3 C 123.5 513.3 121.9 514.3 120.1 516.3 C 120.1 516.3 120.1 513.3 120.1 513.3 C 120.1 513.0 120.2 512.7 120.3 512.3 C 120.5 511.8 120.6 511.5 120.6 511.3 C 120.6 510.7 120.3 510.2 119.7 509.7 C 119.0 509.3 118.4 509.1 117.8 509.1 C 116.6 509.1 115.7 509.6 114.8 510.5 C 114.6 510.8 114.5 511.6 114.6 512.9 C 114.7 514.3 114.7 515.7 114.8 517.0 C 114.1 516.5 112.8 515.8 110.9 514.8 C 110.6 514.4 109.9 514.0 108.5 513.5 C 107.6 513.4 106.6 513.6 105.5 514.1 C 104.5 514.5 104.0 515.2 104.0 515.9 C 104.0 516.1 104.0 516.3 104.1 516.5 C 104.3 517.0 104.8 517.3 105.4 517.5 C 106.4 517.8 107.0 518.0 107.1 518.1 C 107.1 518.1 112.6 521.0 112.6 521.0 C 112.6 521.0 108.7 522.9 108.7 522.9 C 108.1 522.9 107.3 523.2 106.4 523.7 C 106.2 524.0 106.1 524.4 106.1 524.7 C 106.1 525.6 106.7 526.5 107.8 527.4 C 108.9 528.3 110.0 528.7 111.1 528.7 C 111.4 528.7 111.8 528.7 112.2 528.5 C 112.5 528.4 112.9 528.1 113.1 527.5 C 113.5 526.9 114.0 526.3 114.8 525.8 C 114.8 525.8 115.0 529.3 115.0 529.3 C 114.8 529.8 114.8 530.5 115.0 531.4 C 115.4 532.0 116.4 532.3 118.0 532.3 C 119.4 532.3 120.3 531.9 120.8 531.0 C 121.0 530.7 121.0 529.9 120.9 528.6 C 120.8 527.5 120.7 526.4 120.5 525.3 C 120.5 525.3 122.6 526.3 122.6 526.3 C 123.0 526.7 123.7 527.2 124.8 527.7 C 125.6 527.7 126.4 527.4 127.2 526.8 C 127.9 526.1 128.3 525.4 128.3 524.6 C 128.3 524.3 128.2 524.0 128.0 523.7 C 127.8 523.4 127.5 523.2 127.0 523.1 C 126.3 522.9 125.9 522.8 125.7 522.7 C 125.7 522.7 122.7 520.5 122.7 520.5 C 122.7 520.5 126.6 518.4 126.6 518.4 C 127.1 518.3 127.7 517.9 128.5 517.4 Z M 128.5 517.4 " fill="#3995D6"></path></g></g><text xml:space="preserve" font-family="ComicSansMS" font-size="35.4" fill="#858585" transform="matrix(1.00, 0.00, -0.00, -1.00, 142.0, 506.0)">L</text><text xml:space="preserve" font-family="ComicSansMS" font-size="35.4" fill="#858585" transform="matrix(1.00, 0.00, -0.00, -1.00, 161.5, 506.0)">o</text><text xml:space="preserve" font-family="ComicSansMS" font-size="35.4" fill="#858585" transform="matrix(1.00, 0.00, -0.00, -1.00, 180.1, 506.0)">t</text><text xml:space="preserve" font-family="ComicSansMS" font-size="35.4" fill="#858585" transform="matrix(1.00, 0.00, -0.00, -1.00, 196.8, 506.0)">s</text><text xml:space="preserve" font-family="ComicSansMS" font-size="35.4" fill="#858585" transform="matrix(1.00, 0.00, -0.00, -1.00, 214.1, 506.0)"> </text><text xml:space="preserve" font-family="ComicSansMS" font-size="35.4" fill="#858585" transform="matrix(1.00, 0.00, -0.00, -1.00, 224.6, 506.0)">o</text><text xml:space="preserve" font-family="ComicSansMS" font-size="35.4" fill="#858585" transform="matrix(1.00, 0.00, -0.00, -1.00, 243.3, 506.0)">f</text><text xml:space="preserve" font-family="ComicSansMS" font-size="35.4" fill="#858585" transform="matrix(1.00, 0.00, -0.00, -1.00, 261.3, 506.0)"> </text><text xml:space="preserve" font-family="ComicSansMS" font-size="35.4" fill="#858585" transform="matrix(1.00, 0.00, -0.00, -1.00, 271.8, 506.0)">o</text><text xml:space="preserve" font-family="ComicSansMS" font-size="35.4" fill="#858585" transform="matrix(1.00, 0.00, -0.00, -1.00, 290.5, 506.0)">p</text><text xml:space="preserve" font-family="ComicSansMS" font-size="35.4" fill="#858585" transform="matrix(1.00, 0.00, -0.00, -1.00, 309.4, 506.0)">t</text><text xml:space="preserve" font-family="ComicSansMS" font-size="35.4" fill="#858585" transform="matrix(1.00, 0.00, -0.00, -1.00, 326.1, 506.0)">i</text><text xml:space="preserve" font-family="ComicSansMS" font-size="35.4" fill="#858585" transform="matrix(1.00, 0.00, -0.00, -1.00, 336.0, 506.0)">o</text><text xml:space="preserve" font-family="ComicSansMS" font-size="35.4" fill="#858585" transform="matrix(1.00, 0.00, -0.00, -1.00, 354.7, 506.0)">n</text><text xml:space="preserve" font-family="ComicSansMS" font-size="35.4" fill="#858585" transform="matrix(1.00, 0.00, -0.00, -1.00, 373.2, 506.0)">s</text><text xml:space="preserve" font-family="ComicSansMS" font-size="35.4" fill="#858585" transform="matrix(1.00, 0.00, -0.00, -1.00, 390.4, 506.0)"> </text><text xml:space="preserve" font-family="ComicSansMS" font-size="35.4" fill="#858585" transform="matrix(1.00, 0.00, -0.00, -1.00, 401.0, 506.0)">t</text><text xml:space="preserve" font-family="ComicSansMS" font-size="35.4" fill="#858585" transform="matrix(1.00, 0.00, -0.00, -1.00, 417.7, 506.0)">o</text><text xml:space="preserve" font-family="ComicSansMS" font-size="35.4" fill="#858585" transform="matrix(1.00, 0.00, -0.00, -1.00, 436.3, 506.0)"> </text><text xml:space="preserve" font-family="ComicSansMS" font-size="35.4" fill="#858585" transform="matrix(1.00, 0.00, -0.00, -1.00, 446.9, 506.0)">d</text><text xml:space="preserve" font-family="ComicSansMS" font-size="35.4" fill="#858585" transform="matrix(1.00, 0.00, -0.00, -1.00, 467.7, 506.0)">e</text><text xml:space="preserve" font-family="ComicSansMS" font-size="35.4" fill="#858585" transform="matrix(1.00, 0.00, -0.00, -1.00, 487.1, 506.0)">b</text><text xml:space="preserve" font-family="ComicSansMS" font-size="35.4" fill="#858585" transform="matrix(1.00, 0.00, -0.00, -1.00, 508.2, 506.0)">u</text><text xml:space="preserve" font-family="ComicSansMS" font-size="35.4" fill="#858585" transform="matrix(1.00, 0.00, -0.00, -1.00, 526.6, 506.0)">g</text><text xml:space="preserve" font-family="ComicSansMS" font-size="35.4" fill="#858585" transform="matrix(1.00, 0.00, -0.00, -1.00, 545.4, 506.0)"> </text><text xml:space="preserve" font-family="ComicSansMS" font-size="35.4" fill="#858585" transform="matrix(1.00, 0.00, -0.00, -1.00, 556.0, 506.0)">A</text><text xml:space="preserve" font-family="ComicSansMS" font-size="35.4" fill="#858585" transform="matrix(1.00, 0.00, -0.00, -1.00, 581.9, 506.0)">n</text><text xml:space="preserve" font-family="ComicSansMS" font-size="35.4" fill="#858585" transform="matrix(1.00, 0.00, -0.00, -1.00, 600.4, 506.0)">d</text><text xml:space="preserve" font-family="ComicSansMS" font-size="35.4" fill="#858585" transform="matrix(1.00, 0.00, -0.00, -1.00, 621.3, 506.0)">r</text><text xml:space="preserve" font-family="ComicSansMS" font-size="35.4" fill="#858585" transform="matrix(1.00, 0.00, -0.00, -1.00, 638.3, 506.0)">o</text><text xml:space="preserve" font-family="ComicSansMS" font-size="35.4" fill="#858585" transform="matrix(1.00, 0.00, -0.00, -1.00, 656.9, 506.0)">i</text><text xml:space="preserve" font-family="ComicSansMS" font-size="35.4" fill="#858585" transform="matrix(1.00, 0.00, -0.00, -1.00, 666.9, 506.0)">d</text><text xml:space="preserve" font-family="ComicSansMS" font-size="35.4" fill="#858585" transform="matrix(1.00, 0.00, -0.00, -1.00, 687.7, 506.0)"> </text><text xml:space="preserve" font-family="ComicSansMS" font-size="35.4" fill="#858585" transform="matrix(1.00, 0.00, -0.00, -1.00, 698.2, 506.0)">b</text><text xml:space="preserve" font-family="ComicSansMS" font-size="35.4" fill="#858585" transform="matrix(1.00, 0.00, -0.00, -1.00, 719.3, 506.0)">u</text><text xml:space="preserve" font-family="ComicSansMS" font-size="35.4" fill="#858585" transform="matrix(1.00, 0.00, -0.00, -1.00, 737.7, 506.0)">g</text><text xml:space="preserve" font-family="ComicSansMS" font-size="35.4" fill="#858585" transform="matrix(1.00, 0.00, -0.00, -1.00, 756.5, 506.0)">s</text><text xml:space="preserve" font-family="ComicSansMS" font-size="35.4" fill="#858585" transform="matrix(1.00, 0.00, -0.00, -1.00, 773.7, 506.0)">!</text><text xml:space="preserve" font-family="ComicSansMS" font-size="35.4" fill="#858585" transform="matrix(1.00, 0.00, -0.00, -1.00, 782.1, 506.0)"> </text><g><clipPath id="clip-328"><path d="M 104.0 427.7 L 128.9 427.7 L 128.9 450.9 L 104.0 450.9 Z M 104.0 427.7 "></path></clipPath><g clip-path="url(#clip-328)"><path d="M 128.5 436.1 C 128.8 435.7 128.9 435.4 128.9 435.0 C 128.9 434.2 128.5 433.5 127.6 432.9 C 126.8 432.3 125.9 432.0 124.8 432.0 C 123.5 432.0 121.9 433.0 120.1 435.0 C 120.1 435.0 120.1 432.0 120.1 432.0 C 120.1 431.7 120.2 431.3 120.3 430.9 C 120.5 430.5 120.6 430.2 120.6 430.0 C 120.6 429.4 120.3 428.8 119.7 428.4 C 119.0 428.0 118.4 427.7 117.8 427.7 C 116.6 427.7 115.7 428.2 114.8 429.2 C 114.6 429.5 114.5 430.3 114.6 431.6 C 114.7 433.0 114.7 434.3 114.8 435.7 C 114.1 435.2 112.8 434.4 110.9 433.4 C 110.6 433.0 109.9 432.6 108.5 432.2 C 107.6 432.1 106.6 432.3 105.5 432.7 C 104.5 433.2 104.0 433.8 104.0 434.6 C 104.0 434.8 104.0 435.0 104.1 435.2 C 104.3 435.6 104.8 435.9 105.4 436.1 C 106.4 436.5 107.0 436.7 107.1 436.7 C 107.1 436.7 112.6 439.7 112.6 439.7 C 112.6 439.7 108.7 441.6 108.7 441.6 C 108.1 441.6 107.3 441.9 106.4 442.4 C 106.2 442.7 106.1 443.0 106.1 443.4 C 106.1 444.3 106.7 445.2 107.8 446.1 C 108.9 446.9 110.0 447.4 111.1 447.4 C 111.4 447.4 111.8 447.3 112.2 447.2 C 112.5 447.1 112.9 446.7 113.1 446.2 C 113.5 445.5 114.0 444.9 114.8 444.4 C 114.8 444.4 115.0 447.9 115.0 447.9 C 114.8 448.4 114.8 449.1 115.0 450.1 C 115.4 450.6 116.4 450.9 118.0 450.9 C 119.4 450.9 120.3 450.5 120.8 449.7 C 121.0 449.4 121.0 448.6 120.9 447.3 C 120.8 446.2 120.7 445.1 120.5 443.9 C 120.5 443.9 122.6 445.0 122.6 445.0 C 123.0 445.4 123.7 445.9 124.8 446.3 C 125.6 446.4 126.4 446.1 127.2 445.4 C 127.9 444.8 128.3 444.1 128.3 443.3 C 128.3 442.9 128.2 442.6 128.0 442.3 C 127.8 442.0 127.5 441.8 127.0 441.7 C 126.3 441.6 125.9 441.5 125.7 441.3 C 125.7 441.3 122.7 439.2 122.7 439.2 C 122.7 439.2 126.6 437.1 126.6 437.1 C 127.1 436.9 127.7 436.6 128.5 436.1 Z M 128.5 436.1 " fill="#3995D6"></path></g></g><text xml:space="preserve" font-family="ComicSansMS" font-size="35.4" fill="#858585" transform="matrix(1.00, 0.00, -0.00, -1.00, 142.0, 425.0)">C</text><text xml:space="preserve" font-family="ComicSansMS" font-size="35.4" fill="#858585" transform="matrix(1.00, 0.00, -0.00, -1.00, 163.3, 425.0)">h</text><text xml:space="preserve" font-family="ComicSansMS" font-size="35.4" fill="#858585" transform="matrix(1.00, 0.00, -0.00, -1.00, 183.8, 425.0)">r</text><text xml:space="preserve" font-family="ComicSansMS" font-size="35.4" fill="#858585" transform="matrix(1.00, 0.00, -0.00, -1.00, 200.8, 425.0)">o</text><text xml:space="preserve" font-family="ComicSansMS" font-size="35.4" fill="#858585" transform="matrix(1.00, 0.00, -0.00, -1.00, 219.4, 425.0)">m</text><text xml:space="preserve" font-family="ComicSansMS" font-size="35.4" fill="#858585" transform="matrix(1.00, 0.00, -0.00, -1.00, 246.9, 425.0)">e</text><text xml:space="preserve" font-family="ComicSansMS" font-size="35.4" fill="#858585" transform="matrix(1.00, 0.00, -0.00, -1.00, 266.3, 425.0)"> </text><text xml:space="preserve" font-family="ComicSansMS" font-size="35.4" fill="#858585" transform="matrix(1.00, 0.00, -0.00, -1.00, 276.9, 425.0)">p</text><text xml:space="preserve" font-family="ComicSansMS" font-size="35.4" fill="#858585" transform="matrix(1.00, 0.00, -0.00, -1.00, 295.8, 425.0)">r</text><text xml:space="preserve" font-family="ComicSansMS" font-size="35.4" fill="#858585" transform="matrix(1.00, 0.00, -0.00, -1.00, 312.8, 425.0)">o</text><text xml:space="preserve" font-family="ComicSansMS" font-size="35.4" fill="#858585" transform="matrix(1.00, 0.00, -0.00, -1.00, 331.4, 425.0)">v</text><text xml:space="preserve" font-family="ComicSansMS" font-size="35.4" fill="#858585" transform="matrix(1.00, 0.00, -0.00, -1.00, 348.7, 425.0)">i</text><text xml:space="preserve" font-family="ComicSansMS" font-size="35.4" fill="#858585" transform="matrix(1.00, 0.00, -0.00, -1.00, 358.6, 425.0)">d</text><text xml:space="preserve" font-family="ComicSansMS" font-size="35.4" fill="#858585" transform="matrix(1.00, 0.00, -0.00, -1.00, 379.4, 425.0)">e</text><text xml:space="preserve" font-family="ComicSansMS" font-size="35.4" fill="#858585" transform="matrix(1.00, 0.00, -0.00, -1.00, 398.8, 425.0)">s</text><text xml:space="preserve" font-family="ComicSansMS" font-size="35.4" fill="#858585" transform="matrix(1.00, 0.00, -0.00, -1.00, 416.1, 425.0)"> </text><text xml:space="preserve" font-family="ComicSansMS" font-size="35.4" fill="#858585" transform="matrix(1.00, 0.00, -0.00, -1.00, 426.6, 425.0)">D</text><text xml:space="preserve" font-family="ComicSansMS" font-size="35.4" fill="#858585" transform="matrix(1.00, 0.00, -0.00, -1.00, 452.2, 425.0)">e</text><text xml:space="preserve" font-family="ComicSansMS" font-size="35.4" fill="#858585" transform="matrix(1.00, 0.00, -0.00, -1.00, 471.6, 425.0)">v</text><text xml:space="preserve" font-family="ComicSansMS" font-size="35.4" fill="#858585" transform="matrix(1.00, 0.00, -0.00, -1.00, 488.8, 425.0)">i</text><text xml:space="preserve" font-family="ComicSansMS" font-size="35.4" fill="#858585" transform="matrix(1.00, 0.00, -0.00, -1.00, 498.7, 425.0)">c</text><text xml:space="preserve" font-family="ComicSansMS" font-size="35.4" fill="#858585" transform="matrix(1.00, 0.00, -0.00, -1.00, 516.9, 425.0)">e</text><text xml:space="preserve" font-family="ComicSansMS" font-size="35.4" fill="#858585" transform="matrix(1.00, 0.00, -0.00, -1.00, 536.3, 425.0)"> </text><text xml:space="preserve" font-family="ComicSansMS" font-size="35.4" fill="#858585" transform="matrix(1.00, 0.00, -0.00, -1.00, 546.9, 425.0)">M</text><text xml:space="preserve" font-family="ComicSansMS" font-size="35.4" fill="#858585" transform="matrix(1.00, 0.00, -0.00, -1.00, 578.1, 425.0)">o</text><text xml:space="preserve" font-family="ComicSansMS" font-size="35.4" fill="#858585" transform="matrix(1.00, 0.00, -0.00, -1.00, 596.7, 425.0)">d</text><text xml:space="preserve" font-family="ComicSansMS" font-size="35.4" fill="#858585" transform="matrix(1.00, 0.00, -0.00, -1.00, 617.6, 425.0)">e</text><text xml:space="preserve" font-family="ComicSansMS" font-size="35.4" fill="#858585" transform="matrix(1.00, 0.00, -0.00, -1.00, 636.9, 425.0)"> </text><text xml:space="preserve" font-family="ComicSansMS" font-size="35.4" fill="#858585" transform="matrix(1.00, 0.00, -0.00, -1.00, 647.5, 425.0)">a</text><text xml:space="preserve" font-family="ComicSansMS" font-size="35.4" fill="#858585" transform="matrix(1.00, 0.00, -0.00, -1.00, 665.6, 425.0)">n</text><text xml:space="preserve" font-family="ComicSansMS" font-size="35.4" fill="#858585" transform="matrix(1.00, 0.00, -0.00, -1.00, 684.2, 425.0)">d</text><text xml:space="preserve" font-family="ComicSansMS" font-size="35.4" fill="#858585" transform="matrix(1.00, 0.00, -0.00, -1.00, 705.0, 425.0)"> </text><text xml:space="preserve" font-family="ComicSansMS" font-size="35.4" fill="#858585" transform="matrix(1.00, 0.00, -0.00, -1.00, 715.6, 425.0)">R</text><text xml:space="preserve" font-family="ComicSansMS" font-size="35.4" fill="#858585" transform="matrix(1.00, 0.00, -0.00, -1.00, 737.8, 425.0)">e</text><text xml:space="preserve" font-family="ComicSansMS" font-size="35.4" fill="#858585" transform="matrix(1.00, 0.00, -0.00, -1.00, 757.2, 425.0)">m</text><text xml:space="preserve" font-family="ComicSansMS" font-size="35.4" fill="#858585" transform="matrix(1.00, 0.00, -0.00, -1.00, 784.7, 425.0)">o</text><text xml:space="preserve" font-family="ComicSansMS" font-size="35.4" fill="#858585" transform="matrix(1.00, 0.00, -0.00, -1.00, 803.3, 425.0)">t</text><text xml:space="preserve" font-family="ComicSansMS" font-size="35.4" fill="#858585" transform="matrix(1.00, 0.00, -0.00, -1.00, 820.0, 425.0)">e</text><text xml:space="preserve" font-family="ComicSansMS" font-size="35.4" fill="#858585" transform="matrix(1.00, 0.00, -0.00, -1.00, 839.4, 425.0)"> </text><text xml:space="preserve" font-family="ComicSansMS" font-size="35.4" fill="#858585" transform="matrix(1.00, 0.00, -0.00, -1.00, 142.0, 376.0)">D</text><text xml:space="preserve" font-family="ComicSansMS" font-size="35.4" fill="#858585" transform="matrix(1.00, 0.00, -0.00, -1.00, 167.6, 376.0)">e</text><text xml:space="preserve" font-family="ComicSansMS" font-size="35.4" fill="#858585" transform="matrix(1.00, 0.00, -0.00, -1.00, 187.0, 376.0)">b</text><text xml:space="preserve" font-family="ComicSansMS" font-size="35.4" fill="#858585" transform="matrix(1.00, 0.00, -0.00, -1.00, 208.0, 376.0)">u</text><text xml:space="preserve" font-family="ComicSansMS" font-size="35.4" fill="#858585" transform="matrix(1.00, 0.00, -0.00, -1.00, 226.4, 376.0)">g</text><text xml:space="preserve" font-family="ComicSansMS" font-size="35.4" fill="#858585" transform="matrix(1.00, 0.00, -0.00, -1.00, 245.2, 376.0)">g</text><text xml:space="preserve" font-family="ComicSansMS" font-size="35.4" fill="#858585" transform="matrix(1.00, 0.00, -0.00, -1.00, 264.0, 376.0)">i</text><text xml:space="preserve" font-family="ComicSansMS" font-size="35.4" fill="#858585" transform="matrix(1.00, 0.00, -0.00, -1.00, 273.9, 376.0)">n</text><text xml:space="preserve" font-family="ComicSansMS" font-size="35.4" fill="#858585" transform="matrix(1.00, 0.00, -0.00, -1.00, 292.5, 376.0)">g</text><text xml:space="preserve" font-family="ComicSansMS" font-size="35.4" fill="#858585" transform="matrix(1.00, 0.00, -0.00, -1.00, 311.3, 376.0)"> </text><g><clipPath id="clip-329"><path d="M 104.0 297.4 L 128.9 297.4 L 128.9 320.6 L 104.0 320.6 Z M 104.0 297.4 "></path></clipPath><g clip-path="url(#clip-329)"><path d="M 128.5 305.7 C 128.8 305.4 128.9 305.0 128.9 304.6 C 128.9 303.9 128.5 303.2 127.6 302.6 C 126.8 301.9 125.9 301.6 124.8 301.6 C 123.5 301.6 121.9 302.6 120.1 304.6 C 120.1 304.6 120.1 301.6 120.1 301.6 C 120.1 301.3 120.2 301.0 120.3 300.6 C 120.5 300.2 120.6 299.9 120.6 299.7 C 120.6 299.0 120.3 298.5 119.7 298.1 C 119.0 297.6 118.4 297.4 117.8 297.4 C 116.6 297.4 115.7 297.9 114.8 298.9 C 114.6 299.1 114.5 300.0 114.6 301.3 C 114.7 302.6 114.7 304.0 114.8 305.4 C 114.1 304.9 112.8 304.1 110.9 303.1 C 110.6 302.7 109.9 302.3 108.5 301.8 C 107.6 301.7 106.6 301.9 105.5 302.4 C 104.5 302.9 104.0 303.5 104.0 304.3 C 104.0 304.4 104.0 304.6 104.1 304.8 C 104.3 305.3 104.8 305.6 105.4 305.8 C 106.4 306.1 107.0 306.3 107.1 306.4 C 107.1 306.4 112.6 309.4 112.6 309.4 C 112.6 309.4 108.7 311.3 108.7 311.3 C 108.1 311.3 107.3 311.5 106.4 312.1 C 106.2 312.4 106.1 312.7 106.1 313.0 C 106.1 313.9 106.7 314.8 107.8 315.7 C 108.9 316.6 110.0 317.0 111.1 317.0 C 111.4 317.0 111.8 317.0 112.2 316.9 C 112.5 316.7 112.9 316.4 113.1 315.9 C 113.5 315.2 114.0 314.6 114.8 314.1 C 114.8 314.1 115.0 317.6 115.0 317.6 C 114.8 318.1 114.8 318.8 115.0 319.7 C 115.4 320.3 116.4 320.6 118.0 320.6 C 119.4 320.6 120.3 320.2 120.8 319.4 C 121.0 319.0 121.0 318.2 120.9 317.0 C 120.8 315.8 120.7 314.7 120.5 313.6 C 120.5 313.6 122.6 314.6 122.6 314.6 C 123.0 315.1 123.7 315.5 124.8 316.0 C 125.6 316.1 126.4 315.8 127.2 315.1 C 127.9 314.4 128.3 313.7 128.3 312.9 C 128.3 312.6 128.2 312.3 128.0 312.0 C 127.8 311.7 127.5 311.5 127.0 311.4 C 126.3 311.3 125.9 311.1 125.7 311.0 C 125.7 311.0 122.7 308.9 122.7 308.9 C 122.7 308.9 126.6 306.7 126.6 306.7 C 127.1 306.6 127.7 306.3 128.5 305.7 Z M 128.5 305.7 " fill="#3995D6"></path></g></g><text xml:space="preserve" font-family="ComicSansMS" font-size="35.4" fill="#858585" transform="matrix(1.00, 0.00, -0.00, -1.00, 142.0, 295.0)">B</text><text xml:space="preserve" font-family="ComicSansMS" font-size="35.4" fill="#858585" transform="matrix(1.00, 0.00, -0.00, -1.00, 164.3, 295.0)">r</text><text xml:space="preserve" font-family="ComicSansMS" font-size="35.4" fill="#858585" transform="matrix(1.00, 0.00, -0.00, -1.00, 181.4, 295.0)">o</text><text xml:space="preserve" font-family="ComicSansMS" font-size="35.4" fill="#858585" transform="matrix(1.00, 0.00, -0.00, -1.00, 200.0, 295.0)">w</text><text xml:space="preserve" font-family="ComicSansMS" font-size="35.4" fill="#858585" transform="matrix(1.00, 0.00, -0.00, -1.00, 224.2, 295.0)">s</text><text xml:space="preserve" font-family="ComicSansMS" font-size="35.4" fill="#858585" transform="matrix(1.00, 0.00, -0.00, -1.00, 241.5, 295.0)">e</text><text xml:space="preserve" font-family="ComicSansMS" font-size="35.4" fill="#858585" transform="matrix(1.00, 0.00, -0.00, -1.00, 260.9, 295.0)">r</text><text xml:space="preserve" font-family="ComicSansMS" font-size="35.4" fill="#858585" transform="matrix(1.00, 0.00, -0.00, -1.00, 277.9, 295.0)">s</text><text xml:space="preserve" font-family="ComicSansMS" font-size="35.4" fill="#858585" transform="matrix(1.00, 0.00, -0.00, -1.00, 295.1, 295.0)">t</text><text xml:space="preserve" font-family="ComicSansMS" font-size="35.4" fill="#858585" transform="matrix(1.00, 0.00, -0.00, -1.00, 311.8, 295.0)">a</text><text xml:space="preserve" font-family="ComicSansMS" font-size="35.4" fill="#858585" transform="matrix(1.00, 0.00, -0.00, -1.00, 330.0, 295.0)">c</text><text xml:space="preserve" font-family="ComicSansMS" font-size="35.4" fill="#858585" transform="matrix(1.00, 0.00, -0.00, -1.00, 348.1, 295.0)">k</text><text xml:space="preserve" font-family="ComicSansMS" font-size="35.4" fill="#858585" transform="matrix(1.00, 0.00, -0.00, -1.00, 367.3, 295.0)"> </text><text xml:space="preserve" font-family="ComicSansMS" font-size="35.4" fill="#858585" transform="matrix(1.00, 0.00, -0.00, -1.00, 377.8, 295.0)">c</text><text xml:space="preserve" font-family="ComicSansMS" font-size="35.4" fill="#858585" transform="matrix(1.00, 0.00, -0.00, -1.00, 396.0, 295.0)">a</text><text xml:space="preserve" font-family="ComicSansMS" font-size="35.4" fill="#858585" transform="matrix(1.00, 0.00, -0.00, -1.00, 414.1, 295.0)">n</text><text xml:space="preserve" font-family="ComicSansMS" font-size="35.4" fill="#858585" transform="matrix(1.00, 0.00, -0.00, -1.00, 432.7, 295.0)"> </text><text xml:space="preserve" font-family="ComicSansMS" font-size="35.4" fill="#858585" transform="matrix(1.00, 0.00, -0.00, -1.00, 443.3, 295.0)">s</text><text xml:space="preserve" font-family="ComicSansMS" font-size="35.4" fill="#858585" transform="matrix(1.00, 0.00, -0.00, -1.00, 460.5, 295.0)">i</text><text xml:space="preserve" font-family="ComicSansMS" font-size="35.4" fill="#858585" transform="matrix(1.00, 0.00, -0.00, -1.00, 470.4, 295.0)">m</text><text xml:space="preserve" font-family="ComicSansMS" font-size="35.4" fill="#858585" transform="matrix(1.00, 0.00, -0.00, -1.00, 498.0, 295.0)">u</text><text xml:space="preserve" font-family="ComicSansMS" font-size="35.4" fill="#858585" transform="matrix(1.00, 0.00, -0.00, -1.00, 516.4, 295.0)">l</text><text xml:space="preserve" font-family="ComicSansMS" font-size="35.4" fill="#858585" transform="matrix(1.00, 0.00, -0.00, -1.00, 526.1, 295.0)">a</text><text xml:space="preserve" font-family="ComicSansMS" font-size="35.4" fill="#858585" transform="matrix(1.00, 0.00, -0.00, -1.00, 544.2, 295.0)">t</text><text xml:space="preserve" font-family="ComicSansMS" font-size="35.4" fill="#858585" transform="matrix(1.00, 0.00, -0.00, -1.00, 560.9, 295.0)">e</text><text xml:space="preserve" font-family="ComicSansMS" font-size="35.4" fill="#858585" transform="matrix(1.00, 0.00, -0.00, -1.00, 580.3, 295.0)"> </text><text xml:space="preserve" font-family="ComicSansMS" font-size="35.4" fill="#858585" transform="matrix(1.00, 0.00, -0.00, -1.00, 590.9, 295.0)">a</text><text xml:space="preserve" font-family="ComicSansMS" font-size="35.4" fill="#858585" transform="matrix(1.00, 0.00, -0.00, -1.00, 609.0, 295.0)">l</text><text xml:space="preserve" font-family="ComicSansMS" font-size="35.4" fill="#858585" transform="matrix(1.00, 0.00, -0.00, -1.00, 618.7, 295.0)">l</text><text xml:space="preserve" font-family="ComicSansMS" font-size="35.4" fill="#858585" transform="matrix(1.00, 0.00, -0.00, -1.00, 628.4, 295.0)"> </text><text xml:space="preserve" font-family="ComicSansMS" font-size="35.4" fill="#858585" transform="matrix(1.00, 0.00, -0.00, -1.00, 639.0, 295.0)">A</text><text xml:space="preserve" font-family="ComicSansMS" font-size="35.4" fill="#858585" transform="matrix(1.00, 0.00, -0.00, -1.00, 664.9, 295.0)">n</text><text xml:space="preserve" font-family="ComicSansMS" font-size="35.4" fill="#858585" transform="matrix(1.00, 0.00, -0.00, -1.00, 683.4, 295.0)">d</text><text xml:space="preserve" font-family="ComicSansMS" font-size="35.4" fill="#858585" transform="matrix(1.00, 0.00, -0.00, -1.00, 704.3, 295.0)">r</text><text xml:space="preserve" font-family="ComicSansMS" font-size="35.4" fill="#858585" transform="matrix(1.00, 0.00, -0.00, -1.00, 721.3, 295.0)">o</text><text xml:space="preserve" font-family="ComicSansMS" font-size="35.4" fill="#858585" transform="matrix(1.00, 0.00, -0.00, -1.00, 739.9, 295.0)">i</text><text xml:space="preserve" font-family="ComicSansMS" font-size="35.4" fill="#858585" transform="matrix(1.00, 0.00, -0.00, -1.00, 749.9, 295.0)">d</text><text xml:space="preserve" font-family="ComicSansMS" font-size="35.4" fill="#858585" transform="matrix(1.00, 0.00, -0.00, -1.00, 770.7, 295.0)"> </text><text xml:space="preserve" font-family="ComicSansMS" font-size="35.4" fill="#858585" transform="matrix(1.00, 0.00, -0.00, -1.00, 781.2, 295.0)">d</text><text xml:space="preserve" font-family="ComicSansMS" font-size="35.4" fill="#858585" transform="matrix(1.00, 0.00, -0.00, -1.00, 802.1, 295.0)">e</text><text xml:space="preserve" font-family="ComicSansMS" font-size="35.4" fill="#858585" transform="matrix(1.00, 0.00, -0.00, -1.00, 821.5, 295.0)">v</text><text xml:space="preserve" font-family="ComicSansMS" font-size="35.4" fill="#858585" transform="matrix(1.00, 0.00, -0.00, -1.00, 838.7, 295.0)">i</text><text xml:space="preserve" font-family="ComicSansMS" font-size="35.4" fill="#858585" transform="matrix(1.00, 0.00, -0.00, -1.00, 848.6, 295.0)">c</text><text xml:space="preserve" font-family="ComicSansMS" font-size="35.4" fill="#858585" transform="matrix(1.00, 0.00, -0.00, -1.00, 866.8, 295.0)">e</text><text xml:space="preserve" font-family="ComicSansMS" font-size="35.4" fill="#858585" transform="matrix(1.00, 0.00, -0.00, -1.00, 886.2, 295.0)">s</text><text xml:space="preserve" font-family="ComicSansMS" font-size="35.4" fill="#858585" transform="matrix(1.00, 0.00, -0.00, -1.00, 903.5, 295.0)"> </text><text xml:space="preserve" font-family="ComicSansMS" font-size="35.4" fill="#858585" transform="matrix(1.00, 0.00, -0.00, -1.00, 142.0, 246.0)">w</text><text xml:space="preserve" font-family="ComicSansMS" font-size="35.4" fill="#858585" transform="matrix(1.00, 0.00, -0.00, -1.00, 166.2, 246.0)">e</text><text xml:space="preserve" font-family="ComicSansMS" font-size="35.4" fill="#858585" transform="matrix(1.00, 0.00, -0.00, -1.00, 185.6, 246.0)"> </text><text xml:space="preserve" font-family="ComicSansMS" font-size="35.4" fill="#858585" transform="matrix(1.00, 0.00, -0.00, -1.00, 196.2, 246.0)">w</text><text xml:space="preserve" font-family="ComicSansMS" font-size="35.4" fill="#858585" transform="matrix(1.00, 0.00, -0.00, -1.00, 220.4, 246.0)">o</text><text xml:space="preserve" font-family="ComicSansMS" font-size="35.4" fill="#858585" transform="matrix(1.00, 0.00, -0.00, -1.00, 239.1, 246.0)">u</text><text xml:space="preserve" font-family="ComicSansMS" font-size="35.4" fill="#858585" transform="matrix(1.00, 0.00, -0.00, -1.00, 257.5, 246.0)">l</text><text xml:space="preserve" font-family="ComicSansMS" font-size="35.4" fill="#858585" transform="matrix(1.00, 0.00, -0.00, -1.00, 267.2, 246.0)">d</text><text xml:space="preserve" font-family="ComicSansMS" font-size="35.4" fill="#858585" transform="matrix(1.00, 0.00, -0.00, -1.00, 288.0, 246.0)"> </text><text xml:space="preserve" font-family="ComicSansMS" font-size="35.4" fill="#858585" transform="matrix(1.00, 0.00, -0.00, -1.00, 298.6, 246.0)">c</text><text xml:space="preserve" font-family="ComicSansMS" font-size="35.4" fill="#858585" transform="matrix(1.00, 0.00, -0.00, -1.00, 316.8, 246.0)">a</text><text xml:space="preserve" font-family="ComicSansMS" font-size="35.4" fill="#858585" transform="matrix(1.00, 0.00, -0.00, -1.00, 334.9, 246.0)">r</text><text xml:space="preserve" font-family="ComicSansMS" font-size="35.4" fill="#858585" transform="matrix(1.00, 0.00, -0.00, -1.00, 351.9, 246.0)">e</text><text xml:space="preserve" font-family="ComicSansMS" font-size="35.4" fill="#858585" transform="matrix(1.00, 0.00, -0.00, -1.00, 371.3, 246.0)"> </text><text xml:space="preserve" font-family="ComicSansMS" font-size="35.4" fill="#858585" transform="matrix(1.00, 0.00, -0.00, -1.00, 381.9, 246.0)">a</text><text xml:space="preserve" font-family="ComicSansMS" font-size="35.4" fill="#858585" transform="matrix(1.00, 0.00, -0.00, -1.00, 400.0, 246.0)">b</text><text xml:space="preserve" font-family="ComicSansMS" font-size="35.4" fill="#858585" transform="matrix(1.00, 0.00, -0.00, -1.00, 421.0, 246.0)">o</text><text xml:space="preserve" font-family="ComicSansMS" font-size="35.4" fill="#858585" transform="matrix(1.00, 0.00, -0.00, -1.00, 439.7, 246.0)">u</text><text xml:space="preserve" font-family="ComicSansMS" font-size="35.4" fill="#858585" transform="matrix(1.00, 0.00, -0.00, -1.00, 458.1, 246.0)">t</text><text xml:space="preserve" font-family="ComicSansMS" font-size="35.4" fill="#858585" transform="matrix(1.00, 0.00, -0.00, -1.00, 474.8, 246.0)"> </text><g><clipPath id="clip-330"><path d="M 104.0 167.1 L 128.9 167.1 L 128.9 190.3 L 104.0 190.3 Z M 104.0 167.1 "></path></clipPath><g clip-path="url(#clip-330)"><path d="M 128.5 175.4 C 128.8 175.0 128.9 174.7 128.9 174.3 C 128.9 173.6 128.5 172.9 127.6 172.2 C 126.8 171.6 125.9 171.3 124.8 171.3 C 123.5 171.3 121.9 172.3 120.1 174.3 C 120.1 174.3 120.1 171.3 120.1 171.3 C 120.1 171.0 120.2 170.6 120.3 170.2 C 120.5 169.8 120.6 169.5 120.6 169.3 C 120.6 168.7 120.3 168.2 119.7 167.7 C 119.0 167.3 118.4 167.1 117.8 167.1 C 116.6 167.1 115.7 167.5 114.8 168.5 C 114.6 168.8 114.5 169.6 114.6 170.9 C 114.7 172.3 114.7 173.6 114.8 175.0 C 114.1 174.5 112.8 173.8 110.9 172.7 C 110.6 172.4 109.9 171.9 108.5 171.5 C 107.6 171.4 106.6 171.6 105.5 172.0 C 104.5 172.5 104.0 173.1 104.0 173.9 C 104.0 174.1 104.0 174.3 104.1 174.5 C 104.3 174.9 104.8 175.3 105.4 175.4 C 106.4 175.8 107.0 176.0 107.1 176.0 C 107.1 176.0 112.6 179.0 112.6 179.0 C 112.6 179.0 108.7 180.9 108.7 180.9 C 108.1 180.9 107.3 181.2 106.4 181.7 C 106.2 182.0 106.1 182.3 106.1 182.7 C 106.1 183.6 106.7 184.5 107.8 185.4 C 108.9 186.3 110.0 186.7 111.1 186.7 C 111.4 186.7 111.8 186.6 112.2 186.5 C 112.5 186.4 112.9 186.1 113.1 185.5 C 113.5 184.8 114.0 184.3 114.8 183.8 C 114.8 183.8 115.0 187.3 115.0 187.3 C 114.8 187.8 114.8 188.5 115.0 189.4 C 115.4 190.0 116.4 190.3 118.0 190.3 C 119.4 190.3 120.3 189.8 120.8 189.0 C 121.0 188.7 121.0 187.9 120.9 186.6 C 120.8 185.5 120.7 184.4 120.5 183.3 C 120.5 183.3 122.6 184.3 122.6 184.3 C 123.0 184.7 123.7 185.2 124.8 185.7 C 125.6 185.7 126.4 185.4 127.2 184.8 C 127.9 184.1 128.3 183.4 128.3 182.6 C 128.3 182.3 128.2 181.9 128.0 181.7 C 127.8 181.4 127.5 181.2 127.0 181.1 C 126.3 180.9 125.9 180.8 125.7 180.6 C 125.7 180.6 122.7 178.5 122.7 178.5 C 122.7 178.5 126.6 176.4 126.6 176.4 C 127.1 176.3 127.7 175.9 128.5 175.4 Z M 128.5 175.4 " fill="#3995D6"></path></g></g><text xml:space="preserve" font-family="ComicSansMS" font-size="35.4" fill="#858585" transform="matrix(1.00, 0.00, -0.00, -1.00, 142.0, 164.0)">C</text><text xml:space="preserve" font-family="ComicSansMS" font-size="35.4" fill="#858585" transform="matrix(1.00, 0.00, -0.00, -1.00, 163.3, 164.0)">h</text><text xml:space="preserve" font-family="ComicSansMS" font-size="35.4" fill="#858585" transform="matrix(1.00, 0.00, -0.00, -1.00, 183.8, 164.0)">a</text><text xml:space="preserve" font-family="ComicSansMS" font-size="35.4" fill="#858585" transform="matrix(1.00, 0.00, -0.00, -1.00, 201.9, 164.0)">r</text><text xml:space="preserve" font-family="ComicSansMS" font-size="35.4" fill="#858585" transform="matrix(1.00, 0.00, -0.00, -1.00, 218.9, 164.0)">l</text><text xml:space="preserve" font-family="ComicSansMS" font-size="35.4" fill="#858585" transform="matrix(1.00, 0.00, -0.00, -1.00, 228.6, 164.0)">e</text><text xml:space="preserve" font-family="ComicSansMS" font-size="35.4" fill="#858585" transform="matrix(1.00, 0.00, -0.00, -1.00, 248.0, 164.0)">s</text><text xml:space="preserve" font-family="ComicSansMS" font-size="35.4" fill="#858585" transform="matrix(1.00, 0.00, -0.00, -1.00, 265.3, 164.0)"> </text><text xml:space="preserve" font-family="ComicSansMS" font-size="35.4" fill="#858585" transform="matrix(1.00, 0.00, -0.00, -1.00, 275.8, 164.0)">l</text><text xml:space="preserve" font-family="ComicSansMS" font-size="35.4" fill="#858585" transform="matrix(1.00, 0.00, -0.00, -1.00, 285.5, 164.0)">e</text><text xml:space="preserve" font-family="ComicSansMS" font-size="35.4" fill="#858585" transform="matrix(1.00, 0.00, -0.00, -1.00, 304.9, 164.0)">t</text><text xml:space="preserve" font-family="ComicSansMS" font-size="35.4" fill="#858585" transform="matrix(1.00, 0.00, -0.00, -1.00, 321.6, 164.0)">s</text><text xml:space="preserve" font-family="ComicSansMS" font-size="35.4" fill="#858585" transform="matrix(1.00, 0.00, -0.00, -1.00, 338.9, 164.0)"> </text><text xml:space="preserve" font-family="ComicSansMS" font-size="35.4" fill="#858585" transform="matrix(1.00, 0.00, -0.00, -1.00, 349.4, 164.0)">y</text><text xml:space="preserve" font-family="ComicSansMS" font-size="35.4" fill="#858585" transform="matrix(1.00, 0.00, -0.00, -1.00, 367.9, 164.0)">o</text><text xml:space="preserve" font-family="ComicSansMS" font-size="35.4" fill="#858585" transform="matrix(1.00, 0.00, -0.00, -1.00, 386.5, 164.0)">u</text><text xml:space="preserve" font-family="ComicSansMS" font-size="35.4" fill="#858585" transform="matrix(1.00, 0.00, -0.00, -1.00, 404.9, 164.0)"> </text><text xml:space="preserve" font-family="ComicSansMS" font-size="35.4" fill="#858585" transform="matrix(1.00, 0.00, -0.00, -1.00, 415.5, 164.0)">t</text><text xml:space="preserve" font-family="ComicSansMS" font-size="35.4" fill="#858585" transform="matrix(1.00, 0.00, -0.00, -1.00, 432.2, 164.0)">e</text><text xml:space="preserve" font-family="ComicSansMS" font-size="35.4" fill="#858585" transform="matrix(1.00, 0.00, -0.00, -1.00, 451.6, 164.0)">s</text><text xml:space="preserve" font-family="ComicSansMS" font-size="35.4" fill="#858585" transform="matrix(1.00, 0.00, -0.00, -1.00, 468.8, 164.0)">t</text><text xml:space="preserve" font-family="ComicSansMS" font-size="35.4" fill="#858585" transform="matrix(1.00, 0.00, -0.00, -1.00, 485.5, 164.0)"> </text><text xml:space="preserve" font-family="ComicSansMS" font-size="35.4" fill="#858585" transform="matrix(1.00, 0.00, -0.00, -1.00, 496.1, 164.0)">o</text><text xml:space="preserve" font-family="ComicSansMS" font-size="35.4" fill="#858585" transform="matrix(1.00, 0.00, -0.00, -1.00, 514.7, 164.0)">n</text><text xml:space="preserve" font-family="ComicSansMS" font-size="35.4" fill="#858585" transform="matrix(1.00, 0.00, -0.00, -1.00, 533.3, 164.0)"> </text><text xml:space="preserve" font-family="ComicSansMS" font-size="35.4" fill="#858585" transform="matrix(1.00, 0.00, -0.00, -1.00, 543.8, 164.0)">a</text><text xml:space="preserve" font-family="ComicSansMS" font-size="35.4" fill="#858585" transform="matrix(1.00, 0.00, -0.00, -1.00, 562.0, 164.0)"> </text><text xml:space="preserve" font-family="ComicSansMS" font-size="35.4" fill="#858585" transform="matrix(1.00, 0.00, -0.00, -1.00, 572.5, 164.0)">p</text><text xml:space="preserve" font-family="ComicSansMS" font-size="35.4" fill="#858585" transform="matrix(1.00, 0.00, -0.00, -1.00, 591.5, 164.0)">h</text><text xml:space="preserve" font-family="ComicSansMS" font-size="35.4" fill="#858585" transform="matrix(1.00, 0.00, -0.00, -1.00, 611.9, 164.0)">y</text><text xml:space="preserve" font-family="ComicSansMS" font-size="35.4" fill="#858585" transform="matrix(1.00, 0.00, -0.00, -1.00, 630.3, 164.0)">s</text><text xml:space="preserve" font-family="ComicSansMS" font-size="35.4" fill="#858585" transform="matrix(1.00, 0.00, -0.00, -1.00, 647.6, 164.0)">i</text><text xml:space="preserve" font-family="ComicSansMS" font-size="35.4" fill="#858585" transform="matrix(1.00, 0.00, -0.00, -1.00, 657.5, 164.0)">c</text><text xml:space="preserve" font-family="ComicSansMS" font-size="35.4" fill="#858585" transform="matrix(1.00, 0.00, -0.00, -1.00, 675.7, 164.0)">a</text><text xml:space="preserve" font-family="ComicSansMS" font-size="35.4" fill="#858585" transform="matrix(1.00, 0.00, -0.00, -1.00, 693.8, 164.0)">l</text><text xml:space="preserve" font-family="ComicSansMS" font-size="35.4" fill="#858585" transform="matrix(1.00, 0.00, -0.00, -1.00, 703.5, 164.0)"> </text><text xml:space="preserve" font-family="ComicSansMS" font-size="35.4" fill="#858585" transform="matrix(1.00, 0.00, -0.00, -1.00, 714.1, 164.0)">d</text><text xml:space="preserve" font-family="ComicSansMS" font-size="35.4" fill="#858585" transform="matrix(1.00, 0.00, -0.00, -1.00, 734.9, 164.0)">e</text><text xml:space="preserve" font-family="ComicSansMS" font-size="35.4" fill="#858585" transform="matrix(1.00, 0.00, -0.00, -1.00, 754.3, 164.0)">v</text><text xml:space="preserve" font-family="ComicSansMS" font-size="35.4" fill="#858585" transform="matrix(1.00, 0.00, -0.00, -1.00, 771.5, 164.0)">i</text><text xml:space="preserve" font-family="ComicSansMS" font-size="35.4" fill="#858585" transform="matrix(1.00, 0.00, -0.00, -1.00, 781.5, 164.0)">c</text><text xml:space="preserve" font-family="ComicSansMS" font-size="35.4" fill="#858585" transform="matrix(1.00, 0.00, -0.00, -1.00, 799.7, 164.0)">e</text><text xml:space="preserve" font-family="ComicSansMS" font-size="35.4" fill="#858585" transform="matrix(1.00, 0.00, -0.00, -1.00, 819.1, 164.0)"> </text><text xml:space="preserve" font-family="ComicSansMS" font-size="35.4" fill="#858585" transform="matrix(1.00, 0.00, -0.00, -1.00, 829.6, 164.0)">i</text><text xml:space="preserve" font-family="ComicSansMS" font-size="35.4" fill="#858585" transform="matrix(1.00, 0.00, -0.00, -1.00, 839.6, 164.0)">f</text><text xml:space="preserve" font-family="ComicSansMS" font-size="35.4" fill="#858585" transform="matrix(1.00, 0.00, -0.00, -1.00, 857.6, 164.0)"> </text><text xml:space="preserve" font-family="ComicSansMS" font-size="35.4" fill="#858585" transform="matrix(1.00, 0.00, -0.00, -1.00, 142.0, 115.0)">y</text><text xml:space="preserve" font-family="ComicSansMS" font-size="35.4" fill="#858585" transform="matrix(1.00, 0.00, -0.00, -1.00, 160.4, 115.0)">o</text><text xml:space="preserve" font-family="ComicSansMS" font-size="35.4" fill="#858585" transform="matrix(1.00, 0.00, -0.00, -1.00, 179.0, 115.0)">u</text><text xml:space="preserve" font-family="ComicSansMS" font-size="35.4" fill="#858585" transform="matrix(1.00, 0.00, -0.00, -1.00, 197.5, 115.0)"> </text><text xml:space="preserve" font-family="ComicSansMS" font-size="35.4" fill="#858585" transform="matrix(1.00, 0.00, -0.00, -1.00, 208.0, 115.0)">c</text><text xml:space="preserve" font-family="ComicSansMS" font-size="35.4" fill="#858585" transform="matrix(1.00, 0.00, -0.00, -1.00, 226.2, 115.0)">a</text><text xml:space="preserve" font-family="ComicSansMS" font-size="35.4" fill="#858585" transform="matrix(1.00, 0.00, -0.00, -1.00, 244.3, 115.0)">n</text><text xml:space="preserve" font-family="ComicSansMS" font-size="35.4" fill="#858585" transform="matrix(1.00, 0.00, -0.00, -1.00, 262.9, 115.0)">’</text><text xml:space="preserve" font-family="ComicSansMS" font-size="35.4" fill="#858585" transform="matrix(1.00, 0.00, -0.00, -1.00, 269.3, 115.0)">t</text><text xml:space="preserve" font-family="ComicSansMS" font-size="35.4" fill="#858585" transform="matrix(1.00, 0.00, -0.00, -1.00, 286.0, 115.0)"> </text><text xml:space="preserve" font-family="ComicSansMS" font-size="35.4" fill="#858585" transform="matrix(1.00, 0.00, -0.00, -1.00, 296.6, 115.0)">r</text><text xml:space="preserve" font-family="ComicSansMS" font-size="35.4" fill="#858585" transform="matrix(1.00, 0.00, -0.00, -1.00, 313.6, 115.0)">e</text><text xml:space="preserve" font-family="ComicSansMS" font-size="35.4" fill="#858585" transform="matrix(1.00, 0.00, -0.00, -1.00, 333.0, 115.0)">p</text><text xml:space="preserve" font-family="ComicSansMS" font-size="35.4" fill="#858585" transform="matrix(1.00, 0.00, -0.00, -1.00, 351.9, 115.0)">o</text><text xml:space="preserve" font-family="ComicSansMS" font-size="35.4" fill="#858585" transform="matrix(1.00, 0.00, -0.00, -1.00, 370.5, 115.0)">r</text><text xml:space="preserve" font-family="ComicSansMS" font-size="35.4" fill="#858585" transform="matrix(1.00, 0.00, -0.00, -1.00, 387.6, 115.0)">t</text><text xml:space="preserve" font-family="ComicSansMS" font-size="35.4" fill="#858585" transform="matrix(1.00, 0.00, -0.00, -1.00, 404.3, 115.0)"> </text><text xml:space="preserve" font-family="ComicSansMS" font-size="35.4" fill="#858585" transform="matrix(1.00, 0.00, -0.00, -1.00, 414.9, 115.0)">a</text><text xml:space="preserve" font-family="ComicSansMS" font-size="35.4" fill="#858585" transform="matrix(1.00, 0.00, -0.00, -1.00, 433.0, 115.0)">n</text><text xml:space="preserve" font-family="ComicSansMS" font-size="35.4" fill="#858585" transform="matrix(1.00, 0.00, -0.00, -1.00, 451.5, 115.0)">y</text><text xml:space="preserve" font-family="ComicSansMS" font-size="35.4" fill="#858585" transform="matrix(1.00, 0.00, -0.00, -1.00, 469.9, 115.0)">w</text><text xml:space="preserve" font-family="ComicSansMS" font-size="35.4" fill="#858585" transform="matrix(1.00, 0.00, -0.00, -1.00, 494.2, 115.0)">h</text><text xml:space="preserve" font-family="ComicSansMS" font-size="35.4" fill="#858585" transform="matrix(1.00, 0.00, -0.00, -1.00, 514.6, 115.0)">e</text><text xml:space="preserve" font-family="ComicSansMS" font-size="35.4" fill="#858585" transform="matrix(1.00, 0.00, -0.00, -1.00, 534.0, 115.0)">r</text><text xml:space="preserve" font-family="ComicSansMS" font-size="35.4" fill="#858585" transform="matrix(1.00, 0.00, -0.00, -1.00, 551.1, 115.0)">e</text><text xml:space="preserve" font-family="ComicSansMS" font-size="35.4" fill="#858585" transform="matrix(1.00, 0.00, -0.00, -1.00, 570.5, 115.0)"> </text><text xml:space="preserve" font-family="ComicSansMS" font-size="35.4" fill="#858585" transform="matrix(1.00, 0.00, -0.00, -1.00, 581.0, 115.0)">e</text><text xml:space="preserve" font-family="ComicSansMS" font-size="35.4" fill="#858585" transform="matrix(1.00, 0.00, -0.00, -1.00, 600.4, 115.0)">l</text><text xml:space="preserve" font-family="ComicSansMS" font-size="35.4" fill="#858585" transform="matrix(1.00, 0.00, -0.00, -1.00, 610.1, 115.0)">s</text><text xml:space="preserve" font-family="ComicSansMS" font-size="35.4" fill="#858585" transform="matrix(1.00, 0.00, -0.00, -1.00, 627.4, 115.0)">e</text></g></svg>