<?xml version="1.0" encoding="UTF-8" standalone="no"?><svg xmlns="http://www.w3.org/2000/svg" xmlns:xlink="http://www.w3.org/1999/xlink" clip-rule="evenodd" stroke-miterlimit="4.00" viewBox="0 0 1024 768"><desc>SVG generated by Keynote</desc><defs></defs><g transform="matrix(1.00, 0.00, -0.00, -1.00, 0.0, 768.0)"><g><clipPath id="clip-429"><path d="M 0.0 768.0 L 1024.0 768.0 L 1024.0 0.0 L 0.0 0.0 Z M 0.0 768.0 "></path></clipPath><g clip-path="url(#clip-429)"><image xlink:href="../../AD43F5AB-7C1D-45DB-8B96-B58B9BFD50C8/assets/43DA95A1552523200D88D33196FD3A18.jpeg" width="1024.00" height="768.00" transform="matrix(1.00, 0.00, -0.00, -1.00, 0.0, 768.0)"></image></g></g><text xml:space="preserve" font-family="ComicSansMS-Bold" font-weight="bold" font-size="66.4" fill="#45A6DE" transform="matrix(1.00, 0.00, -0.00, -1.00, 208.0, 671.0)">B</text><text xml:space="preserve" font-family="ComicSansMS-Bold" font-weight="bold" font-size="66.4" fill="#45A6DE" transform="matrix(1.00, 0.00, -0.00, -1.00, 249.9, 671.0)">r</text><text xml:space="preserve" font-family="ComicSansMS-Bold" font-weight="bold" font-size="66.4" fill="#45A6DE" transform="matrix(1.00, 0.00, -0.00, -1.00, 281.8, 671.0)">o</text><text xml:space="preserve" font-family="ComicSansMS-Bold" font-weight="bold" font-size="66.4" fill="#45A6DE" transform="matrix(1.00, 0.00, -0.00, -1.00, 316.7, 671.0)">w</text><text xml:space="preserve" font-family="ComicSansMS-Bold" font-weight="bold" font-size="66.4" fill="#45A6DE" transform="matrix(1.00, 0.00, -0.00, -1.00, 362.2, 671.0)">s</text><text xml:space="preserve" font-family="ComicSansMS-Bold" font-weight="bold" font-size="66.4" fill="#45A6DE" transform="matrix(1.00, 0.00, -0.00, -1.00, 394.5, 671.0)">e</text><text xml:space="preserve" font-family="ComicSansMS-Bold" font-weight="bold" font-size="66.4" fill="#45A6DE" transform="matrix(1.00, 0.00, -0.00, -1.00, 431.6, 671.0)">r</text><text xml:space="preserve" font-family="ComicSansMS-Bold" font-weight="bold" font-size="66.4" fill="#45A6DE" transform="matrix(1.00, 0.00, -0.00, -1.00, 463.5, 671.0)">s</text><text xml:space="preserve" font-family="ComicSansMS-Bold" font-weight="bold" font-size="66.4" fill="#45A6DE" transform="matrix(1.00, 0.00, -0.00, -1.00, 495.8, 671.0)">t</text><text xml:space="preserve" font-family="ComicSansMS-Bold" font-weight="bold" font-size="66.4" fill="#45A6DE" transform="matrix(1.00, 0.00, -0.00, -1.00, 527.1, 671.0)">a</text><text xml:space="preserve" font-family="ComicSansMS-Bold" font-weight="bold" font-size="66.4" fill="#45A6DE" transform="matrix(1.00, 0.00, -0.00, -1.00, 564.0, 671.0)">c</text><text xml:space="preserve" font-family="ComicSansMS-Bold" font-weight="bold" font-size="66.4" fill="#45A6DE" transform="matrix(1.00, 0.00, -0.00, -1.00, 598.1, 671.0)">k</text><text xml:space="preserve" font-family="ComicSansMS-Bold" font-weight="bold" font-size="66.4" fill="#45A6DE" transform="matrix(1.00, 0.00, -0.00, -1.00, 634.0, 671.0)"> </text><text xml:space="preserve" font-family="ComicSansMS-Bold" font-weight="bold" font-size="66.4" fill="#45A6DE" transform="matrix(1.00, 0.00, -0.00, -1.00, 662.7, 671.0)">L</text><text xml:space="preserve" font-family="ComicSansMS-Bold" font-weight="bold" font-size="66.4" fill="#45A6DE" transform="matrix(1.00, 0.00, -0.00, -1.00, 699.3, 671.0)">i</text><text xml:space="preserve" font-family="ComicSansMS-Bold" font-weight="bold" font-size="66.4" fill="#45A6DE" transform="matrix(1.00, 0.00, -0.00, -1.00, 717.9, 671.0)">v</text><text xml:space="preserve" font-family="ComicSansMS-Bold" font-weight="bold" font-size="66.4" fill="#45A6DE" transform="matrix(1.00, 0.00, -0.00, -1.00, 750.2, 671.0)">e</text><text xml:space="preserve" font-family="ComicSansMS-Bold" font-weight="bold" font-size="66.4" fill="#45A6DE" transform="matrix(1.00, 0.00, -0.00, -1.00, 787.4, 671.0)">:</text><text xml:space="preserve" font-family="ComicSansMS-Bold" font-weight="bold" font-size="66.4" fill="#45A6DE" transform="matrix(1.00, 0.00, -0.00, -1.00, 816.1, 671.0)"> </text><text xml:space="preserve" font-family="ComicSansMS-Bold" font-weight="bold" font-size="66.4" fill="#45A6DE" transform="matrix(1.00, 0.00, -0.00, -1.00, 299.0, 579.0)">L</text><text xml:space="preserve" font-family="ComicSansMS-Bold" font-weight="bold" font-size="66.4" fill="#45A6DE" transform="matrix(1.00, 0.00, -0.00, -1.00, 335.6, 579.0)">o</text><text xml:space="preserve" font-family="ComicSansMS-Bold" font-weight="bold" font-size="66.4" fill="#45A6DE" transform="matrix(1.00, 0.00, -0.00, -1.00, 370.5, 579.0)">c</text><text xml:space="preserve" font-family="ComicSansMS-Bold" font-weight="bold" font-size="66.4" fill="#45A6DE" transform="matrix(1.00, 0.00, -0.00, -1.00, 404.6, 579.0)">a</text><text xml:space="preserve" font-family="ComicSansMS-Bold" font-weight="bold" font-size="66.4" fill="#45A6DE" transform="matrix(1.00, 0.00, -0.00, -1.00, 441.4, 579.0)">l</text><text xml:space="preserve" font-family="ComicSansMS-Bold" font-weight="bold" font-size="66.4" fill="#45A6DE" transform="matrix(1.00, 0.00, -0.00, -1.00, 459.6, 579.0)"> </text><text xml:space="preserve" font-family="ComicSansMS-Bold" font-weight="bold" font-size="66.4" fill="#45A6DE" transform="matrix(1.00, 0.00, -0.00, -1.00, 488.4, 579.0)">T</text><text xml:space="preserve" font-family="ComicSansMS-Bold" font-weight="bold" font-size="66.4" fill="#45A6DE" transform="matrix(1.00, 0.00, -0.00, -1.00, 534.6, 579.0)">e</text><text xml:space="preserve" font-family="ComicSansMS-Bold" font-weight="bold" font-size="66.4" fill="#45A6DE" transform="matrix(1.00, 0.00, -0.00, -1.00, 571.7, 579.0)">s</text><text xml:space="preserve" font-family="ComicSansMS-Bold" font-weight="bold" font-size="66.4" fill="#45A6DE" transform="matrix(1.00, 0.00, -0.00, -1.00, 604.0, 579.0)">t</text><text xml:space="preserve" font-family="ComicSansMS-Bold" font-weight="bold" font-size="66.4" fill="#45A6DE" transform="matrix(1.00, 0.00, -0.00, -1.00, 635.3, 579.0)">i</text><text xml:space="preserve" font-family="ComicSansMS-Bold" font-weight="bold" font-size="66.4" fill="#45A6DE" transform="matrix(1.00, 0.00, -0.00, -1.00, 653.9, 579.0)">n</text><text xml:space="preserve" font-family="ComicSansMS-Bold" font-weight="bold" font-size="66.4" fill="#45A6DE" transform="matrix(1.00, 0.00, -0.00, -1.00, 688.7, 579.0)">g</text><g><clipPath id="clip-430"><path d="M 142.0 509.5 L 166.7 509.5 L 166.7 532.6 L 142.0 532.6 Z M 142.0 509.5 "></path></clipPath><g clip-path="url(#clip-430)"><path d="M 166.4 517.8 C 166.6 517.5 166.7 517.1 166.7 516.7 C 166.7 516.0 166.3 515.3 165.5 514.7 C 164.7 514.1 163.8 513.7 162.7 513.7 C 161.4 513.7 159.8 514.7 158.0 516.7 C 158.0 516.7 158.0 513.7 158.0 513.7 C 158.0 513.5 158.1 513.1 158.3 512.7 C 158.4 512.3 158.5 512.0 158.5 511.8 C 158.5 511.2 158.2 510.6 157.6 510.2 C 156.9 509.8 156.3 509.5 155.7 509.5 C 154.6 509.5 153.6 510.0 152.8 511.0 C 152.5 511.3 152.5 512.1 152.6 513.4 C 152.6 514.7 152.7 516.1 152.8 517.4 C 152.1 517.0 150.8 516.2 148.8 515.2 C 148.6 514.8 147.8 514.4 146.5 514.0 C 145.5 513.9 144.5 514.0 143.5 514.5 C 142.5 515.0 142.0 515.6 142.0 516.4 C 142.0 516.6 142.0 516.7 142.1 516.9 C 142.3 517.4 142.7 517.7 143.4 517.9 C 144.4 518.2 145.0 518.4 145.1 518.5 C 145.1 518.5 150.5 521.4 150.5 521.4 C 150.5 521.4 146.7 523.3 146.7 523.3 C 146.1 523.3 145.3 523.6 144.4 524.1 C 144.2 524.4 144.1 524.7 144.1 525.1 C 144.1 526.0 144.7 526.9 145.7 527.8 C 146.8 528.6 147.9 529.1 149.1 529.1 C 149.4 529.1 149.7 529.0 150.1 528.9 C 150.5 528.8 150.8 528.4 151.1 527.9 C 151.4 527.2 152.0 526.6 152.8 526.2 C 152.8 526.2 152.9 529.6 152.9 529.6 C 152.8 530.1 152.8 530.8 152.9 531.7 C 153.4 532.3 154.3 532.6 155.9 532.6 C 157.3 532.6 158.3 532.2 158.7 531.4 C 158.9 531.0 159.0 530.2 158.8 529.0 C 158.7 527.9 158.6 526.8 158.4 525.6 C 158.4 525.6 160.5 526.7 160.5 526.7 C 160.9 527.1 161.6 527.6 162.7 528.0 C 163.5 528.1 164.3 527.8 165.0 527.1 C 165.8 526.5 166.2 525.8 166.2 525.0 C 166.2 524.7 166.1 524.3 165.9 524.1 C 165.7 523.8 165.3 523.6 164.9 523.5 C 164.2 523.3 163.8 523.2 163.6 523.0 C 163.6 523.0 160.6 520.9 160.6 520.9 C 160.6 520.9 164.5 518.8 164.5 518.8 C 165.0 518.7 165.6 518.3 166.4 517.8 Z M 166.4 517.8 " fill="#3995D6"></path></g></g><text xml:space="preserve" font-family="ComicSansMS" font-size="33.1" fill="#858585" transform="matrix(1.00, 0.00, -0.00, -1.00, 174.0, 508.0)">T</text><text xml:space="preserve" font-family="ComicSansMS" font-size="33.1" fill="#858585" transform="matrix(1.00, 0.00, -0.00, -1.00, 196.5, 508.0)">e</text><text xml:space="preserve" font-family="ComicSansMS" font-size="33.1" fill="#858585" transform="matrix(1.00, 0.00, -0.00, -1.00, 214.6, 508.0)">s</text><text xml:space="preserve" font-family="ComicSansMS" font-size="33.1" fill="#858585" transform="matrix(1.00, 0.00, -0.00, -1.00, 230.8, 508.0)">t</text><text xml:space="preserve" font-family="ComicSansMS" font-size="33.1" fill="#858585" transform="matrix(1.00, 0.00, -0.00, -1.00, 246.4, 508.0)"> </text><text xml:space="preserve" font-family="ComicSansMS" font-size="33.1" fill="#858585" transform="matrix(1.00, 0.00, -0.00, -1.00, 256.3, 508.0)">o</text><text xml:space="preserve" font-family="ComicSansMS" font-size="33.1" fill="#858585" transform="matrix(1.00, 0.00, -0.00, -1.00, 273.7, 508.0)">n</text><text xml:space="preserve" font-family="ComicSansMS" font-size="33.1" fill="#858585" transform="matrix(1.00, 0.00, -0.00, -1.00, 291.0, 508.0)"> </text><text xml:space="preserve" font-family="ComicSansMS" font-size="33.1" fill="#858585" transform="matrix(1.00, 0.00, -0.00, -1.00, 300.9, 508.0)">s</text><text xml:space="preserve" font-family="ComicSansMS" font-size="33.1" fill="#858585" transform="matrix(1.00, 0.00, -0.00, -1.00, 317.0, 508.0)">i</text><text xml:space="preserve" font-family="ComicSansMS" font-size="33.1" fill="#858585" transform="matrix(1.00, 0.00, -0.00, -1.00, 326.3, 508.0)">m</text><text xml:space="preserve" font-family="ComicSansMS" font-size="33.1" fill="#858585" transform="matrix(1.00, 0.00, -0.00, -1.00, 352.1, 508.0)">u</text><text xml:space="preserve" font-family="ComicSansMS" font-size="33.1" fill="#858585" transform="matrix(1.00, 0.00, -0.00, -1.00, 369.3, 508.0)">l</text><text xml:space="preserve" font-family="ComicSansMS" font-size="33.1" fill="#858585" transform="matrix(1.00, 0.00, -0.00, -1.00, 378.3, 508.0)">a</text><text xml:space="preserve" font-family="ComicSansMS" font-size="33.1" fill="#858585" transform="matrix(1.00, 0.00, -0.00, -1.00, 395.3, 508.0)">t</text><text xml:space="preserve" font-family="ComicSansMS" font-size="33.1" fill="#858585" transform="matrix(1.00, 0.00, -0.00, -1.00, 410.9, 508.0)">e</text><text xml:space="preserve" font-family="ComicSansMS" font-size="33.1" fill="#858585" transform="matrix(1.00, 0.00, -0.00, -1.00, 429.0, 508.0)">d</text><text xml:space="preserve" font-family="ComicSansMS" font-size="33.1" fill="#858585" transform="matrix(1.00, 0.00, -0.00, -1.00, 448.5, 508.0)"> </text><text xml:space="preserve" font-family="ComicSansMS" font-size="33.1" fill="#858585" transform="matrix(1.00, 0.00, -0.00, -1.00, 458.4, 508.0)">o</text><text xml:space="preserve" font-family="ComicSansMS" font-size="33.1" fill="#858585" transform="matrix(1.00, 0.00, -0.00, -1.00, 475.8, 508.0)">r</text><text xml:space="preserve" font-family="ComicSansMS" font-size="33.1" fill="#858585" transform="matrix(1.00, 0.00, -0.00, -1.00, 491.7, 508.0)"> </text><text xml:space="preserve" font-family="ComicSansMS" font-size="33.1" fill="#858585" transform="matrix(1.00, 0.00, -0.00, -1.00, 174.0, 462.0)">p</text><text xml:space="preserve" font-family="ComicSansMS" font-size="33.1" fill="#858585" transform="matrix(1.00, 0.00, -0.00, -1.00, 191.7, 462.0)">h</text><text xml:space="preserve" font-family="ComicSansMS" font-size="33.1" fill="#858585" transform="matrix(1.00, 0.00, -0.00, -1.00, 210.8, 462.0)">y</text><text xml:space="preserve" font-family="ComicSansMS" font-size="33.1" fill="#858585" transform="matrix(1.00, 0.00, -0.00, -1.00, 228.0, 462.0)">s</text><text xml:space="preserve" font-family="ComicSansMS" font-size="33.1" fill="#858585" transform="matrix(1.00, 0.00, -0.00, -1.00, 244.2, 462.0)">i</text><text xml:space="preserve" font-family="ComicSansMS" font-size="33.1" fill="#858585" transform="matrix(1.00, 0.00, -0.00, -1.00, 253.5, 462.0)">c</text><text xml:space="preserve" font-family="ComicSansMS" font-size="33.1" fill="#858585" transform="matrix(1.00, 0.00, -0.00, -1.00, 270.5, 462.0)">a</text><text xml:space="preserve" font-family="ComicSansMS" font-size="33.1" fill="#858585" transform="matrix(1.00, 0.00, -0.00, -1.00, 287.4, 462.0)">l</text><text xml:space="preserve" font-family="ComicSansMS" font-size="33.1" fill="#858585" transform="matrix(1.00, 0.00, -0.00, -1.00, 296.5, 462.0)"> </text><text xml:space="preserve" font-family="ComicSansMS" font-size="33.1" fill="#858585" transform="matrix(1.00, 0.00, -0.00, -1.00, 306.4, 462.0)">d</text><text xml:space="preserve" font-family="ComicSansMS" font-size="33.1" fill="#858585" transform="matrix(1.00, 0.00, -0.00, -1.00, 325.8, 462.0)">e</text><text xml:space="preserve" font-family="ComicSansMS" font-size="33.1" fill="#858585" transform="matrix(1.00, 0.00, -0.00, -1.00, 344.0, 462.0)">v</text><text xml:space="preserve" font-family="ComicSansMS" font-size="33.1" fill="#858585" transform="matrix(1.00, 0.00, -0.00, -1.00, 360.1, 462.0)">i</text><text xml:space="preserve" font-family="ComicSansMS" font-size="33.1" fill="#858585" transform="matrix(1.00, 0.00, -0.00, -1.00, 369.4, 462.0)">c</text><text xml:space="preserve" font-family="ComicSansMS" font-size="33.1" fill="#858585" transform="matrix(1.00, 0.00, -0.00, -1.00, 386.4, 462.0)">e</text><text xml:space="preserve" font-family="ComicSansMS" font-size="33.1" fill="#858585" transform="matrix(1.00, 0.00, -0.00, -1.00, 404.5, 462.0)">,</text><text xml:space="preserve" font-family="ComicSansMS" font-size="33.1" fill="#858585" transform="matrix(1.00, 0.00, -0.00, -1.00, 413.7, 462.0)"> </text><text xml:space="preserve" font-family="ComicSansMS" font-size="33.1" fill="#858585" transform="matrix(1.00, 0.00, -0.00, -1.00, 423.6, 462.0)">i</text><text xml:space="preserve" font-family="ComicSansMS" font-size="33.1" fill="#858585" transform="matrix(1.00, 0.00, -0.00, -1.00, 432.9, 462.0)">n</text><text xml:space="preserve" font-family="ComicSansMS" font-size="33.1" fill="#858585" transform="matrix(1.00, 0.00, -0.00, -1.00, 450.3, 462.0)"> </text><text xml:space="preserve" font-family="ComicSansMS" font-size="33.1" fill="#858585" transform="matrix(1.00, 0.00, -0.00, -1.00, 460.1, 462.0)">t</text><text xml:space="preserve" font-family="ComicSansMS" font-size="33.1" fill="#858585" transform="matrix(1.00, 0.00, -0.00, -1.00, 475.8, 462.0)">h</text><text xml:space="preserve" font-family="ComicSansMS" font-size="33.1" fill="#858585" transform="matrix(1.00, 0.00, -0.00, -1.00, 494.9, 462.0)">e</text><text xml:space="preserve" font-family="ComicSansMS" font-size="33.1" fill="#858585" transform="matrix(1.00, 0.00, -0.00, -1.00, 513.0, 462.0)"> </text><text xml:space="preserve" font-family="ComicSansMS" font-size="33.1" fill="#858585" transform="matrix(1.00, 0.00, -0.00, -1.00, 174.0, 416.0)">b</text><text xml:space="preserve" font-family="ComicSansMS" font-size="33.1" fill="#858585" transform="matrix(1.00, 0.00, -0.00, -1.00, 193.7, 416.0)">r</text><text xml:space="preserve" font-family="ComicSansMS" font-size="33.1" fill="#858585" transform="matrix(1.00, 0.00, -0.00, -1.00, 209.6, 416.0)">o</text><text xml:space="preserve" font-family="ComicSansMS" font-size="33.1" fill="#858585" transform="matrix(1.00, 0.00, -0.00, -1.00, 227.0, 416.0)">w</text><text xml:space="preserve" font-family="ComicSansMS" font-size="33.1" fill="#858585" transform="matrix(1.00, 0.00, -0.00, -1.00, 249.7, 416.0)">s</text><text xml:space="preserve" font-family="ComicSansMS" font-size="33.1" fill="#858585" transform="matrix(1.00, 0.00, -0.00, -1.00, 265.8, 416.0)">e</text><text xml:space="preserve" font-family="ComicSansMS" font-size="33.1" fill="#858585" transform="matrix(1.00, 0.00, -0.00, -1.00, 283.9, 416.0)">r</text><text xml:space="preserve" font-family="ComicSansMS" font-size="33.1" fill="#858585" transform="matrix(1.00, 0.00, -0.00, -1.00, 299.9, 416.0)"> </text><g><clipPath id="clip-431"><path d="M 142.0 336.6 L 166.7 336.6 L 166.7 359.7 L 142.0 359.7 Z M 142.0 336.6 "></path></clipPath><g clip-path="url(#clip-431)"><path d="M 166.4 344.9 C 166.6 344.5 166.7 344.1 166.7 343.8 C 166.7 343.0 166.3 342.4 165.5 341.7 C 164.7 341.1 163.8 340.8 162.7 340.8 C 161.4 340.8 159.8 341.8 158.0 343.8 C 158.0 343.8 158.0 340.8 158.0 340.8 C 158.0 340.5 158.1 340.1 158.3 339.7 C 158.4 339.3 158.5 339.0 158.5 338.8 C 158.5 338.2 158.2 337.7 157.6 337.2 C 156.9 336.8 156.3 336.6 155.7 336.6 C 154.6 336.6 153.6 337.1 152.8 338.0 C 152.5 338.3 152.5 339.1 152.6 340.4 C 152.6 341.8 152.7 343.1 152.8 344.5 C 152.1 344.0 150.8 343.2 148.8 342.2 C 148.6 341.8 147.8 341.4 146.5 341.0 C 145.5 340.9 144.5 341.1 143.5 341.5 C 142.5 342.0 142.0 342.6 142.0 343.4 C 142.0 343.6 142.0 343.8 142.1 344.0 C 142.3 344.4 142.7 344.7 143.4 344.9 C 144.4 345.3 145.0 345.5 145.1 345.5 C 145.1 345.5 150.5 348.5 150.5 348.5 C 150.5 348.5 146.7 350.4 146.7 350.4 C 146.1 350.4 145.3 350.6 144.4 351.2 C 144.2 351.5 144.1 351.8 144.1 352.1 C 144.1 353.0 144.7 353.9 145.7 354.8 C 146.8 355.7 147.9 356.1 149.1 356.1 C 149.4 356.1 149.7 356.0 150.1 355.9 C 150.5 355.8 150.8 355.5 151.1 354.9 C 151.4 354.3 152.0 353.7 152.8 353.2 C 152.8 353.2 152.9 356.7 152.9 356.7 C 152.8 357.2 152.8 357.9 152.9 358.8 C 153.4 359.4 154.3 359.7 155.9 359.7 C 157.3 359.7 158.3 359.2 158.7 358.4 C 158.9 358.1 159.0 357.3 158.8 356.0 C 158.7 354.9 158.6 353.8 158.4 352.7 C 158.4 352.7 160.5 353.7 160.5 353.7 C 160.9 354.1 161.6 354.6 162.7 355.1 C 163.5 355.1 164.3 354.8 165.0 354.2 C 165.8 353.5 166.2 352.8 166.2 352.0 C 166.2 351.7 166.1 351.4 165.9 351.1 C 165.7 350.8 165.3 350.6 164.9 350.5 C 164.2 350.4 163.8 350.2 163.6 350.1 C 163.6 350.1 160.6 348.0 160.6 348.0 C 160.6 348.0 164.5 345.9 164.5 345.9 C 165.0 345.7 165.6 345.4 166.4 344.9 Z M 166.4 344.9 " fill="#3995D6"></path></g></g><text xml:space="preserve" font-family="ComicSansMS" font-size="33.1" fill="#858585" transform="matrix(1.00, 0.00, -0.00, -1.00, 174.0, 335.0)">A</text><text xml:space="preserve" font-family="ComicSansMS" font-size="33.1" fill="#858585" transform="matrix(1.00, 0.00, -0.00, -1.00, 198.2, 335.0)">b</text><text xml:space="preserve" font-family="ComicSansMS" font-size="33.1" fill="#858585" transform="matrix(1.00, 0.00, -0.00, -1.00, 217.9, 335.0)">l</text><text xml:space="preserve" font-family="ComicSansMS" font-size="33.1" fill="#858585" transform="matrix(1.00, 0.00, -0.00, -1.00, 227.0, 335.0)">e</text><text xml:space="preserve" font-family="ComicSansMS" font-size="33.1" fill="#858585" transform="matrix(1.00, 0.00, -0.00, -1.00, 245.1, 335.0)"> </text><text xml:space="preserve" font-family="ComicSansMS" font-size="33.1" fill="#858585" transform="matrix(1.00, 0.00, -0.00, -1.00, 255.0, 335.0)">t</text><text xml:space="preserve" font-family="ComicSansMS" font-size="33.1" fill="#858585" transform="matrix(1.00, 0.00, -0.00, -1.00, 270.6, 335.0)">o</text><text xml:space="preserve" font-family="ComicSansMS" font-size="33.1" fill="#858585" transform="matrix(1.00, 0.00, -0.00, -1.00, 288.0, 335.0)"> </text><text xml:space="preserve" font-family="ComicSansMS" font-size="33.1" fill="#858585" transform="matrix(1.00, 0.00, -0.00, -1.00, 297.9, 335.0)">a</text><text xml:space="preserve" font-family="ComicSansMS" font-size="33.1" fill="#858585" transform="matrix(1.00, 0.00, -0.00, -1.00, 314.9, 335.0)">c</text><text xml:space="preserve" font-family="ComicSansMS" font-size="33.1" fill="#858585" transform="matrix(1.00, 0.00, -0.00, -1.00, 331.9, 335.0)">c</text><text xml:space="preserve" font-family="ComicSansMS" font-size="33.1" fill="#858585" transform="matrix(1.00, 0.00, -0.00, -1.00, 348.9, 335.0)">e</text><text xml:space="preserve" font-family="ComicSansMS" font-size="33.1" fill="#858585" transform="matrix(1.00, 0.00, -0.00, -1.00, 367.0, 335.0)">s</text><text xml:space="preserve" font-family="ComicSansMS" font-size="33.1" fill="#858585" transform="matrix(1.00, 0.00, -0.00, -1.00, 383.1, 335.0)">s</text><text xml:space="preserve" font-family="ComicSansMS" font-size="33.1" fill="#858585" transform="matrix(1.00, 0.00, -0.00, -1.00, 399.2, 335.0)"> </text><text xml:space="preserve" font-family="ComicSansMS" font-size="33.1" fill="#858585" transform="matrix(1.00, 0.00, -0.00, -1.00, 409.1, 335.0)">y</text><text xml:space="preserve" font-family="ComicSansMS" font-size="33.1" fill="#858585" transform="matrix(1.00, 0.00, -0.00, -1.00, 426.3, 335.0)">o</text><text xml:space="preserve" font-family="ComicSansMS" font-size="33.1" fill="#858585" transform="matrix(1.00, 0.00, -0.00, -1.00, 443.8, 335.0)">u</text><text xml:space="preserve" font-family="ComicSansMS" font-size="33.1" fill="#858585" transform="matrix(1.00, 0.00, -0.00, -1.00, 461.0, 335.0)">r</text><text xml:space="preserve" font-family="ComicSansMS" font-size="33.1" fill="#858585" transform="matrix(1.00, 0.00, -0.00, -1.00, 476.9, 335.0)"> </text><text xml:space="preserve" font-family="ComicSansMS" font-size="33.1" fill="#858585" transform="matrix(1.00, 0.00, -0.00, -1.00, 174.0, 289.0)">l</text><text xml:space="preserve" font-family="ComicSansMS" font-size="33.1" fill="#858585" transform="matrix(1.00, 0.00, -0.00, -1.00, 183.1, 289.0)">o</text><text xml:space="preserve" font-family="ComicSansMS" font-size="33.1" fill="#858585" transform="matrix(1.00, 0.00, -0.00, -1.00, 200.5, 289.0)">c</text><text xml:space="preserve" font-family="ComicSansMS" font-size="33.1" fill="#858585" transform="matrix(1.00, 0.00, -0.00, -1.00, 217.5, 289.0)">a</text><text xml:space="preserve" font-family="ComicSansMS" font-size="33.1" fill="#858585" transform="matrix(1.00, 0.00, -0.00, -1.00, 234.4, 289.0)">l</text><text xml:space="preserve" font-family="ComicSansMS" font-size="33.1" fill="#858585" transform="matrix(1.00, 0.00, -0.00, -1.00, 243.5, 289.0)">h</text><text xml:space="preserve" font-family="ComicSansMS" font-size="33.1" fill="#858585" transform="matrix(1.00, 0.00, -0.00, -1.00, 262.6, 289.0)">o</text><text xml:space="preserve" font-family="ComicSansMS" font-size="33.1" fill="#858585" transform="matrix(1.00, 0.00, -0.00, -1.00, 280.0, 289.0)">s</text><text xml:space="preserve" font-family="ComicSansMS" font-size="33.1" fill="#858585" transform="matrix(1.00, 0.00, -0.00, -1.00, 296.2, 289.0)">t</text><text xml:space="preserve" font-family="ComicSansMS" font-size="33.1" fill="#858585" transform="matrix(1.00, 0.00, -0.00, -1.00, 311.8, 289.0)"> </text><text xml:space="preserve" font-family="ComicSansMS" font-size="33.1" fill="#858585" transform="matrix(1.00, 0.00, -0.00, -1.00, 321.7, 289.0)">a</text><text xml:space="preserve" font-family="ComicSansMS" font-size="33.1" fill="#858585" transform="matrix(1.00, 0.00, -0.00, -1.00, 338.6, 289.0)">n</text><text xml:space="preserve" font-family="ComicSansMS" font-size="33.1" fill="#858585" transform="matrix(1.00, 0.00, -0.00, -1.00, 356.0, 289.0)">d</text><text xml:space="preserve" font-family="ComicSansMS" font-size="33.1" fill="#858585" transform="matrix(1.00, 0.00, -0.00, -1.00, 375.5, 289.0)"> </text><text xml:space="preserve" font-family="ComicSansMS" font-size="33.1" fill="#858585" transform="matrix(1.00, 0.00, -0.00, -1.00, 385.4, 289.0)">l</text><text xml:space="preserve" font-family="ComicSansMS" font-size="33.1" fill="#858585" transform="matrix(1.00, 0.00, -0.00, -1.00, 394.4, 289.0)">o</text><text xml:space="preserve" font-family="ComicSansMS" font-size="33.1" fill="#858585" transform="matrix(1.00, 0.00, -0.00, -1.00, 411.8, 289.0)">c</text><text xml:space="preserve" font-family="ComicSansMS" font-size="33.1" fill="#858585" transform="matrix(1.00, 0.00, -0.00, -1.00, 428.8, 289.0)">a</text><text xml:space="preserve" font-family="ComicSansMS" font-size="33.1" fill="#858585" transform="matrix(1.00, 0.00, -0.00, -1.00, 445.8, 289.0)">l</text><text xml:space="preserve" font-family="ComicSansMS" font-size="33.1" fill="#858585" transform="matrix(1.00, 0.00, -0.00, -1.00, 454.9, 289.0)"> </text><text xml:space="preserve" font-family="ComicSansMS" font-size="33.1" fill="#858585" transform="matrix(1.00, 0.00, -0.00, -1.00, 174.0, 243.0)">n</text><text xml:space="preserve" font-family="ComicSansMS" font-size="33.1" fill="#858585" transform="matrix(1.00, 0.00, -0.00, -1.00, 191.3, 243.0)">e</text><text xml:space="preserve" font-family="ComicSansMS" font-size="33.1" fill="#858585" transform="matrix(1.00, 0.00, -0.00, -1.00, 209.5, 243.0)">t</text><text xml:space="preserve" font-family="ComicSansMS" font-size="33.1" fill="#858585" transform="matrix(1.00, 0.00, -0.00, -1.00, 225.1, 243.0)">w</text><text xml:space="preserve" font-family="ComicSansMS" font-size="33.1" fill="#858585" transform="matrix(1.00, 0.00, -0.00, -1.00, 247.8, 243.0)">o</text><text xml:space="preserve" font-family="ComicSansMS" font-size="33.1" fill="#858585" transform="matrix(1.00, 0.00, -0.00, -1.00, 265.2, 243.0)">r</text><text xml:space="preserve" font-family="ComicSansMS" font-size="33.1" fill="#858585" transform="matrix(1.00, 0.00, -0.00, -1.00, 281.1, 243.0)">k</text><text xml:space="preserve" font-family="ComicSansMS" font-size="33.1" fill="#858585" transform="matrix(1.00, 0.00, -0.00, -1.00, 299.0, 243.0)"> </text><g><clipPath id="clip-432"><path d="M 142.0 163.6 L 166.7 163.6 L 166.7 186.7 L 142.0 186.7 Z M 142.0 163.6 "></path></clipPath><g clip-path="url(#clip-432)"><path d="M 166.4 171.9 C 166.6 171.6 166.7 171.2 166.7 170.8 C 166.7 170.1 166.3 169.4 165.5 168.8 C 164.7 168.1 163.8 167.8 162.7 167.8 C 161.4 167.8 159.8 168.8 158.0 170.8 C 158.0 170.8 158.0 167.8 158.0 167.8 C 158.0 167.5 158.1 167.2 158.3 166.8 C 158.4 166.4 158.5 166.1 158.5 165.9 C 158.5 165.2 158.2 164.7 157.6 164.3 C 156.9 163.8 156.3 163.6 155.7 163.6 C 154.6 163.6 153.6 164.1 152.8 165.1 C 152.5 165.4 152.5 166.2 152.6 167.5 C 152.6 168.8 152.7 170.2 152.8 171.5 C 152.1 171.0 150.8 170.3 148.8 169.3 C 148.6 168.9 147.8 168.5 146.5 168.0 C 145.5 167.9 144.5 168.1 143.5 168.6 C 142.5 169.0 142.0 169.7 142.0 170.4 C 142.0 170.6 142.0 170.8 142.1 171.0 C 142.3 171.5 142.7 171.8 143.4 172.0 C 144.4 172.3 145.0 172.5 145.1 172.5 C 145.1 172.5 150.5 175.5 150.5 175.5 C 150.5 175.5 146.7 177.4 146.7 177.4 C 146.1 177.4 145.3 177.7 144.4 178.2 C 144.2 178.5 144.1 178.8 144.1 179.1 C 144.1 180.1 144.7 181.0 145.7 181.8 C 146.8 182.7 147.9 183.1 149.1 183.1 C 149.4 183.1 149.7 183.1 150.1 183.0 C 150.5 182.8 150.8 182.5 151.1 182.0 C 151.4 181.3 152.0 180.7 152.8 180.2 C 152.8 180.2 152.9 183.7 152.9 183.7 C 152.8 184.2 152.8 184.9 152.9 185.8 C 153.4 186.4 154.3 186.7 155.9 186.7 C 157.3 186.7 158.3 186.3 158.7 185.5 C 158.9 185.1 159.0 184.3 158.8 183.1 C 158.7 182.0 158.6 180.8 158.4 179.7 C 158.4 179.7 160.5 180.7 160.5 180.7 C 160.9 181.2 161.6 181.6 162.7 182.1 C 163.5 182.2 164.3 181.9 165.0 181.2 C 165.8 180.6 166.2 179.9 166.2 179.1 C 166.2 178.7 166.1 178.4 165.9 178.1 C 165.7 177.8 165.3 177.6 164.9 177.6 C 164.2 177.4 163.8 177.3 163.6 177.1 C 163.6 177.1 160.6 175.0 160.6 175.0 C 160.6 175.0 164.5 172.9 164.5 172.9 C 165.0 172.8 165.6 172.4 166.4 171.9 Z M 166.4 171.9 " fill="#3995D6"></path></g></g><text xml:space="preserve" font-family="ComicSansMS" font-size="33.1" fill="#858585" transform="matrix(1.00, 0.00, -0.00, -1.00, 174.0, 162.0)">R</text><text xml:space="preserve" font-family="ComicSansMS" font-size="33.1" fill="#858585" transform="matrix(1.00, 0.00, -0.00, -1.00, 194.8, 162.0)">e</text><text xml:space="preserve" font-family="ComicSansMS" font-size="33.1" fill="#858585" transform="matrix(1.00, 0.00, -0.00, -1.00, 213.0, 162.0)">s</text><text xml:space="preserve" font-family="ComicSansMS" font-size="33.1" fill="#858585" transform="matrix(1.00, 0.00, -0.00, -1.00, 229.1, 162.0)">p</text><text xml:space="preserve" font-family="ComicSansMS" font-size="33.1" fill="#858585" transform="matrix(1.00, 0.00, -0.00, -1.00, 246.7, 162.0)">o</text><text xml:space="preserve" font-family="ComicSansMS" font-size="33.1" fill="#858585" transform="matrix(1.00, 0.00, -0.00, -1.00, 264.1, 162.0)">n</text><text xml:space="preserve" font-family="ComicSansMS" font-size="33.1" fill="#858585" transform="matrix(1.00, 0.00, -0.00, -1.00, 281.5, 162.0)">s</text><text xml:space="preserve" font-family="ComicSansMS" font-size="33.1" fill="#858585" transform="matrix(1.00, 0.00, -0.00, -1.00, 297.6, 162.0)">i</text><text xml:space="preserve" font-family="ComicSansMS" font-size="33.1" fill="#858585" transform="matrix(1.00, 0.00, -0.00, -1.00, 306.9, 162.0)">v</text><text xml:space="preserve" font-family="ComicSansMS" font-size="33.1" fill="#858585" transform="matrix(1.00, 0.00, -0.00, -1.00, 323.0, 162.0)">e</text><text xml:space="preserve" font-family="ComicSansMS" font-size="33.1" fill="#858585" transform="matrix(1.00, 0.00, -0.00, -1.00, 341.1, 162.0)"> </text><text xml:space="preserve" font-family="ComicSansMS" font-size="33.1" fill="#858585" transform="matrix(1.00, 0.00, -0.00, -1.00, 351.0, 162.0)">a</text><text xml:space="preserve" font-family="ComicSansMS" font-size="33.1" fill="#858585" transform="matrix(1.00, 0.00, -0.00, -1.00, 367.9, 162.0)">n</text><text xml:space="preserve" font-family="ComicSansMS" font-size="33.1" fill="#858585" transform="matrix(1.00, 0.00, -0.00, -1.00, 385.3, 162.0)">d</text><text xml:space="preserve" font-family="ComicSansMS" font-size="33.1" fill="#858585" transform="matrix(1.00, 0.00, -0.00, -1.00, 404.8, 162.0)"> </text><text xml:space="preserve" font-family="ComicSansMS" font-size="33.1" fill="#858585" transform="matrix(1.00, 0.00, -0.00, -1.00, 414.6, 162.0)">1</text><text xml:space="preserve" font-family="ComicSansMS" font-size="33.1" fill="#858585" transform="matrix(1.00, 0.00, -0.00, -1.00, 429.6, 162.0)">0</text><text xml:space="preserve" font-family="ComicSansMS" font-size="33.1" fill="#858585" transform="matrix(1.00, 0.00, -0.00, -1.00, 449.8, 162.0)">0</text><text xml:space="preserve" font-family="ComicSansMS" font-size="33.1" fill="#858585" transform="matrix(1.00, 0.00, -0.00, -1.00, 470.0, 162.0)">%</text><text xml:space="preserve" font-family="ComicSansMS" font-size="33.1" fill="#858585" transform="matrix(1.00, 0.00, -0.00, -1.00, 497.2, 162.0)">(</text><text xml:space="preserve" font-family="ComicSansMS" font-size="33.1" fill="#858585" transform="matrix(1.00, 0.00, -0.00, -1.00, 509.3, 162.0)">?</text><text xml:space="preserve" font-family="ComicSansMS" font-size="33.1" fill="#858585" transform="matrix(1.00, 0.00, -0.00, -1.00, 526.7, 162.0)">?</text><text xml:space="preserve" font-family="ComicSansMS" font-size="33.1" fill="#858585" transform="matrix(1.00, 0.00, -0.00, -1.00, 544.0, 162.0)">)</text><text xml:space="preserve" font-family="ComicSansMS" font-size="33.1" fill="#858585" transform="matrix(1.00, 0.00, -0.00, -1.00, 556.1, 162.0)"> </text><text xml:space="preserve" font-family="ComicSansMS" font-size="33.1" fill="#858585" transform="matrix(1.00, 0.00, -0.00, -1.00, 174.0, 116.0)">a</text><text xml:space="preserve" font-family="ComicSansMS" font-size="33.1" fill="#858585" transform="matrix(1.00, 0.00, -0.00, -1.00, 190.9, 116.0)">c</text><text xml:space="preserve" font-family="ComicSansMS" font-size="33.1" fill="#858585" transform="matrix(1.00, 0.00, -0.00, -1.00, 207.9, 116.0)">c</text><text xml:space="preserve" font-family="ComicSansMS" font-size="33.1" fill="#858585" transform="matrix(1.00, 0.00, -0.00, -1.00, 224.9, 116.0)">u</text><text xml:space="preserve" font-family="ComicSansMS" font-size="33.1" fill="#858585" transform="matrix(1.00, 0.00, -0.00, -1.00, 242.2, 116.0)">r</text><text xml:space="preserve" font-family="ComicSansMS" font-size="33.1" fill="#858585" transform="matrix(1.00, 0.00, -0.00, -1.00, 258.1, 116.0)">a</text><text xml:space="preserve" font-family="ComicSansMS" font-size="33.1" fill="#858585" transform="matrix(1.00, 0.00, -0.00, -1.00, 275.0, 116.0)">t</text><text xml:space="preserve" font-family="ComicSansMS" font-size="33.1" fill="#858585" transform="matrix(1.00, 0.00, -0.00, -1.00, 290.6, 116.0)">e</text><image xlink:href="2A2588DA33C4D518CBFBB064552F7259.png" width="259.00" height="482.00" transform="matrix(1.00, 0.00, -0.00, -1.00, 649.0, 539.0)"></image></g></svg>