<?xml version="1.0" encoding="UTF-8" standalone="no"?><svg xmlns="http://www.w3.org/2000/svg" xmlns:xlink="http://www.w3.org/1999/xlink" clip-rule="evenodd" stroke-miterlimit="4.00" viewBox="0 0 1024 768"><desc>SVG generated by Keynote</desc><defs></defs><g transform="matrix(1.00, 0.00, -0.00, -1.00, 0.0, 768.0)"><g><clipPath id="clip-336"><path d="M 0.0 768.0 L 1024.0 768.0 L 1024.0 0.0 L 0.0 0.0 Z M 0.0 768.0 "></path></clipPath><g clip-path="url(#clip-336)"><image xlink:href="../../AD43F5AB-7C1D-45DB-8B96-B58B9BFD50C8/assets/43DA95A1552523200D88D33196FD3A18.jpeg" width="1024.00" height="768.00" transform="matrix(1.00, 0.00, -0.00, -1.00, 0.0, 768.0)"></image></g></g><text xml:space="preserve" font-family="ComicSansMS-Bold" font-weight="bold" font-size="87.4" fill="#45A6DE" transform="matrix(1.00, 0.00, -0.00, -1.00, 286.0, 178.0)">T</text><text xml:space="preserve" font-family="ComicSansMS-Bold" font-weight="bold" font-size="87.4" fill="#45A6DE" transform="matrix(1.00, 0.00, -0.00, -1.00, 346.8, 178.0)">h</text><text xml:space="preserve" font-family="ComicSansMS-Bold" font-weight="bold" font-size="87.4" fill="#45A6DE" transform="matrix(1.00, 0.00, -0.00, -1.00, 397.2, 178.0)">a</text><text xml:space="preserve" font-family="ComicSansMS-Bold" font-weight="bold" font-size="87.4" fill="#45A6DE" transform="matrix(1.00, 0.00, -0.00, -1.00, 445.8, 178.0)">n</text><text xml:space="preserve" font-family="ComicSansMS-Bold" font-weight="bold" font-size="87.4" fill="#45A6DE" transform="matrix(1.00, 0.00, -0.00, -1.00, 491.6, 178.0)">k</text><text xml:space="preserve" font-family="ComicSansMS-Bold" font-weight="bold" font-size="87.4" fill="#45A6DE" transform="matrix(1.00, 0.00, -0.00, -1.00, 538.8, 178.0)"> </text><text xml:space="preserve" font-family="ComicSansMS-Bold" font-weight="bold" font-size="87.4" fill="#45A6DE" transform="matrix(1.00, 0.00, -0.00, -1.00, 576.6, 178.0)">y</text><text xml:space="preserve" font-family="ComicSansMS-Bold" font-weight="bold" font-size="87.4" fill="#45A6DE" transform="matrix(1.00, 0.00, -0.00, -1.00, 624.9, 178.0)">o</text><text xml:space="preserve" font-family="ComicSansMS-Bold" font-weight="bold" font-size="87.4" fill="#45A6DE" transform="matrix(1.00, 0.00, -0.00, -1.00, 670.9, 178.0)">u</text><text xml:space="preserve" font-family="ComicSansMS-Bold" font-weight="bold" font-size="87.4" fill="#45A6DE" transform="matrix(1.00, 0.00, -0.00, -1.00, 716.3, 178.0)">!</text><text xml:space="preserve" font-family="ComicSansMS" font-size="40.0" fill="#858484" transform="matrix(1.00, 0.00, -0.00, -1.00, 327.0, 83.0)">B</text><text xml:space="preserve" font-family="ComicSansMS" font-size="40.0" fill="#858484" transform="matrix(1.00, 0.00, -0.00, -1.00, 352.2, 83.0)">y</text><text xml:space="preserve" font-family="ComicSansMS" font-size="40.0" fill="#858484" transform="matrix(1.00, 0.00, -0.00, -1.00, 373.0, 83.0)">r</text><text xml:space="preserve" font-family="ComicSansMS" font-size="40.0" fill="#858484" transform="matrix(1.00, 0.00, -0.00, -1.00, 392.3, 83.0)">o</text><text xml:space="preserve" font-family="ComicSansMS" font-size="40.0" fill="#858484" transform="matrix(1.00, 0.00, -0.00, -1.00, 413.3, 83.0)">n</text><text xml:space="preserve" font-family="ComicSansMS" font-size="40.0" fill="#858484" transform="matrix(1.00, 0.00, -0.00, -1.00, 434.3, 83.0)"> </text><text xml:space="preserve" font-family="ComicSansMS" font-size="40.0" fill="#858484" transform="matrix(1.00, 0.00, -0.00, -1.00, 446.2, 83.0)">H</text><text xml:space="preserve" font-family="ComicSansMS" font-size="40.0" fill="#858484" transform="matrix(1.00, 0.00, -0.00, -1.00, 476.9, 83.0)">u</text><text xml:space="preserve" font-family="ComicSansMS" font-size="40.0" fill="#858484" transform="matrix(1.00, 0.00, -0.00, -1.00, 497.7, 83.0)">l</text><text xml:space="preserve" font-family="ComicSansMS" font-size="40.0" fill="#858484" transform="matrix(1.00, 0.00, -0.00, -1.00, 508.7, 83.0)">c</text><text xml:space="preserve" font-family="ComicSansMS" font-size="40.0" fill="#858484" transform="matrix(1.00, 0.00, -0.00, -1.00, 529.2, 83.0)">h</text><text xml:space="preserve" font-family="ComicSansMS" font-size="40.0" fill="#858484" transform="matrix(1.00, 0.00, -0.00, -1.00, 552.3, 83.0)">e</text><text xml:space="preserve" font-family="ComicSansMS" font-size="40.0" fill="#858484" transform="matrix(1.00, 0.00, -0.00, -1.00, 574.2, 83.0)">r</text><text xml:space="preserve" font-family="ComicSansMS" font-size="40.0" fill="#858484" transform="matrix(1.00, 0.00, -0.00, -1.00, 593.5, 83.0)"> </text><text xml:space="preserve" font-family="ComicSansMS" font-size="40.0" fill="#858484" transform="matrix(1.00, 0.00, -0.00, -1.00, 605.4, 83.0)">2</text><text xml:space="preserve" font-family="ComicSansMS" font-size="40.0" fill="#858484" transform="matrix(1.00, 0.00, -0.00, -1.00, 629.8, 83.0)">0</text><text xml:space="preserve" font-family="ComicSansMS" font-size="40.0" fill="#858484" transform="matrix(1.00, 0.00, -0.00, -1.00, 654.3, 83.0)">1</text><text xml:space="preserve" font-family="ComicSansMS" font-size="40.0" fill="#858484" transform="matrix(1.00, 0.00, -0.00, -1.00, 672.3, 83.0)">6</text><image xlink:href="97909A1BB725E563EFF4B4B588CF0611.png" width="300.00" height="300.00" transform="matrix(1.76, 0.00, -0.00, -1.76, 263.0, 751.0)"></image></g></svg>