<?xml version="1.0" encoding="UTF-8" standalone="no"?><svg xmlns="http://www.w3.org/2000/svg" xmlns:xlink="http://www.w3.org/1999/xlink" clip-rule="evenodd" stroke-miterlimit="4.00" viewBox="0 0 1024 768"><desc>SVG generated by Keynote</desc><defs></defs><g transform="matrix(1.00, 0.00, -0.00, -1.00, 0.0, 768.0)"><g><clipPath id="clip-339"><path d="M 0.0 768.0 L 1024.0 768.0 L 1024.0 0.0 L 0.0 0.0 Z M 0.0 768.0 "></path></clipPath><g clip-path="url(#clip-339)"><image xlink:href="../../AD43F5AB-7C1D-45DB-8B96-B58B9BFD50C8/assets/43DA95A1552523200D88D33196FD3A18.jpeg" width="1024.00" height="768.00" transform="matrix(1.00, 0.00, -0.00, -1.00, 0.0, 768.0)"></image></g></g><text xml:space="preserve" font-family="ComicSansMS-Bold" font-weight="bold" font-size="66.4" fill="#45A6DE" transform="matrix(1.00, 0.00, -0.00, -1.00, 120.0, 671.0)">S</text><text xml:space="preserve" font-family="ComicSansMS-Bold" font-weight="bold" font-size="66.4" fill="#45A6DE" transform="matrix(1.00, 0.00, -0.00, -1.00, 166.1, 671.0)">o</text><text xml:space="preserve" font-family="ComicSansMS-Bold" font-weight="bold" font-size="66.4" fill="#45A6DE" transform="matrix(1.00, 0.00, -0.00, -1.00, 201.0, 671.0)">m</text><text xml:space="preserve" font-family="ComicSansMS-Bold" font-weight="bold" font-size="66.4" fill="#45A6DE" transform="matrix(1.00, 0.00, -0.00, -1.00, 252.6, 671.0)">e</text><text xml:space="preserve" font-family="ComicSansMS-Bold" font-weight="bold" font-size="66.4" fill="#45A6DE" transform="matrix(1.00, 0.00, -0.00, -1.00, 289.7, 671.0)">o</text><text xml:space="preserve" font-family="ComicSansMS-Bold" font-weight="bold" font-size="66.4" fill="#45A6DE" transform="matrix(1.00, 0.00, -0.00, -1.00, 324.6, 671.0)">n</text><text xml:space="preserve" font-family="ComicSansMS-Bold" font-weight="bold" font-size="66.4" fill="#45A6DE" transform="matrix(1.00, 0.00, -0.00, -1.00, 359.4, 671.0)">e</text><text xml:space="preserve" font-family="ComicSansMS-Bold" font-weight="bold" font-size="66.4" fill="#45A6DE" transform="matrix(1.00, 0.00, -0.00, -1.00, 396.5, 671.0)"> </text><text xml:space="preserve" font-family="ComicSansMS-Bold" font-weight="bold" font-size="66.4" fill="#45A6DE" transform="matrix(1.00, 0.00, -0.00, -1.00, 425.3, 671.0)">f</text><text xml:space="preserve" font-family="ComicSansMS-Bold" font-weight="bold" font-size="66.4" fill="#45A6DE" transform="matrix(1.00, 0.00, -0.00, -1.00, 459.0, 671.0)">o</text><text xml:space="preserve" font-family="ComicSansMS-Bold" font-weight="bold" font-size="66.4" fill="#45A6DE" transform="matrix(1.00, 0.00, -0.00, -1.00, 494.0, 671.0)">u</text><text xml:space="preserve" font-family="ComicSansMS-Bold" font-weight="bold" font-size="66.4" fill="#45A6DE" transform="matrix(1.00, 0.00, -0.00, -1.00, 528.5, 671.0)">n</text><text xml:space="preserve" font-family="ComicSansMS-Bold" font-weight="bold" font-size="66.4" fill="#45A6DE" transform="matrix(1.00, 0.00, -0.00, -1.00, 563.3, 671.0)">d</text><text xml:space="preserve" font-family="ComicSansMS-Bold" font-weight="bold" font-size="66.4" fill="#45A6DE" transform="matrix(1.00, 0.00, -0.00, -1.00, 602.3, 671.0)"> </text><text xml:space="preserve" font-family="ComicSansMS-Bold" font-weight="bold" font-size="66.4" fill="#45A6DE" transform="matrix(1.00, 0.00, -0.00, -1.00, 631.1, 671.0)">a</text><text xml:space="preserve" font-family="ComicSansMS-Bold" font-weight="bold" font-size="66.4" fill="#45A6DE" transform="matrix(1.00, 0.00, -0.00, -1.00, 667.9, 671.0)"> </text><text xml:space="preserve" font-family="ComicSansMS-Bold" font-weight="bold" font-size="66.4" fill="#45A6DE" transform="matrix(1.00, 0.00, -0.00, -1.00, 696.7, 671.0)">b</text><text xml:space="preserve" font-family="ComicSansMS-Bold" font-weight="bold" font-size="66.4" fill="#45A6DE" transform="matrix(1.00, 0.00, -0.00, -1.00, 736.1, 671.0)">u</text><text xml:space="preserve" font-family="ComicSansMS-Bold" font-weight="bold" font-size="66.4" fill="#45A6DE" transform="matrix(1.00, 0.00, -0.00, -1.00, 770.6, 671.0)">g</text><text xml:space="preserve" font-family="ComicSansMS-Bold" font-weight="bold" font-size="66.4" fill="#45A6DE" transform="matrix(1.00, 0.00, -0.00, -1.00, 805.9, 671.0)"> </text><text xml:space="preserve" font-family="ComicSansMS-Bold" font-weight="bold" font-size="66.4" fill="#45A6DE" transform="matrix(1.00, 0.00, -0.00, -1.00, 834.6, 671.0)">o</text><text xml:space="preserve" font-family="ComicSansMS-Bold" font-weight="bold" font-size="66.4" fill="#45A6DE" transform="matrix(1.00, 0.00, -0.00, -1.00, 869.5, 671.0)">n</text><text xml:space="preserve" font-family="ComicSansMS-Bold" font-weight="bold" font-size="66.4" fill="#45A6DE" transform="matrix(1.00, 0.00, -0.00, -1.00, 904.3, 671.0)"> </text><text xml:space="preserve" font-family="ComicSansMS-Bold" font-weight="bold" font-size="66.4" fill="#45A6DE" transform="matrix(1.00, 0.00, -0.00, -1.00, 183.0, 579.0)">t</text><text xml:space="preserve" font-family="ComicSansMS-Bold" font-weight="bold" font-size="66.4" fill="#45A6DE" transform="matrix(1.00, 0.00, -0.00, -1.00, 214.3, 579.0)">h</text><text xml:space="preserve" font-family="ComicSansMS-Bold" font-weight="bold" font-size="66.4" fill="#45A6DE" transform="matrix(1.00, 0.00, -0.00, -1.00, 252.6, 579.0)">e</text><text xml:space="preserve" font-family="ComicSansMS-Bold" font-weight="bold" font-size="66.4" fill="#45A6DE" transform="matrix(1.00, 0.00, -0.00, -1.00, 289.7, 579.0)">i</text><text xml:space="preserve" font-family="ComicSansMS-Bold" font-weight="bold" font-size="66.4" fill="#45A6DE" transform="matrix(1.00, 0.00, -0.00, -1.00, 308.4, 579.0)">r</text><text xml:space="preserve" font-family="ComicSansMS-Bold" font-weight="bold" font-size="66.4" fill="#45A6DE" transform="matrix(1.00, 0.00, -0.00, -1.00, 340.3, 579.0)"> </text><text xml:space="preserve" font-family="ComicSansMS-Bold" font-weight="bold" font-size="66.4" fill="#45A6DE" transform="matrix(1.00, 0.00, -0.00, -1.00, 369.0, 579.0)">A</text><text xml:space="preserve" font-family="ComicSansMS-Bold" font-weight="bold" font-size="66.4" fill="#45A6DE" transform="matrix(1.00, 0.00, -0.00, -1.00, 417.6, 579.0)">n</text><text xml:space="preserve" font-family="ComicSansMS-Bold" font-weight="bold" font-size="66.4" fill="#45A6DE" transform="matrix(1.00, 0.00, -0.00, -1.00, 452.4, 579.0)">d</text><text xml:space="preserve" font-family="ComicSansMS-Bold" font-weight="bold" font-size="66.4" fill="#45A6DE" transform="matrix(1.00, 0.00, -0.00, -1.00, 491.4, 579.0)">r</text><text xml:space="preserve" font-family="ComicSansMS-Bold" font-weight="bold" font-size="66.4" fill="#45A6DE" transform="matrix(1.00, 0.00, -0.00, -1.00, 523.3, 579.0)">o</text><text xml:space="preserve" font-family="ComicSansMS-Bold" font-weight="bold" font-size="66.4" fill="#45A6DE" transform="matrix(1.00, 0.00, -0.00, -1.00, 558.2, 579.0)">i</text><text xml:space="preserve" font-family="ComicSansMS-Bold" font-weight="bold" font-size="66.4" fill="#45A6DE" transform="matrix(1.00, 0.00, -0.00, -1.00, 576.9, 579.0)">d</text><text xml:space="preserve" font-family="ComicSansMS-Bold" font-weight="bold" font-size="66.4" fill="#45A6DE" transform="matrix(1.00, 0.00, -0.00, -1.00, 615.9, 579.0)"> </text><text xml:space="preserve" font-family="ComicSansMS-Bold" font-weight="bold" font-size="66.4" fill="#45A6DE" transform="matrix(1.00, 0.00, -0.00, -1.00, 644.6, 579.0)">p</text><text xml:space="preserve" font-family="ComicSansMS-Bold" font-weight="bold" font-size="66.4" fill="#45A6DE" transform="matrix(1.00, 0.00, -0.00, -1.00, 680.1, 579.0)">h</text><text xml:space="preserve" font-family="ComicSansMS-Bold" font-weight="bold" font-size="66.4" fill="#45A6DE" transform="matrix(1.00, 0.00, -0.00, -1.00, 718.4, 579.0)">o</text><text xml:space="preserve" font-family="ComicSansMS-Bold" font-weight="bold" font-size="66.4" fill="#45A6DE" transform="matrix(1.00, 0.00, -0.00, -1.00, 753.3, 579.0)">n</text><text xml:space="preserve" font-family="ComicSansMS-Bold" font-weight="bold" font-size="66.4" fill="#45A6DE" transform="matrix(1.00, 0.00, -0.00, -1.00, 788.1, 579.0)">e</text><text xml:space="preserve" font-family="ComicSansMS-Bold" font-weight="bold" font-size="66.4" fill="#45A6DE" transform="matrix(1.00, 0.00, -0.00, -1.00, 825.2, 579.0)">!</text><g><clipPath id="clip-340"><path d="M 104.0 497.8 L 134.0 497.8 L 134.0 525.8 L 104.0 525.8 Z M 104.0 497.8 "></path></clipPath><g clip-path="url(#clip-340)"><path d="M 133.6 507.8 C 133.9 507.4 134.0 507.0 134.0 506.5 C 134.0 505.6 133.5 504.8 132.5 504.0 C 131.5 503.3 130.4 502.9 129.2 502.9 C 127.5 502.9 125.6 504.1 123.4 506.5 C 123.4 506.5 123.4 502.9 123.4 502.9 C 123.4 502.6 123.5 502.1 123.7 501.6 C 124.0 501.1 124.1 500.8 124.1 500.5 C 124.1 499.8 123.7 499.1 122.9 498.6 C 122.1 498.1 121.4 497.8 120.6 497.8 C 119.3 497.8 118.1 498.4 117.1 499.6 C 116.8 499.9 116.7 500.9 116.8 502.5 C 116.9 504.1 117.0 505.8 117.1 507.4 C 116.2 506.8 114.7 505.9 112.3 504.7 C 112.0 504.2 111.1 503.7 109.5 503.2 C 108.3 503.0 107.1 503.3 105.9 503.8 C 104.6 504.4 104.0 505.1 104.0 506.1 C 104.0 506.3 104.1 506.5 104.2 506.8 C 104.4 507.3 104.9 507.7 105.7 507.9 C 106.9 508.3 107.6 508.6 107.7 508.6 C 107.7 508.6 114.3 512.2 114.3 512.2 C 114.3 512.2 109.7 514.5 109.7 514.5 C 108.9 514.5 108.0 514.9 106.9 515.5 C 106.7 515.9 106.6 516.2 106.6 516.7 C 106.6 517.8 107.2 518.9 108.5 519.9 C 109.9 521.0 111.2 521.5 112.6 521.5 C 113.0 521.5 113.4 521.4 113.9 521.3 C 114.3 521.1 114.7 520.7 115.0 520.1 C 115.5 519.3 116.1 518.6 117.1 518.0 C 117.1 518.0 117.3 522.2 117.3 522.2 C 117.1 522.8 117.1 523.6 117.3 524.8 C 117.8 525.5 119.0 525.8 120.9 525.8 C 122.6 525.8 123.7 525.3 124.3 524.3 C 124.6 523.9 124.6 522.9 124.4 521.4 C 124.3 520.1 124.1 518.7 124.0 517.4 C 124.0 517.4 126.4 518.6 126.4 518.6 C 126.9 519.1 127.8 519.7 129.2 520.3 C 130.1 520.3 131.1 520.0 132.0 519.2 C 132.9 518.4 133.3 517.5 133.3 516.6 C 133.3 516.2 133.2 515.8 133.0 515.4 C 132.7 515.1 132.3 514.8 131.7 514.7 C 131.0 514.5 130.5 514.4 130.2 514.2 C 130.2 514.2 126.6 511.6 126.6 511.6 C 126.6 511.6 131.3 509.1 131.3 509.1 C 131.9 508.9 132.7 508.5 133.6 507.8 Z M 133.6 507.8 " fill="#3995D6"></path></g></g><text xml:space="preserve" font-family="ComicSansMS" font-size="42.8" fill="#858585" transform="matrix(1.00, 0.00, -0.00, -1.00, 150.0, 494.0)">T</text><text xml:space="preserve" font-family="ComicSansMS" font-size="42.8" fill="#858585" transform="matrix(1.00, 0.00, -0.00, -1.00, 179.1, 494.0)">r</text><text xml:space="preserve" font-family="ComicSansMS" font-size="42.8" fill="#858585" transform="matrix(1.00, 0.00, -0.00, -1.00, 199.6, 494.0)">y</text><text xml:space="preserve" font-family="ComicSansMS" font-size="42.8" fill="#858585" transform="matrix(1.00, 0.00, -0.00, -1.00, 221.9, 494.0)"> </text><text xml:space="preserve" font-family="ComicSansMS" font-size="42.8" fill="#858585" transform="matrix(1.00, 0.00, -0.00, -1.00, 234.7, 494.0)">t</text><text xml:space="preserve" font-family="ComicSansMS" font-size="42.8" fill="#858585" transform="matrix(1.00, 0.00, -0.00, -1.00, 254.8, 494.0)">o</text><text xml:space="preserve" font-family="ComicSansMS" font-size="42.8" fill="#858585" transform="matrix(1.00, 0.00, -0.00, -1.00, 277.3, 494.0)"> </text><text xml:space="preserve" font-family="ComicSansMS" font-size="42.8" fill="#858585" transform="matrix(1.00, 0.00, -0.00, -1.00, 290.1, 494.0)">g</text><text xml:space="preserve" font-family="ComicSansMS" font-size="42.8" fill="#858585" transform="matrix(1.00, 0.00, -0.00, -1.00, 312.8, 494.0)">e</text><text xml:space="preserve" font-family="ComicSansMS" font-size="42.8" fill="#858585" transform="matrix(1.00, 0.00, -0.00, -1.00, 336.2, 494.0)">t</text><text xml:space="preserve" font-family="ComicSansMS" font-size="42.8" fill="#858585" transform="matrix(1.00, 0.00, -0.00, -1.00, 356.4, 494.0)"> </text><text xml:space="preserve" font-family="ComicSansMS" font-size="42.8" fill="#858585" transform="matrix(1.00, 0.00, -0.00, -1.00, 369.2, 494.0)">a</text><text xml:space="preserve" font-family="ComicSansMS" font-size="42.8" fill="#858585" transform="matrix(1.00, 0.00, -0.00, -1.00, 391.0, 494.0)">s</text><text xml:space="preserve" font-family="ComicSansMS" font-size="42.8" fill="#858585" transform="matrix(1.00, 0.00, -0.00, -1.00, 411.9, 494.0)"> </text><text xml:space="preserve" font-family="ComicSansMS" font-size="42.8" fill="#858585" transform="matrix(1.00, 0.00, -0.00, -1.00, 424.6, 494.0)">m</text><text xml:space="preserve" font-family="ComicSansMS" font-size="42.8" fill="#858585" transform="matrix(1.00, 0.00, -0.00, -1.00, 457.9, 494.0)">u</text><text xml:space="preserve" font-family="ComicSansMS" font-size="42.8" fill="#858585" transform="matrix(1.00, 0.00, -0.00, -1.00, 480.1, 494.0)">c</text><text xml:space="preserve" font-family="ComicSansMS" font-size="42.8" fill="#858585" transform="matrix(1.00, 0.00, -0.00, -1.00, 502.1, 494.0)">h</text><text xml:space="preserve" font-family="ComicSansMS" font-size="42.8" fill="#858585" transform="matrix(1.00, 0.00, -0.00, -1.00, 526.8, 494.0)"> </text><text xml:space="preserve" font-family="ComicSansMS" font-size="42.8" fill="#858585" transform="matrix(1.00, 0.00, -0.00, -1.00, 539.5, 494.0)">d</text><text xml:space="preserve" font-family="ComicSansMS" font-size="42.8" fill="#858585" transform="matrix(1.00, 0.00, -0.00, -1.00, 564.7, 494.0)">e</text><text xml:space="preserve" font-family="ComicSansMS" font-size="42.8" fill="#858585" transform="matrix(1.00, 0.00, -0.00, -1.00, 588.1, 494.0)">t</text><text xml:space="preserve" font-family="ComicSansMS" font-size="42.8" fill="#858585" transform="matrix(1.00, 0.00, -0.00, -1.00, 608.3, 494.0)">a</text><text xml:space="preserve" font-family="ComicSansMS" font-size="42.8" fill="#858585" transform="matrix(1.00, 0.00, -0.00, -1.00, 630.2, 494.0)">i</text><text xml:space="preserve" font-family="ComicSansMS" font-size="42.8" fill="#858585" transform="matrix(1.00, 0.00, -0.00, -1.00, 642.2, 494.0)">l</text><text xml:space="preserve" font-family="ComicSansMS" font-size="42.8" fill="#858585" transform="matrix(1.00, 0.00, -0.00, -1.00, 653.9, 494.0)"> </text><text xml:space="preserve" font-family="ComicSansMS" font-size="42.8" fill="#858585" transform="matrix(1.00, 0.00, -0.00, -1.00, 666.7, 494.0)">a</text><text xml:space="preserve" font-family="ComicSansMS" font-size="42.8" fill="#858585" transform="matrix(1.00, 0.00, -0.00, -1.00, 688.5, 494.0)">b</text><text xml:space="preserve" font-family="ComicSansMS" font-size="42.8" fill="#858585" transform="matrix(1.00, 0.00, -0.00, -1.00, 713.9, 494.0)">o</text><text xml:space="preserve" font-family="ComicSansMS" font-size="42.8" fill="#858585" transform="matrix(1.00, 0.00, -0.00, -1.00, 736.4, 494.0)">u</text><text xml:space="preserve" font-family="ComicSansMS" font-size="42.8" fill="#858585" transform="matrix(1.00, 0.00, -0.00, -1.00, 758.7, 494.0)">t</text><text xml:space="preserve" font-family="ComicSansMS" font-size="42.8" fill="#858585" transform="matrix(1.00, 0.00, -0.00, -1.00, 778.8, 494.0)"> </text><text xml:space="preserve" font-family="ComicSansMS" font-size="42.8" fill="#858585" transform="matrix(1.00, 0.00, -0.00, -1.00, 791.6, 494.0)">d</text><text xml:space="preserve" font-family="ComicSansMS" font-size="42.8" fill="#858585" transform="matrix(1.00, 0.00, -0.00, -1.00, 816.8, 494.0)">e</text><text xml:space="preserve" font-family="ComicSansMS" font-size="42.8" fill="#858585" transform="matrix(1.00, 0.00, -0.00, -1.00, 840.2, 494.0)">v</text><text xml:space="preserve" font-family="ComicSansMS" font-size="42.8" fill="#858585" transform="matrix(1.00, 0.00, -0.00, -1.00, 861.0, 494.0)">i</text><text xml:space="preserve" font-family="ComicSansMS" font-size="42.8" fill="#858585" transform="matrix(1.00, 0.00, -0.00, -1.00, 873.0, 494.0)">c</text><text xml:space="preserve" font-family="ComicSansMS" font-size="42.8" fill="#858585" transform="matrix(1.00, 0.00, -0.00, -1.00, 895.0, 494.0)">e</text><text xml:space="preserve" font-family="ComicSansMS" font-size="42.8" fill="#858585" transform="matrix(1.00, 0.00, -0.00, -1.00, 918.4, 494.0)"> </text><text xml:space="preserve" font-family="ComicSansMS" font-size="42.8" fill="#858585" transform="matrix(1.00, 0.00, -0.00, -1.00, 150.0, 435.0)">a</text><text xml:space="preserve" font-family="ComicSansMS" font-size="42.8" fill="#858585" transform="matrix(1.00, 0.00, -0.00, -1.00, 171.9, 435.0)">s</text><text xml:space="preserve" font-family="ComicSansMS" font-size="42.8" fill="#858585" transform="matrix(1.00, 0.00, -0.00, -1.00, 192.7, 435.0)"> </text><text xml:space="preserve" font-family="ComicSansMS" font-size="42.8" fill="#858585" transform="matrix(1.00, 0.00, -0.00, -1.00, 205.5, 435.0)">p</text><text xml:space="preserve" font-family="ComicSansMS" font-size="42.8" fill="#858585" transform="matrix(1.00, 0.00, -0.00, -1.00, 228.3, 435.0)">o</text><text xml:space="preserve" font-family="ComicSansMS" font-size="42.8" fill="#858585" transform="matrix(1.00, 0.00, -0.00, -1.00, 250.8, 435.0)">s</text><text xml:space="preserve" font-family="ComicSansMS" font-size="42.8" fill="#858585" transform="matrix(1.00, 0.00, -0.00, -1.00, 271.6, 435.0)">s</text><text xml:space="preserve" font-family="ComicSansMS" font-size="42.8" fill="#858585" transform="matrix(1.00, 0.00, -0.00, -1.00, 292.5, 435.0)">i</text><text xml:space="preserve" font-family="ComicSansMS" font-size="42.8" fill="#858585" transform="matrix(1.00, 0.00, -0.00, -1.00, 304.5, 435.0)">b</text><text xml:space="preserve" font-family="ComicSansMS" font-size="42.8" fill="#858585" transform="matrix(1.00, 0.00, -0.00, -1.00, 329.9, 435.0)">l</text><text xml:space="preserve" font-family="ComicSansMS" font-size="42.8" fill="#858585" transform="matrix(1.00, 0.00, -0.00, -1.00, 341.6, 435.0)">e</text><text xml:space="preserve" font-family="ComicSansMS" font-size="42.8" fill="#858585" transform="matrix(1.00, 0.00, -0.00, -1.00, 365.0, 435.0)">.</text><text xml:space="preserve" font-family="ComicSansMS" font-size="42.8" fill="#858585" transform="matrix(1.00, 0.00, -0.00, -1.00, 375.7, 435.0)"> </text><text xml:space="preserve" font-family="ComicSansMS" font-size="42.8" fill="#858585" transform="matrix(1.00, 0.00, -0.00, -1.00, 388.4, 435.0)">P</text><text xml:space="preserve" font-family="ComicSansMS" font-size="42.8" fill="#858585" transform="matrix(1.00, 0.00, -0.00, -1.00, 410.7, 435.0)">h</text><text xml:space="preserve" font-family="ComicSansMS" font-size="42.8" fill="#858585" transform="matrix(1.00, 0.00, -0.00, -1.00, 435.4, 435.0)">o</text><text xml:space="preserve" font-family="ComicSansMS" font-size="42.8" fill="#858585" transform="matrix(1.00, 0.00, -0.00, -1.00, 457.9, 435.0)">n</text><text xml:space="preserve" font-family="ComicSansMS" font-size="42.8" fill="#858585" transform="matrix(1.00, 0.00, -0.00, -1.00, 480.3, 435.0)">e</text><text xml:space="preserve" font-family="ComicSansMS" font-size="42.8" fill="#858585" transform="matrix(1.00, 0.00, -0.00, -1.00, 503.7, 435.0)">/</text><text xml:space="preserve" font-family="ComicSansMS" font-size="42.8" fill="#858585" transform="matrix(1.00, 0.00, -0.00, -1.00, 525.6, 435.0)">t</text><text xml:space="preserve" font-family="ComicSansMS" font-size="42.8" fill="#858585" transform="matrix(1.00, 0.00, -0.00, -1.00, 545.8, 435.0)">a</text><text xml:space="preserve" font-family="ComicSansMS" font-size="42.8" fill="#858585" transform="matrix(1.00, 0.00, -0.00, -1.00, 567.6, 435.0)">b</text><text xml:space="preserve" font-family="ComicSansMS" font-size="42.8" fill="#858585" transform="matrix(1.00, 0.00, -0.00, -1.00, 593.0, 435.0)">l</text><text xml:space="preserve" font-family="ComicSansMS" font-size="42.8" fill="#858585" transform="matrix(1.00, 0.00, -0.00, -1.00, 604.7, 435.0)">e</text><text xml:space="preserve" font-family="ComicSansMS" font-size="42.8" fill="#858585" transform="matrix(1.00, 0.00, -0.00, -1.00, 628.2, 435.0)">t</text><text xml:space="preserve" font-family="ComicSansMS" font-size="42.8" fill="#858585" transform="matrix(1.00, 0.00, -0.00, -1.00, 648.3, 435.0)"> </text><text xml:space="preserve" font-family="ComicSansMS" font-size="42.8" fill="#858585" transform="matrix(1.00, 0.00, -0.00, -1.00, 661.1, 435.0)">t</text><text xml:space="preserve" font-family="ComicSansMS" font-size="42.8" fill="#858585" transform="matrix(1.00, 0.00, -0.00, -1.00, 681.3, 435.0)">y</text><text xml:space="preserve" font-family="ComicSansMS" font-size="42.8" fill="#858585" transform="matrix(1.00, 0.00, -0.00, -1.00, 703.5, 435.0)">p</text><text xml:space="preserve" font-family="ComicSansMS" font-size="42.8" fill="#858585" transform="matrix(1.00, 0.00, -0.00, -1.00, 726.4, 435.0)">e</text><text xml:space="preserve" font-family="ComicSansMS" font-size="42.8" fill="#858585" transform="matrix(1.00, 0.00, -0.00, -1.00, 749.8, 435.0)"> </text><text xml:space="preserve" font-family="ComicSansMS" font-size="42.8" fill="#858585" transform="matrix(1.00, 0.00, -0.00, -1.00, 762.6, 435.0)">=</text><text xml:space="preserve" font-family="ComicSansMS" font-size="42.8" fill="#858585" transform="matrix(1.00, 0.00, -0.00, -1.00, 784.4, 435.0)"> </text><text xml:space="preserve" font-family="ComicSansMS" font-size="42.8" fill="#858585" transform="matrix(1.00, 0.00, -0.00, -1.00, 797.2, 435.0)">g</text><text xml:space="preserve" font-family="ComicSansMS" font-size="42.8" fill="#858585" transform="matrix(1.00, 0.00, -0.00, -1.00, 819.9, 435.0)">o</text><text xml:space="preserve" font-family="ComicSansMS" font-size="42.8" fill="#858585" transform="matrix(1.00, 0.00, -0.00, -1.00, 842.4, 435.0)">o</text><text xml:space="preserve" font-family="ComicSansMS" font-size="42.8" fill="#858585" transform="matrix(1.00, 0.00, -0.00, -1.00, 864.9, 435.0)">d</text><text xml:space="preserve" font-family="ComicSansMS" font-size="42.8" fill="#858585" transform="matrix(1.00, 0.00, -0.00, -1.00, 890.0, 435.0)">.</text><text xml:space="preserve" font-family="ComicSansMS" font-size="42.8" fill="#858585" transform="matrix(1.00, 0.00, -0.00, -1.00, 900.7, 435.0)"> </text><text xml:space="preserve" font-family="ComicSansMS" font-size="42.8" fill="#858585" transform="matrix(1.00, 0.00, -0.00, -1.00, 150.0, 376.0)">A</text><text xml:space="preserve" font-family="ComicSansMS" font-size="42.8" fill="#858585" transform="matrix(1.00, 0.00, -0.00, -1.00, 181.3, 376.0)">n</text><text xml:space="preserve" font-family="ComicSansMS" font-size="42.8" fill="#858585" transform="matrix(1.00, 0.00, -0.00, -1.00, 203.7, 376.0)">d</text><text xml:space="preserve" font-family="ComicSansMS" font-size="42.8" fill="#858585" transform="matrix(1.00, 0.00, -0.00, -1.00, 228.9, 376.0)">r</text><text xml:space="preserve" font-family="ComicSansMS" font-size="42.8" fill="#858585" transform="matrix(1.00, 0.00, -0.00, -1.00, 249.4, 376.0)">o</text><text xml:space="preserve" font-family="ComicSansMS" font-size="42.8" fill="#858585" transform="matrix(1.00, 0.00, -0.00, -1.00, 271.9, 376.0)">i</text><text xml:space="preserve" font-family="ComicSansMS" font-size="42.8" fill="#858585" transform="matrix(1.00, 0.00, -0.00, -1.00, 283.9, 376.0)">d</text><text xml:space="preserve" font-family="ComicSansMS" font-size="42.8" fill="#858585" transform="matrix(1.00, 0.00, -0.00, -1.00, 309.1, 376.0)"> </text><text xml:space="preserve" font-family="ComicSansMS" font-size="42.8" fill="#858585" transform="matrix(1.00, 0.00, -0.00, -1.00, 321.8, 376.0)">v</text><text xml:space="preserve" font-family="ComicSansMS" font-size="42.8" fill="#858585" transform="matrix(1.00, 0.00, -0.00, -1.00, 342.6, 376.0)">e</text><text xml:space="preserve" font-family="ComicSansMS" font-size="42.8" fill="#858585" transform="matrix(1.00, 0.00, -0.00, -1.00, 366.1, 376.0)">r</text><text xml:space="preserve" font-family="ComicSansMS" font-size="42.8" fill="#858585" transform="matrix(1.00, 0.00, -0.00, -1.00, 386.6, 376.0)">s</text><text xml:space="preserve" font-family="ComicSansMS" font-size="42.8" fill="#858585" transform="matrix(1.00, 0.00, -0.00, -1.00, 407.4, 376.0)">i</text><text xml:space="preserve" font-family="ComicSansMS" font-size="42.8" fill="#858585" transform="matrix(1.00, 0.00, -0.00, -1.00, 419.4, 376.0)">o</text><text xml:space="preserve" font-family="ComicSansMS" font-size="42.8" fill="#858585" transform="matrix(1.00, 0.00, -0.00, -1.00, 441.9, 376.0)">n</text><text xml:space="preserve" font-family="ComicSansMS" font-size="42.8" fill="#858585" transform="matrix(1.00, 0.00, -0.00, -1.00, 464.3, 376.0)"> </text><text xml:space="preserve" font-family="ComicSansMS" font-size="42.8" fill="#858585" transform="matrix(1.00, 0.00, -0.00, -1.00, 477.1, 376.0)">#</text><text xml:space="preserve" font-family="ComicSansMS" font-size="42.8" fill="#858585" transform="matrix(1.00, 0.00, -0.00, -1.00, 513.1, 376.0)"> </text><text xml:space="preserve" font-family="ComicSansMS" font-size="42.8" fill="#858585" transform="matrix(1.00, 0.00, -0.00, -1.00, 525.9, 376.0)">=</text><text xml:space="preserve" font-family="ComicSansMS" font-size="42.8" fill="#858585" transform="matrix(1.00, 0.00, -0.00, -1.00, 547.7, 376.0)"> </text><text xml:space="preserve" font-family="ComicSansMS" font-size="42.8" fill="#858585" transform="matrix(1.00, 0.00, -0.00, -1.00, 560.5, 376.0)">G</text><text xml:space="preserve" font-family="ComicSansMS" font-size="42.8" fill="#858585" transform="matrix(1.00, 0.00, -0.00, -1.00, 589.5, 376.0)">R</text><text xml:space="preserve" font-family="ComicSansMS" font-size="42.8" fill="#858585" transform="matrix(1.00, 0.00, -0.00, -1.00, 616.4, 376.0)">E</text><text xml:space="preserve" font-family="ComicSansMS" font-size="42.8" fill="#858585" transform="matrix(1.00, 0.00, -0.00, -1.00, 643.1, 376.0)">A</text><text xml:space="preserve" font-family="ComicSansMS" font-size="42.8" fill="#858585" transform="matrix(1.00, 0.00, -0.00, -1.00, 674.4, 376.0)">T</text><text xml:space="preserve" font-family="ComicSansMS" font-size="42.8" fill="#858585" transform="matrix(1.00, 0.00, -0.00, -1.00, 703.5, 376.0)">!</text><text xml:space="preserve" font-family="ComicSansMS" font-size="42.8" fill="#858585" transform="matrix(1.00, 0.00, -0.00, -1.00, 713.6, 376.0)"> </text><g><clipPath id="clip-341"><path d="M 104.0 281.7 L 134.0 281.7 L 134.0 309.8 L 104.0 309.8 Z M 104.0 281.7 "></path></clipPath><g clip-path="url(#clip-341)"><path d="M 133.6 291.8 C 133.9 291.4 134.0 290.9 134.0 290.5 C 134.0 289.6 133.5 288.8 132.5 288.0 C 131.5 287.2 130.4 286.8 129.2 286.8 C 127.5 286.8 125.6 288.0 123.4 290.5 C 123.4 290.5 123.4 286.8 123.4 286.8 C 123.4 286.5 123.5 286.1 123.7 285.6 C 124.0 285.1 124.1 284.7 124.1 284.5 C 124.1 283.7 123.7 283.1 122.9 282.5 C 122.1 282.0 121.4 281.7 120.6 281.7 C 119.3 281.7 118.1 282.3 117.1 283.5 C 116.8 283.9 116.7 284.8 116.8 286.4 C 116.9 288.1 117.0 289.7 117.1 291.3 C 116.2 290.8 114.7 289.8 112.3 288.6 C 112.0 288.1 111.1 287.6 109.5 287.1 C 108.3 287.0 107.1 287.2 105.9 287.8 C 104.6 288.3 104.0 289.1 104.0 290.0 C 104.0 290.3 104.1 290.5 104.2 290.7 C 104.4 291.3 104.9 291.6 105.7 291.9 C 106.9 292.3 107.6 292.5 107.7 292.6 C 107.7 292.6 114.3 296.2 114.3 296.2 C 114.3 296.2 109.7 298.5 109.7 298.5 C 108.9 298.5 108.0 298.8 106.9 299.4 C 106.7 299.8 106.6 300.2 106.6 300.6 C 106.6 301.7 107.2 302.8 108.5 303.9 C 109.9 304.9 111.2 305.5 112.6 305.5 C 113.0 305.5 113.4 305.4 113.9 305.2 C 114.3 305.1 114.7 304.7 115.0 304.0 C 115.5 303.2 116.1 302.5 117.1 301.9 C 117.1 301.9 117.3 306.1 117.3 306.1 C 117.1 306.7 117.1 307.6 117.3 308.7 C 117.8 309.4 119.0 309.8 120.9 309.8 C 122.6 309.8 123.7 309.3 124.3 308.3 C 124.6 307.8 124.6 306.9 124.4 305.4 C 124.3 304.0 124.1 302.6 124.0 301.3 C 124.0 301.3 126.4 302.5 126.4 302.5 C 126.9 303.1 127.8 303.6 129.2 304.2 C 130.1 304.3 131.1 303.9 132.0 303.1 C 132.9 302.3 133.3 301.4 133.3 300.5 C 133.3 300.1 133.2 299.7 133.0 299.4 C 132.7 299.0 132.3 298.8 131.7 298.7 C 131.0 298.5 130.5 298.3 130.2 298.1 C 130.2 298.1 126.6 295.6 126.6 295.6 C 126.6 295.6 131.3 293.0 131.3 293.0 C 131.9 292.8 132.7 292.4 133.6 291.8 Z M 133.6 291.8 " fill="#3995D6"></path></g></g><text xml:space="preserve" font-family="ComicSansMS" font-size="42.8" fill="#858585" transform="matrix(1.00, 0.00, -0.00, -1.00, 150.0, 278.0)">A</text><text xml:space="preserve" font-family="ComicSansMS" font-size="42.8" fill="#858585" transform="matrix(1.00, 0.00, -0.00, -1.00, 181.3, 278.0)">s</text><text xml:space="preserve" font-family="ComicSansMS" font-size="42.8" fill="#858585" transform="matrix(1.00, 0.00, -0.00, -1.00, 202.1, 278.0)">k</text><text xml:space="preserve" font-family="ComicSansMS" font-size="42.8" fill="#858585" transform="matrix(1.00, 0.00, -0.00, -1.00, 225.2, 278.0)"> </text><text xml:space="preserve" font-family="ComicSansMS" font-size="42.8" fill="#858585" transform="matrix(1.00, 0.00, -0.00, -1.00, 238.0, 278.0)">f</text><text xml:space="preserve" font-family="ComicSansMS" font-size="42.8" fill="#858585" transform="matrix(1.00, 0.00, -0.00, -1.00, 259.8, 278.0)">o</text><text xml:space="preserve" font-family="ComicSansMS" font-size="42.8" fill="#858585" transform="matrix(1.00, 0.00, -0.00, -1.00, 282.3, 278.0)">r</text><text xml:space="preserve" font-family="ComicSansMS" font-size="42.8" fill="#858585" transform="matrix(1.00, 0.00, -0.00, -1.00, 302.8, 278.0)"> </text><text xml:space="preserve" font-family="ComicSansMS" font-size="42.8" fill="#858585" transform="matrix(1.00, 0.00, -0.00, -1.00, 315.6, 278.0)">a</text><text xml:space="preserve" font-family="ComicSansMS" font-size="42.8" fill="#858585" transform="matrix(1.00, 0.00, -0.00, -1.00, 337.5, 278.0)"> </text><text xml:space="preserve" font-family="ComicSansMS" font-size="42.8" fill="#858585" transform="matrix(1.00, 0.00, -0.00, -1.00, 350.3, 278.0)">s</text><text xml:space="preserve" font-family="ComicSansMS" font-size="42.8" fill="#858585" transform="matrix(1.00, 0.00, -0.00, -1.00, 371.1, 278.0)">c</text><text xml:space="preserve" font-family="ComicSansMS" font-size="42.8" fill="#858585" transform="matrix(1.00, 0.00, -0.00, -1.00, 393.0, 278.0)">r</text><text xml:space="preserve" font-family="ComicSansMS" font-size="42.8" fill="#858585" transform="matrix(1.00, 0.00, -0.00, -1.00, 413.6, 278.0)">e</text><text xml:space="preserve" font-family="ComicSansMS" font-size="42.8" fill="#858585" transform="matrix(1.00, 0.00, -0.00, -1.00, 437.0, 278.0)">e</text><text xml:space="preserve" font-family="ComicSansMS" font-size="42.8" fill="#858585" transform="matrix(1.00, 0.00, -0.00, -1.00, 460.5, 278.0)">n</text><text xml:space="preserve" font-family="ComicSansMS" font-size="42.8" fill="#858585" transform="matrix(1.00, 0.00, -0.00, -1.00, 482.9, 278.0)">s</text><text xml:space="preserve" font-family="ComicSansMS" font-size="42.8" fill="#858585" transform="matrix(1.00, 0.00, -0.00, -1.00, 503.7, 278.0)">h</text><text xml:space="preserve" font-family="ComicSansMS" font-size="42.8" fill="#858585" transform="matrix(1.00, 0.00, -0.00, -1.00, 528.4, 278.0)">o</text><text xml:space="preserve" font-family="ComicSansMS" font-size="42.8" fill="#858585" transform="matrix(1.00, 0.00, -0.00, -1.00, 550.9, 278.0)">t</text><text xml:space="preserve" font-family="ComicSansMS" font-size="42.8" fill="#858585" transform="matrix(1.00, 0.00, -0.00, -1.00, 571.1, 278.0)"> </text><g><clipPath id="clip-342"><path d="M 104.0 183.7 L 134.0 183.7 L 134.0 211.7 L 104.0 211.7 Z M 104.0 183.7 "></path></clipPath><g clip-path="url(#clip-342)"><path d="M 133.6 193.7 C 133.9 193.3 134.0 192.9 134.0 192.4 C 134.0 191.5 133.5 190.7 132.5 189.9 C 131.5 189.2 130.4 188.8 129.2 188.8 C 127.5 188.8 125.6 190.0 123.4 192.4 C 123.4 192.4 123.4 188.8 123.4 188.8 C 123.4 188.4 123.5 188.0 123.7 187.5 C 124.0 187.0 124.1 186.6 124.1 186.4 C 124.1 185.6 123.7 185.0 122.9 184.5 C 122.1 183.9 121.4 183.7 120.6 183.7 C 119.3 183.7 118.1 184.3 117.1 185.4 C 116.8 185.8 116.7 186.8 116.8 188.3 C 116.9 190.0 117.0 191.6 117.1 193.3 C 116.2 192.7 114.7 191.8 112.3 190.5 C 112.0 190.1 111.1 189.6 109.5 189.0 C 108.3 188.9 107.1 189.1 105.9 189.7 C 104.6 190.3 104.0 191.0 104.0 192.0 C 104.0 192.2 104.1 192.4 104.2 192.7 C 104.4 193.2 104.9 193.6 105.7 193.8 C 106.9 194.2 107.6 194.5 107.7 194.5 C 107.7 194.5 114.3 198.1 114.3 198.1 C 114.3 198.1 109.7 200.4 109.7 200.4 C 108.9 200.4 108.0 200.7 106.9 201.4 C 106.7 201.7 106.6 202.1 106.6 202.5 C 106.6 203.7 107.2 204.7 108.5 205.8 C 109.9 206.9 111.2 207.4 112.6 207.4 C 113.0 207.4 113.4 207.3 113.9 207.2 C 114.3 207.0 114.7 206.6 115.0 206.0 C 115.5 205.2 116.1 204.4 117.1 203.9 C 117.1 203.9 117.3 208.1 117.3 208.1 C 117.1 208.7 117.1 209.5 117.3 210.6 C 117.8 211.3 119.0 211.7 120.9 211.7 C 122.6 211.7 123.7 211.2 124.3 210.2 C 124.6 209.8 124.6 208.8 124.4 207.3 C 124.3 205.9 124.1 204.6 124.0 203.2 C 124.0 203.2 126.4 204.5 126.4 204.5 C 126.9 205.0 127.8 205.6 129.2 206.2 C 130.1 206.2 131.1 205.8 132.0 205.0 C 132.9 204.3 133.3 203.4 133.3 202.4 C 133.3 202.0 133.2 201.7 133.0 201.3 C 132.7 200.9 132.3 200.7 131.7 200.6 C 131.0 200.4 130.5 200.2 130.2 200.1 C 130.2 200.1 126.6 197.5 126.6 197.5 C 126.6 197.5 131.3 195.0 131.3 195.0 C 131.9 194.8 132.7 194.4 133.6 193.7 Z M 133.6 193.7 " fill="#3995D6"></path></g></g><text xml:space="preserve" font-family="ComicSansMS" font-size="42.8" fill="#858585" transform="matrix(1.00, 0.00, -0.00, -1.00, 150.0, 180.0)">P</text><text xml:space="preserve" font-family="ComicSansMS" font-size="42.8" fill="#858585" transform="matrix(1.00, 0.00, -0.00, -1.00, 172.2, 180.0)">u</text><text xml:space="preserve" font-family="ComicSansMS" font-size="42.8" fill="#858585" transform="matrix(1.00, 0.00, -0.00, -1.00, 194.5, 180.0)">l</text><text xml:space="preserve" font-family="ComicSansMS" font-size="42.8" fill="#858585" transform="matrix(1.00, 0.00, -0.00, -1.00, 206.2, 180.0)">l</text><text xml:space="preserve" font-family="ComicSansMS" font-size="42.8" fill="#858585" transform="matrix(1.00, 0.00, -0.00, -1.00, 217.9, 180.0)"> </text><text xml:space="preserve" font-family="ComicSansMS" font-size="42.8" fill="#858585" transform="matrix(1.00, 0.00, -0.00, -1.00, 230.7, 180.0)">i</text><text xml:space="preserve" font-family="ComicSansMS" font-size="42.8" fill="#858585" transform="matrix(1.00, 0.00, -0.00, -1.00, 242.7, 180.0)">t</text><text xml:space="preserve" font-family="ComicSansMS" font-size="42.8" fill="#858585" transform="matrix(1.00, 0.00, -0.00, -1.00, 262.9, 180.0)"> </text><text xml:space="preserve" font-family="ComicSansMS" font-size="42.8" fill="#858585" transform="matrix(1.00, 0.00, -0.00, -1.00, 275.6, 180.0)">u</text><text xml:space="preserve" font-family="ComicSansMS" font-size="42.8" fill="#858585" transform="matrix(1.00, 0.00, -0.00, -1.00, 297.9, 180.0)">p</text><text xml:space="preserve" font-family="ComicSansMS" font-size="42.8" fill="#858585" transform="matrix(1.00, 0.00, -0.00, -1.00, 320.7, 180.0)"> </text><text xml:space="preserve" font-family="ComicSansMS" font-size="42.8" fill="#858585" transform="matrix(1.00, 0.00, -0.00, -1.00, 333.5, 180.0)">o</text><text xml:space="preserve" font-family="ComicSansMS" font-size="42.8" fill="#858585" transform="matrix(1.00, 0.00, -0.00, -1.00, 356.0, 180.0)">n</text><text xml:space="preserve" font-family="ComicSansMS" font-size="42.8" fill="#858585" transform="matrix(1.00, 0.00, -0.00, -1.00, 378.4, 180.0)"> </text><text xml:space="preserve" font-family="ComicSansMS" font-size="42.8" fill="#858585" transform="matrix(1.00, 0.00, -0.00, -1.00, 391.2, 180.0)">y</text><text xml:space="preserve" font-family="ComicSansMS" font-size="42.8" fill="#858585" transform="matrix(1.00, 0.00, -0.00, -1.00, 413.4, 180.0)">o</text><text xml:space="preserve" font-family="ComicSansMS" font-size="42.8" fill="#858585" transform="matrix(1.00, 0.00, -0.00, -1.00, 435.9, 180.0)">u</text><text xml:space="preserve" font-family="ComicSansMS" font-size="42.8" fill="#858585" transform="matrix(1.00, 0.00, -0.00, -1.00, 458.2, 180.0)">r</text><text xml:space="preserve" font-family="ComicSansMS" font-size="42.8" fill="#858585" transform="matrix(1.00, 0.00, -0.00, -1.00, 478.8, 180.0)"> </text><text xml:space="preserve" font-family="ComicSansMS" font-size="42.8" fill="#858585" transform="matrix(1.00, 0.00, -0.00, -1.00, 491.5, 180.0)">c</text><text xml:space="preserve" font-family="ComicSansMS" font-size="42.8" fill="#858585" transform="matrix(1.00, 0.00, -0.00, -1.00, 513.5, 180.0)">o</text><text xml:space="preserve" font-family="ComicSansMS" font-size="42.8" fill="#858585" transform="matrix(1.00, 0.00, -0.00, -1.00, 536.0, 180.0)">m</text><text xml:space="preserve" font-family="ComicSansMS" font-size="42.8" fill="#858585" transform="matrix(1.00, 0.00, -0.00, -1.00, 569.2, 180.0)">p</text><text xml:space="preserve" font-family="ComicSansMS" font-size="42.8" fill="#858585" transform="matrix(1.00, 0.00, -0.00, -1.00, 592.1, 180.0)">u</text><text xml:space="preserve" font-family="ComicSansMS" font-size="42.8" fill="#858585" transform="matrix(1.00, 0.00, -0.00, -1.00, 614.3, 180.0)">t</text><text xml:space="preserve" font-family="ComicSansMS" font-size="42.8" fill="#858585" transform="matrix(1.00, 0.00, -0.00, -1.00, 634.5, 180.0)">e</text><text xml:space="preserve" font-family="ComicSansMS" font-size="42.8" fill="#858585" transform="matrix(1.00, 0.00, -0.00, -1.00, 657.9, 180.0)">r</text><text xml:space="preserve" font-family="ComicSansMS" font-size="42.8" fill="#858585" transform="matrix(1.00, 0.00, -0.00, -1.00, 678.5, 180.0)"> </text><text xml:space="preserve" font-family="ComicSansMS" font-size="42.8" fill="#858585" transform="matrix(1.00, 0.00, -0.00, -1.00, 691.3, 180.0)">o</text><text xml:space="preserve" font-family="ComicSansMS" font-size="42.8" fill="#858585" transform="matrix(1.00, 0.00, -0.00, -1.00, 713.8, 180.0)">r</text><text xml:space="preserve" font-family="ComicSansMS" font-size="42.8" fill="#858585" transform="matrix(1.00, 0.00, -0.00, -1.00, 734.3, 180.0)"> </text><text xml:space="preserve" font-family="ComicSansMS" font-size="42.8" fill="#858585" transform="matrix(1.00, 0.00, -0.00, -1.00, 747.1, 180.0)">y</text><text xml:space="preserve" font-family="ComicSansMS" font-size="42.8" fill="#858585" transform="matrix(1.00, 0.00, -0.00, -1.00, 769.4, 180.0)">o</text><text xml:space="preserve" font-family="ComicSansMS" font-size="42.8" fill="#858585" transform="matrix(1.00, 0.00, -0.00, -1.00, 791.9, 180.0)">u</text><text xml:space="preserve" font-family="ComicSansMS" font-size="42.8" fill="#858585" transform="matrix(1.00, 0.00, -0.00, -1.00, 814.1, 180.0)">r</text><text xml:space="preserve" font-family="ComicSansMS" font-size="42.8" fill="#858585" transform="matrix(1.00, 0.00, -0.00, -1.00, 834.7, 180.0)"> </text><text xml:space="preserve" font-family="ComicSansMS" font-size="42.8" fill="#858585" transform="matrix(1.00, 0.00, -0.00, -1.00, 150.0, 121.0)">d</text><text xml:space="preserve" font-family="ComicSansMS" font-size="42.8" fill="#858585" transform="matrix(1.00, 0.00, -0.00, -1.00, 175.1, 121.0)">e</text><text xml:space="preserve" font-family="ComicSansMS" font-size="42.8" fill="#858585" transform="matrix(1.00, 0.00, -0.00, -1.00, 198.6, 121.0)">v</text><text xml:space="preserve" font-family="ComicSansMS" font-size="42.8" fill="#858585" transform="matrix(1.00, 0.00, -0.00, -1.00, 219.4, 121.0)">i</text><text xml:space="preserve" font-family="ComicSansMS" font-size="42.8" fill="#858585" transform="matrix(1.00, 0.00, -0.00, -1.00, 231.4, 121.0)">c</text><text xml:space="preserve" font-family="ComicSansMS" font-size="42.8" fill="#858585" transform="matrix(1.00, 0.00, -0.00, -1.00, 253.3, 121.0)">e</text><text xml:space="preserve" font-family="ComicSansMS" font-size="42.8" fill="#858585" transform="matrix(1.00, 0.00, -0.00, -1.00, 276.7, 121.0)"> </text><text xml:space="preserve" font-family="ComicSansMS" font-size="42.8" fill="#858585" transform="matrix(1.00, 0.00, -0.00, -1.00, 289.5, 121.0)">t</text><text xml:space="preserve" font-family="ComicSansMS" font-size="42.8" fill="#858585" transform="matrix(1.00, 0.00, -0.00, -1.00, 309.7, 121.0)">o</text><text xml:space="preserve" font-family="ComicSansMS" font-size="42.8" fill="#858585" transform="matrix(1.00, 0.00, -0.00, -1.00, 332.2, 121.0)"> </text><text xml:space="preserve" font-family="ComicSansMS" font-size="42.8" fill="#858585" transform="matrix(1.00, 0.00, -0.00, -1.00, 344.9, 121.0)">s</text><text xml:space="preserve" font-family="ComicSansMS" font-size="42.8" fill="#858585" transform="matrix(1.00, 0.00, -0.00, -1.00, 365.7, 121.0)">e</text><text xml:space="preserve" font-family="ComicSansMS" font-size="42.8" fill="#858585" transform="matrix(1.00, 0.00, -0.00, -1.00, 389.1, 121.0)">e</text><text xml:space="preserve" font-family="ComicSansMS" font-size="42.8" fill="#858585" transform="matrix(1.00, 0.00, -0.00, -1.00, 412.5, 121.0)"> </text><text xml:space="preserve" font-family="ComicSansMS" font-size="42.8" fill="#858585" transform="matrix(1.00, 0.00, -0.00, -1.00, 425.3, 121.0)">i</text><text xml:space="preserve" font-family="ComicSansMS" font-size="42.8" fill="#858585" transform="matrix(1.00, 0.00, -0.00, -1.00, 437.3, 121.0)">f</text><text xml:space="preserve" font-family="ComicSansMS" font-size="42.8" fill="#858585" transform="matrix(1.00, 0.00, -0.00, -1.00, 459.1, 121.0)"> </text><text xml:space="preserve" font-family="ComicSansMS" font-size="42.8" fill="#858585" transform="matrix(1.00, 0.00, -0.00, -1.00, 471.8, 121.0)">i</text><text xml:space="preserve" font-family="ComicSansMS" font-size="42.8" fill="#858585" transform="matrix(1.00, 0.00, -0.00, -1.00, 483.8, 121.0)">t</text><text xml:space="preserve" font-family="ComicSansMS" font-size="42.8" fill="#858585" transform="matrix(1.00, 0.00, -0.00, -1.00, 504.0, 121.0)">s</text><text xml:space="preserve" font-family="ComicSansMS" font-size="42.8" fill="#858585" transform="matrix(1.00, 0.00, -0.00, -1.00, 524.8, 121.0)"> </text><text xml:space="preserve" font-family="ComicSansMS" font-size="42.8" fill="#858585" transform="matrix(1.00, 0.00, -0.00, -1.00, 537.6, 121.0)">A</text><text xml:space="preserve" font-family="ComicSansMS" font-size="42.8" fill="#858585" transform="matrix(1.00, 0.00, -0.00, -1.00, 568.9, 121.0)">n</text><text xml:space="preserve" font-family="ComicSansMS" font-size="42.8" fill="#858585" transform="matrix(1.00, 0.00, -0.00, -1.00, 591.3, 121.0)">d</text><text xml:space="preserve" font-family="ComicSansMS" font-size="42.8" fill="#858585" transform="matrix(1.00, 0.00, -0.00, -1.00, 616.4, 121.0)">r</text><text xml:space="preserve" font-family="ComicSansMS" font-size="42.8" fill="#858585" transform="matrix(1.00, 0.00, -0.00, -1.00, 637.0, 121.0)">o</text><text xml:space="preserve" font-family="ComicSansMS" font-size="42.8" fill="#858585" transform="matrix(1.00, 0.00, -0.00, -1.00, 659.5, 121.0)">i</text><text xml:space="preserve" font-family="ComicSansMS" font-size="42.8" fill="#858585" transform="matrix(1.00, 0.00, -0.00, -1.00, 671.5, 121.0)">d</text><text xml:space="preserve" font-family="ComicSansMS" font-size="42.8" fill="#858585" transform="matrix(1.00, 0.00, -0.00, -1.00, 696.6, 121.0)">-</text><text xml:space="preserve" font-family="ComicSansMS" font-size="42.8" fill="#858585" transform="matrix(1.00, 0.00, -0.00, -1.00, 714.4, 121.0)">s</text><text xml:space="preserve" font-family="ComicSansMS" font-size="42.8" fill="#858585" transform="matrix(1.00, 0.00, -0.00, -1.00, 735.2, 121.0)">p</text><text xml:space="preserve" font-family="ComicSansMS" font-size="42.8" fill="#858585" transform="matrix(1.00, 0.00, -0.00, -1.00, 758.1, 121.0)">e</text><text xml:space="preserve" font-family="ComicSansMS" font-size="42.8" fill="#858585" transform="matrix(1.00, 0.00, -0.00, -1.00, 781.5, 121.0)">c</text><text xml:space="preserve" font-family="ComicSansMS" font-size="42.8" fill="#858585" transform="matrix(1.00, 0.00, -0.00, -1.00, 803.4, 121.0)">i</text><text xml:space="preserve" font-family="ComicSansMS" font-size="42.8" fill="#858585" transform="matrix(1.00, 0.00, -0.00, -1.00, 815.4, 121.0)">f</text><text xml:space="preserve" font-family="ComicSansMS" font-size="42.8" fill="#858585" transform="matrix(1.00, 0.00, -0.00, -1.00, 837.2, 121.0)">i</text><text xml:space="preserve" font-family="ComicSansMS" font-size="42.8" fill="#858585" transform="matrix(1.00, 0.00, -0.00, -1.00, 849.2, 121.0)">c</text></g></svg>